<?xml version="1.0" standalone="no"?>
<!DOCTYPE svg PUBLIC "-//W3C//DTD SVG 1.1//EN" "http://www.w3.org/Graphics/SVG/1.1/DTD/svg11.dtd" >
<svg xmlns="http://www.w3.org/2000/svg" xmlns:xlink="http://www.w3.org/1999/xlink" version="1.1">
<metadata>
Created by FontForge 20201107 at Mon Dec  2 20:33:37 2024
 By 
Copyright (c) 2019 by Emil Bertell. All rights reserved.
</metadata>
<defs>
<font id="Resolve-BlackNrwIta" horiz-adv-x="0" >
  <font-face 
    font-family="Resolve-BlackNrwIta"
    font-weight="900"
    font-style="italic"
    font-stretch="semi-condensed"
    units-per-em="2048"
    panose-1="1 0 0 0 0 0 0 0 0 0"
    ascent="1638"
    descent="-410"
    x-height="977"
    cap-height="1356"
    bbox="-805 -444 1969.83 1808"
    underline-thickness="102"
    underline-position="-255"
    slope="-10"
    unicode-range="U+0020-FB02"
  />
<missing-glyph horiz-adv-x="878" 
d="M164 1399h557v-1757h-557v1757zM586 1223v59h-291v-59h115v-66h-117v-57h293v57h-117v66h117zM469 932v123h-176v-183h293v60h-117zM352 995h58v-63h-58v63zM586 766v57h-293v-57h117v-66h-117v-57h176v123h117zM586 543v176h-60v-117h-233v-59h293zM586 305v199h-176
v-98h59v40h57v-81h-174v139h-59v-199h293zM586 2v199h-293v-199h293zM352 143h174v-84h-174v84zM586 -96v57h-293v-57h123l-123 -82v-60h293v60h-180l122 82h58z" />
    <glyph glyph-name="fi" unicode="fi" horiz-adv-x="1107" 
d="M1053 1442q153 0 153 -131q0 -106 -58.5 -169t-158.5 -63q-78 0 -118 34t-40 99q0 107 60 168.5t162 61.5zM729 977l-49 -277h-188l-125 -700h-342l122 700h-100l49 277h101l6 35q12 68 29.5 120.5t50 104.5t77 86t114.5 55t159 21h203l-52 -305h-155q-36 0 -55 -16
t-27 -68l-6 -33h188zM969 0h-338l172 977h338z" />
    <glyph glyph-name="fl" unicode="fl" horiz-adv-x="1105" 
d="M729 977l-49 -277h-188l-125 -700h-342l122 700h-100l49 277h101l6 35q12 68 29.5 120.5t50 104.5t77 86t114.5 55t159 21h203l-52 -305h-155q-36 0 -55 -16t-27 -68l-6 -33h188zM635 0l248 1399h336l-248 -1399h-336z" />
    <glyph glyph-name=".notdef" horiz-adv-x="878" 
d="M164 1399h557v-1757h-557v1757zM586 1223v59h-291v-59h115v-66h-117v-57h293v57h-117v66h117zM469 932v123h-176v-183h293v60h-117zM352 995h58v-63h-58v63zM586 766v57h-293v-57h117v-66h-117v-57h176v123h117zM586 543v176h-60v-117h-233v-59h293zM586 305v199h-176
v-98h59v40h57v-81h-174v139h-59v-199h293zM586 2v199h-293v-199h293zM352 143h174v-84h-174v84zM586 -96v57h-293v-57h123l-123 -82v-60h293v60h-180l122 82h58z" />
    <glyph glyph-name=".null" 
 />
    <glyph glyph-name="nonmarkingreturn" horiz-adv-x="682" 
 />
    <glyph glyph-name="space" unicode=" " horiz-adv-x="301" 
 />
    <glyph glyph-name="exclam" unicode="!" horiz-adv-x="555" 
d="M420 444h-307l137 912h354zM190 -27q-161 0 -161 150q0 104 61.5 167.5t167.5 63.5q79 0 120.5 -37.5t41.5 -109.5q0 -105 -63 -169.5t-167 -64.5z" />
    <glyph glyph-name="quotedbl" unicode="&#x22;" horiz-adv-x="774" 
d="M401 885h-213l41 471h299zM725 885h-213l41 471h299z" />
    <glyph glyph-name="numbersign" unicode="#" horiz-adv-x="1294" 
d="M1004 1356h346l-103 -252h86l-47 -281h-153l-113 -274h100l-45 -281h-170l-108 -268h-346l108 268h-92l-111 -268h-346l111 268h-88l45 281h158l112 274h-115l48 281h182l102 252h346l-102 -252h92zM582 549h92l112 274h-92z" />
    <glyph glyph-name="dollar" unicode="$" horiz-adv-x="985" 
d="M860 1421l-29 -166q187 -76 154 -301l-10 -59h-373l10 59q10 62 -51 62q-29 0 -41.5 -9.5t-17.5 -31.5l-6 -31q-9 -52 53 -82l149 -49q146 -40 200 -131.5t30 -237.5l-4 -28q-47 -257 -297 -324l-29 -155h-377l27 155q-123 33 -174 117.5t-27 204.5l10 67h367l-12 -73
q-4 -31 11 -45.5t50 -14.5q68 0 76 51l6 39q6 34 -5 54.5t-52 39.5l-109 33q-317 73 -270 377l2 21q19 130 105 212.5t233 108.5l24 137h377z" />
    <glyph glyph-name="percent" unicode="%" horiz-adv-x="1398" 
d="M346 686q-143 0 -203.5 85t-33.5 233l20 114q46 264 324 264q146 0 206.5 -78t36.5 -219l-16 -96q-24 -156 -107 -229.5t-227 -73.5zM451 0h-361l924 1356h360zM377 911q17 0 26 10.5t15 36.5l26 156q6 22 2 33.5t-22 11.5q-17 0 -25.5 -10t-13.5 -35l-29 -156
q-6 -47 21 -47zM1012 -25q-144 0 -204.5 83.5t-33.5 232.5l19 115q24 129 102 196.5t223 67.5q146 0 206 -77.5t38 -219.5l-16 -97q-24 -156 -107 -228.5t-227 -72.5zM1042 201q17 0 26 9.5t15 35.5l27 157q10 46 -23 46q-28 0 -36 -46l-29 -157q-4 -22 0 -33.5t20 -11.5z
" />
    <glyph glyph-name="ampersand" unicode="&#x26;" horiz-adv-x="1284" 
d="M1317 633l-262 -324q-32 -37 -51 -53l141 -256h-426l-21 41q-153 -66 -356 -66q-199 0 -287.5 95t-58.5 260l12 63q22 120 102 197t238 129q-61 139 -41 278l10 62q48 321 461 321q93 0 165.5 -21.5t122.5 -65t67.5 -110.5t-0.5 -159l-15 -70q-42 -204 -317 -327l43 -78
l61 84h412zM672 1036l-15 -90q-11 -49 19 -112q64 40 78 102l18 96q16 64 -39 64q-49 0 -61 -60zM440 270q64 0 129 25l-77 156q-5 9 -14.5 25t-12.5 20q-69 -35 -78 -82l-12 -76q-10 -68 65 -68z" />
    <glyph glyph-name="quotesingle" unicode="'" horiz-adv-x="450" 
d="M401 885h-213l41 471h299z" />
    <glyph glyph-name="parenleft" unicode="(" horiz-adv-x="704" 
d="M549 152l-51 -302q-132 0 -219.5 31.5t-133.5 93t-57.5 153t8.5 212.5l133 790q19 112 53.5 188t97.5 132.5t161.5 82.5t240.5 26l-55 -306q-86 0 -123.5 -32t-52.5 -121l-131 -791q-13 -83 12 -120t117 -37z" />
    <glyph glyph-name="parenright" unicode=")" horiz-adv-x="704" 
d="M233 1255l52 304q257 0 348 -120.5t51 -369.5l-133 -790q-18 -112 -52.5 -188t-97.5 -132.5t-162 -82.5t-241 -26l55 304q86 0 123.5 32.5t52.5 120.5l131 793q15 82 -10 118.5t-117 36.5z" />
    <glyph glyph-name="asterisk" unicode="*" horiz-adv-x="712" 
d="M424 885l-123 -152l-154 135l156 138l-153 43l114 204l117 -71l8 174h238l-56 -176l146 73l43 -204l-172 -48l102 -137l-198 -131z" />
    <glyph glyph-name="plus" unicode="+" horiz-adv-x="735" 
d="M559 795h164l-47 -258h-162l-37 -205h-276l37 205h-162l47 258h162l37 204h274z" />
    <glyph glyph-name="comma" unicode="," horiz-adv-x="489" 
d="M-115 -324l156 500h324l-240 -500h-240z" />
    <glyph glyph-name="hyphen" unicode="-" horiz-adv-x="722" 
d="M647 485h-575l53 291h575z" />
    <glyph glyph-name="period" unicode="." horiz-adv-x="444" 
d="M133 -25q-153 0 -153 140q0 98 58.5 157.5t158.5 59.5q151 0 151 -137q0 -99 -58.5 -159.5t-156.5 -60.5z" />
    <glyph glyph-name="slash" unicode="/" horiz-adv-x="1150" 
d="M301 -129h-410l1024 1593h408z" />
    <glyph glyph-name="zero" unicode="0" horiz-adv-x="1118" 
d="M467 -25q-234 -1 -339.5 128t-64.5 366l74 418q88 493 574 493q244 1 347.5 -129t61.5 -364l-73 -418q-44 -253 -188.5 -373.5t-391.5 -120.5zM524 293q123 0 150 174l76 422q30 174 -91 174q-63 0 -98.5 -40t-52.5 -134l-74 -422q-29 -174 90 -174z" />
    <glyph glyph-name="one" unicode="1" horiz-adv-x="651" 
d="M123 1280l287 76h270l-240 -1356h-356l184 1040l-123 -36z" />
    <glyph glyph-name="two" unicode="2" horiz-adv-x="964" 
d="M637 1382q204 0 289 -92t61 -258l-10 -55q-19 -141 -97 -257.5t-247 -277.5l-113 -120h398l-58 -322h-872l47 276l344 357q104 95 150 155.5t65 141.5l10 67q19 80 -39 80q-67 0 -92 -127l-18 -106h-365l16 98q29 206 173 323t358 117z" />
    <glyph glyph-name="three" unicode="3" horiz-adv-x="952" 
d="M649 1382q214 0 300 -90.5t63 -247.5l-13 -81q-31 -210 -231 -287q84 -39 119.5 -111.5t21.5 -169.5l-14 -86q-49 -334 -508 -334q-221 0 -319 116t-60 306l17 92h362l-18 -106q-9 -56 5.5 -79t53.5 -23q72 0 86 75l18 103q6 45 -14 66.5t-76 21.5h-139l45 262h107
q69 0 100 19.5t41 70.5l18 105q14 73 -45 73q-60 0 -80 -84l-24 -121h-350l18 109q79 401 516 401z" />
    <glyph glyph-name="four" unicode="4" horiz-adv-x="966" 
d="M582 1356h401l-160 -893h117l-47 -268h-117l-35 -195h-338l35 195h-463l45 254zM563 905l-260 -442h182z" />
    <glyph glyph-name="five" unicode="5" horiz-adv-x="940" 
d="M985 1356l-57 -320h-434l-43 -221q85 49 200 49q143 0 216 -92t46 -270l-20 -129q-31 -194 -162.5 -296t-345.5 -102q-211 0 -312 107.5t-71 284.5l16 90h361l-19 -101q-14 -75 64 -75q77 0 92 86l25 139q7 49 -9.5 73.5t-50.5 24.5q-69 0 -88 -76l-4 -24h-332l160 852
h768z" />
    <glyph glyph-name="six" unicode="6" horiz-adv-x="1067" 
d="M692 1380q113 0 198 -32.5t133 -88t67 -127.5t6 -155l-15 -88h-372l18 100q7 37 -14 55.5t-68 18.5q-34 0 -58.5 -13.5t-39.5 -41.5t-22.5 -53.5t-14.5 -65.5l-21 -119q88 55 232 55q72 0 130 -19t102 -57t62 -104t5 -153l-21 -117q-32 -192 -168.5 -296t-379.5 -104
q-225 0 -327 129t-61 363l74 420q45 253 184 373t371 120zM623 377l22 125q8 48 -10.5 73t-73.5 25q-103 0 -119 -94l-22 -127q-9 -49 13.5 -74.5t70.5 -25.5q101 0 119 98z" />
    <glyph glyph-name="seven" unicode="7" horiz-adv-x="833" 
d="M115 1034l55 322h764l-47 -273l-459 -1083h-403l501 1034h-411z" />
    <glyph glyph-name="eight" unicode="8" horiz-adv-x="956" 
d="M635 1380q426 0 377 -336l-13 -71q-13 -90 -63.5 -164.5t-138.5 -118.5q149 -75 123 -280l-15 -93q-26 -166 -160 -254t-358 -88q-226 0 -323 90.5t-70 266.5l16 92q13 87 70 158.5t156 111.5q-69 45 -94.5 121.5t-12.5 171.5l14 72q25 158 151.5 239.5t340.5 81.5z
M500 999l-21 -114q-7 -39 9 -58.5t47 -19.5q30 0 50.5 19.5t24.5 56.5l21 116q11 76 -53 76q-66 0 -78 -76zM539 365l22 124q13 86 -65 86q-84 0 -99 -81l-22 -125q-8 -40 9 -63t58 -23q40 0 65.5 21.5t31.5 60.5z" />
    <glyph glyph-name="nine" unicode="9" horiz-adv-x="1042" 
d="M659 1380q230 0 329 -130t59 -363l-74 -412q-45 -258 -182.5 -379t-368.5 -121q-92 0 -165 21t-119 58t-75 88t-33 111.5t7 127.5l16 86h365l-17 -100q-8 -38 8.5 -56t59.5 -18q57 0 86 42.5t45 131.5l21 119q-89 -56 -220 -56q-165 0 -243 97t-39 280l20 113
q35 168 165.5 264t354.5 96zM504 973l-23 -125q-14 -92 76 -92q44 0 72.5 21t34.5 63l22 129q12 94 -76 94q-43 0 -71 -23.5t-35 -66.5z" />
    <glyph glyph-name="colon" unicode=":" horiz-adv-x="425" 
d="M236 625q-154 0 -154 139q0 99 58 158t159 59q152 0 152 -137q0 -99 -58 -159t-157 -60zM133 25q-153 0 -153 141q0 98 58.5 157.5t158.5 59.5q151 0 151 -137q0 -100 -58.5 -160.5t-156.5 -60.5z" />
    <glyph glyph-name="semicolon" unicode=";" horiz-adv-x="489" 
d="M274 623q-153 0 -153 139q0 99 58.5 159t158.5 60q151 0 151 -137q0 -100 -58.5 -160.5t-156.5 -60.5zM-125 -324l156 500h323l-237 -500h-242z" />
    <glyph glyph-name="less" unicode="&#x3c;" horiz-adv-x="542" 
d="M123 799l455 229l-50 -276l-245 -103l209 -102l-50 -277l-372 230z" />
    <glyph glyph-name="equal" unicode="=" horiz-adv-x="706" 
d="M688 688h-600l47 270h600zM631 360h-600l47 269h600z" />
    <glyph glyph-name="greater" unicode="&#x3e;" horiz-adv-x="544" 
d="M109 752l51 276l372 -229l-53 -299l-454 -230l49 277l245 102z" />
    <glyph glyph-name="question" unicode="?" horiz-adv-x="866" 
d="M588 1393q200 0 291 -93.5t67 -259.5l-10 -61q-19 -139 -94.5 -237t-227.5 -173l-51 -37l-24 -133h-338l47 267l139 98q44 26 66.5 41t48 36.5t38 44.5t17.5 52l12 74q10 65 -37 65q-51 0 -67 -82l-19 -110h-362l16 94q29 201 145.5 307.5t342.5 106.5zM377 360
q180 0 180 -149q0 -108 -70 -174t-186 -66q-184 0 -184 154q0 107 70 171t190 64z" />
    <glyph glyph-name="at" unicode="@" horiz-adv-x="1345" 
d="M817 1307q103 0 189 -19t158.5 -59.5t115.5 -104.5t60.5 -154.5t-5.5 -209.5l-47 -266q-31 -178 -116 -256t-230 -78q-102 0 -157.5 54t-65.5 142q-74 -129 -205 -129q-102 0 -143 78t-17 211l33 193q25 138 93.5 217.5t170.5 79.5q92 0 129 -76l8 47h273l-94 -524
q-14 -91 20 -91q37 0 53 91l60 327q29 169 -46.5 242.5t-273.5 73.5q-201 0 -304.5 -84t-137.5 -273l-45 -256q-17 -79 -6 -136.5t35.5 -96.5t67 -62t88 -33t100.5 -10h235l-37 -208h-223q-58 0 -110 6t-104.5 19.5t-94.5 36t-80 55.5t-62.5 77t-41 101t-15.5 128t14 158
l33 187q29 168 95 287.5t163 187t211 97.5t256 30zM662 465q35 0 51 92l20 117q18 94 -18 94q-35 0 -53 -94l-21 -117q-15 -92 21 -92z" />
    <glyph glyph-name="A" unicode="A" horiz-adv-x="1083" 
d="M999 0h-346l-8 178h-315l-70 -178h-348l602 1358h363zM614 897l-172 -434h191z" />
    <glyph glyph-name="B" unicode="B" horiz-adv-x="1093" 
d="M236 1356h567q76 0 133 -14t100.5 -45.5t61 -88.5t6.5 -137l-14 -86q-28 -201 -201 -270q195 -66 168 -293l-15 -86q-27 -180 -157.5 -258t-364.5 -78h-524zM496 797h98q54 0 79.5 16.5t33.5 54.5l18 107q5 36 -13 55t-63 19h-110zM662 397l18 107q12 78 -76 78h-147
l-47 -275h131q107 0 121 90z" />
    <glyph glyph-name="C" unicode="C" horiz-adv-x="1114" 
d="M471 -25q-251 0 -356 138t-58 405l64 363q45 262 181.5 381.5t414.5 119.5q240 0 352 -121t76 -352l-19 -100h-364l20 109q11 79 -15.5 117t-100.5 38q-85 0 -127.5 -56.5t-61.5 -166.5l-59 -342q-11 -70 -8.5 -119.5t30.5 -76.5t84 -27q83 0 121.5 37t52.5 120l19 103
h358l-14 -90q-28 -237 -176 -358.5t-414 -121.5z" />
    <glyph glyph-name="D" unicode="D" horiz-adv-x="1163" 
d="M236 1356h493q55 0 102.5 -5t95 -16t85 -31t71 -49t55.5 -70.5t35 -94t12.5 -121.5t-14.5 -152l-53 -303q-25 -145 -69.5 -241t-120 -158t-181 -88.5t-258.5 -26.5h-493zM756 522l55 318q18 98 -10.5 146t-116.5 48h-149l-123 -712h137q85 0 135.5 44t71.5 156z" />
    <glyph glyph-name="E" unicode="E" horiz-adv-x="948" 
d="M1047 1356l-58 -322h-452l-37 -209h360l-51 -295h-363l-36 -208h454l-57 -322h-811l240 1356h811z" />
    <glyph glyph-name="F" unicode="F" horiz-adv-x="940" 
d="M1061 1356l-55 -322h-469l-48 -266h373l-51 -293h-373l-84 -475h-358l240 1356h825z" />
    <glyph glyph-name="G" unicode="G" horiz-adv-x="1161" 
d="M731 1382q134 0 225.5 -31.5t139 -91t66 -133t14.5 -170.5l-15 -94h-377l17 101q2 54 -23.5 82t-101.5 28q-90 0 -135 -52.5t-64 -168.5l-59 -348q-20 -112 2.5 -166.5t107.5 -54.5q135 0 181 127l12 67h-217l47 273h586l-133 -750h-314l-2 86q-111 -111 -319 -111
q-194 0 -276.5 139t-37.5 402l58 324q22 126 65.5 221.5t115.5 169.5t182 112.5t255 38.5z" />
    <glyph glyph-name="H" unicode="H" horiz-adv-x="1144" 
d="M764 825l94 531h356l-239 -1356h-357l89 502h-265l-88 -502h-358l240 1356h358l-94 -531h264z" />
    <glyph glyph-name="I" unicode="I" horiz-adv-x="522" 
d="M354 0h-358l240 1356h358z" />
    <glyph glyph-name="J" unicode="J" horiz-adv-x="679" 
d="M70 0h-140l58 322l104 2q77 2 113 30t49 103l160 899h356l-166 -934q-22 -123 -60 -203t-103 -129.5t-153.5 -69.5t-217.5 -20z" />
    <glyph glyph-name="K" unicode="K" horiz-adv-x="1142" 
d="M819 1356h451l-453 -543l223 -813h-387l-116 475l-127 -153l-58 -322h-356l240 1356h356l-74 -412z" />
    <glyph glyph-name="L" unicode="L" horiz-adv-x="819" 
d="M594 1356l-182 -1034h360l-57 -322h-719l240 1356h358z" />
    <glyph glyph-name="M" unicode="M" horiz-adv-x="1468" 
d="M770 690l315 666h453l-240 -1356h-340l107 604l-250 -506h-303l-70 500l-106 -598h-340l240 1356h454z" />
    <glyph glyph-name="N" unicode="N" horiz-adv-x="1159" 
d="M776 680l119 676h334l-238 -1356h-424l-129 606l-106 -606h-336l240 1356h409z" />
    <glyph glyph-name="O" unicode="O" horiz-adv-x="1173" 
d="M496 -25q-271 -1 -378 135t-61 408l56 322q93 539 630 542q274 1 380 -136t61 -406l-56 -322q-93 -543 -632 -543zM555 297q90 0 135 57t66 166l57 318q22 112 -6.5 167.5t-118.5 55.5q-89 0 -135.5 -53.5t-67.5 -169.5l-57 -318q-22 -113 7.5 -168t119.5 -55z" />
    <glyph glyph-name="P" unicode="P" horiz-adv-x="1052" 
d="M236 1356h477q77 0 134 -7t116 -30.5t93.5 -63t50 -110t1.5 -166.5l-25 -137q-58 -400 -532 -400h-119l-78 -442h-358zM707 840l20 116q6 47 -10.5 70t-65.5 23h-112l-52 -297h111q49 0 75.5 19t33.5 69z" />
    <glyph glyph-name="Q" unicode="Q" horiz-adv-x="1173" 
d="M743 1382q274 1 380 -136t61 -406l-56 -322q-67 -381 -350 -493l158 -177l-252 -221l-322 357q-196 32 -270.5 165t-34.5 369l56 322q93 539 630 542zM756 520l57 318q22 112 -6.5 167.5t-118.5 55.5q-89 0 -135.5 -53.5t-67.5 -169.5l-57 -318q-22 -113 7.5 -168
t119.5 -55t135 57t66 166z" />
    <glyph glyph-name="R" unicode="R" horiz-adv-x="1056" 
d="M236 1356h509q56 0 103.5 -6.5t94 -23t78 -44.5t56.5 -70t29 -99.5t-4 -133.5l-25 -150q-36 -239 -254 -327l140 -502h-412l-92 457h-25l-80 -457h-358zM688 842l21 119q6 46 -11 63.5t-63 17.5h-96l-52 -284h93q52 0 77 18t31 66z" />
    <glyph glyph-name="S" unicode="S" horiz-adv-x="1003" 
d="M410 -25q-87 0 -157 15.5t-116.5 43t-79 66t-45.5 84t-16 96.5t10 105l14 82h334l-14 -88q-3 -103 123 -103q64 0 91 18t34 52l12 64q6 33 -6.5 54.5t-54.5 41.5l-138 53q-29 9 -53 17.5t-50 19.5t-46.5 23.5t-41.5 28t-36.5 33.5t-29.5 40t-22.5 48.5t-13.5 57t-4.5 67
t5.5 77.5l6 47q24 173 153 268.5t361 95.5q81 0 146 -13t109 -34t76.5 -52.5t51 -65t28.5 -76t12.5 -79.5t0.5 -81l-11 -74h-354l14 80q2 47 -23 70.5t-87 23.5q-57 0 -80.5 -14t-28.5 -43l-10 -53q-5 -33 12.5 -56t65.5 -43l166 -57q64 -21 110.5 -49.5t85.5 -74.5
t53 -116.5t1 -162.5l-9 -54q-17 -107 -64.5 -183t-121.5 -119t-162 -62t-200 -19z" />
    <glyph glyph-name="T" unicode="T" horiz-adv-x="1013" 
d="M203 1356h915l-57 -322h-281l-182 -1034h-358l182 1034h-279z" />
    <glyph glyph-name="U" unicode="U" horiz-adv-x="1165" 
d="M492 -25q-112 -1 -195.5 26t-133.5 77t-77 121t-27.5 158.5t15.5 189.5l141 809h373l-150 -842q-19 -112 6 -164.5t107 -52.5q85 0 124 53t60 164l150 842h370l-143 -809q-27 -156 -69 -259t-113.5 -175.5t-177.5 -105t-260 -32.5z" />
    <glyph glyph-name="V" unicode="V" horiz-adv-x="1134" 
d="M571 508l330 848h367l-619 -1358h-338l-139 1358h367z" />
    <glyph glyph-name="W" unicode="W" horiz-adv-x="1818" 
d="M1253 524l318 832h379l-621 -1358h-344l-51 625l-272 -625h-347l-143 1358h381l27 -830l325 830h312z" />
    <glyph glyph-name="X" unicode="X" horiz-adv-x="1093" 
d="M831 1356h400l-428 -674l198 -682h-411l-72 369l-201 -369h-397l442 688l-192 668h414l59 -357z" />
    <glyph glyph-name="Y" unicode="Y" horiz-adv-x="1077" 
d="M821 1356h406l-494 -791l-98 -565h-359l97 539l-217 817h419l52 -381z" />
    <glyph glyph-name="Z" unicode="Z" horiz-adv-x="1021" 
d="M207 1356h868l-49 -287l-539 -747h459l-57 -322h-893l53 299l545 735h-444z" />
    <glyph glyph-name="bracketleft" unicode="[" horiz-adv-x="688" 
d="M594 1280l-199 -1133h142l-52 -278h-456l297 1690h458l-49 -279h-141z" />
    <glyph glyph-name="backslash" unicode="\" horiz-adv-x="1185" 
d="M537 1464l540 -1593h-366l-539 1593h365z" />
    <glyph glyph-name="bracketright" unicode="]" horiz-adv-x="690" 
d="M176 147l199 1133h-142l50 279h458l-297 -1690h-458l47 278h143z" />
    <glyph glyph-name="asciicircum" unicode="^" horiz-adv-x="1169" 
 />
    <glyph glyph-name="underscore" unicode="_" horiz-adv-x="970" 
d="M741 -346h-811l54 274h809z" />
    <glyph glyph-name="a" unicode="a" horiz-adv-x="806" 
d="M502 1001q100 0 167 -28t96 -76.5t37 -115t-9 -144.5l-113 -637h-307l14 74q-86 -99 -227 -99h-6q-98 0 -149.5 65.5t-31.5 188.5l15 86q19 123 100 183.5t236 60.5h127l16 98q8 62 -23 62q-33 0 -43 -53l-8 -58h-305l8 47q21 163 121.5 254.5t284.5 91.5zM324 205h2
q25 0 46 21.5t29 64.5l15 82h-27q-41 0 -59.5 -10t-24.5 -35l-14 -72q-11 -51 33 -51z" />
    <glyph glyph-name="b" unicode="b" horiz-adv-x="847" 
d="M641 1001q134 0 186 -92.5t21 -265.5l-55 -315q-30 -170 -116 -261.5t-222 -91.5q-129 0 -187 91l-10 -66h-295l242 1372h336l-78 -440q69 69 178 69zM453 348l49 279q16 96 -29 96q-44 0 -61 -82l-54 -303q-12 -82 33 -82q48 0 62 92z" />
    <glyph glyph-name="c" unicode="c" horiz-adv-x="804" 
d="M322 -25q-190 0 -269.5 104.5t-44.5 303.5l43 231q35 203 141.5 295t303.5 92q83 0 144.5 -19.5t96.5 -54t55.5 -81.5t20 -102.5t-9.5 -116.5l-17 -92h-327l18 104q17 84 -24 84q-21 0 -34 -22t-22 -72l-51 -283q-8 -54 -2.5 -73t27.5 -19q39 0 55 86l16 94h326l-16 -96
q-30 -167 -134 -265t-296 -98z" />
    <glyph glyph-name="d" unicode="d" horiz-adv-x="849" 
d="M547 950l78 449h336l-248 -1399h-279l12 76q-87 -103 -227 -103q-139 0 -194.5 97.5t-22.5 269.5l51 289q34 198 115.5 285t218.5 87q106 0 160 -51zM377 254q45 0 63 92l49 283q17 94 -30 94t-64 -96l-49 -279q-17 -94 31 -94z" />
    <glyph glyph-name="e" unicode="e" horiz-adv-x="819" 
d="M504 1001q376 0 307 -397l-33 -188h-420l-14 -78q-13 -84 35 -84q42 0 53 51l14 70h324l-10 -64q-58 -336 -436 -336q-187 0 -270 98.5t-48 295.5l41 239q37 204 152.5 298.5t304.5 94.5zM401 659l-16 -90h88l14 90q10 66 -32 66q-20 0 -35 -17.5t-19 -48.5z" />
    <glyph glyph-name="f" unicode="f" horiz-adv-x="681" 
d="M784 1094h-155q-36 0 -55 -16t-27 -68l-6 -33h188l-49 -277h-188l-125 -700h-342l122 700h-100l49 277h101l6 35q12 68 29.5 120.5t50 104.5t77 86t114.5 55t159 21h203z" />
    <glyph glyph-name="g" unicode="g" horiz-adv-x="851" 
d="M588 877l16 100h283l-164 -930q-41 -234 -147.5 -332t-311.5 -98q-173 0 -254.5 95t-56.5 249l6 31h324l-7 -39q-12 -64 35 -64q51 0 64 78l24 139q-74 -71 -188 -71q-123 0 -175 98.5t-24 269.5l41 232q29 173 116 269.5t230 96.5q146 0 189 -124zM389 315q20 0 36.5 22
t25.5 64l43 246q4 41 -3.5 58.5t-29.5 17.5q-47 0 -64 -96l-39 -217q-20 -95 31 -95z" />
    <glyph glyph-name="h" unicode="h" horiz-adv-x="872" 
d="M672 1004q118 0 167.5 -76t22.5 -228l-123 -700h-338l113 639q15 84 -31 84q-47 0 -67 -76l-115 -647h-338l248 1399h338l-84 -469q83 74 207 74z" />
    <glyph glyph-name="i" unicode="i" horiz-adv-x="450" 
d="M332 1079q-78 0 -118 34t-40 99q0 107 59.5 168.5t161.5 61.5q154 0 154 -131q0 -106 -58.5 -169t-158.5 -63zM311 0h-338l172 977h338z" />
    <glyph glyph-name="j" unicode="j" horiz-adv-x="458" 
d="M340 1079q-154 0 -154 133q0 106 59 168t161 62q153 0 153 -131q0 -106 -59.5 -169t-159.5 -63zM-104 -358h-60l53 299h31q45 0 55 57l172 979h338l-174 -989q-15 -82 -42 -142t-74 -108t-122 -72t-177 -24z" />
    <glyph glyph-name="k" unicode="k" horiz-adv-x="903" 
d="M614 977h365l-293 -334l121 -643h-346l-45 334l-72 -82l-45 -252h-336l248 1399h336l-117 -662z" />
    <glyph glyph-name="l" unicode="l" horiz-adv-x="436" 
d="M-37 0h336l248 1399h-336z" />
    <glyph glyph-name="m" unicode="m" horiz-adv-x="1304" 
d="M1102 1001q129 0 173 -77t17 -224l-123 -700h-338l113 639q16 84 -26 84q-40 0 -62 -70l-115 -653h-338l113 639q15 84 -29 84q-46 0 -63 -94l-111 -629h-338l172 977h295l-18 -111q92 135 254 135q145 0 182 -116q92 116 242 116z" />
    <glyph glyph-name="n" unicode="n" horiz-adv-x="884" 
d="M684 1001q117 0 167 -75.5t23 -227.5l-122 -698h-338l112 639q15 82 -32 82q-25 0 -44 -24t-26 -70l-111 -627h-338l172 977h295l-18 -111q95 135 260 135z" />
    <glyph glyph-name="o" unicode="o" horiz-adv-x="847" 
d="M334 -25q-196 0 -278 102.5t-48 297.5l37 219q37 209 147.5 307.5t317.5 99.5q401 3 330 -407l-39 -219q-34 -205 -145.5 -302.5t-321.5 -97.5zM383 254q53 0 70 96l47 275q17 98 -35 98q-55 0 -70 -98l-47 -275q-16 -96 35 -96z" />
    <glyph glyph-name="p" unicode="p" horiz-adv-x="849" 
d="M631 1001q140 0 193.5 -97.5t23.5 -276.5l-51 -285q-30 -173 -119.5 -270t-226.5 -97q-94 0 -148 54l-67 -387h-334l233 1335h281l-15 -84q82 108 230 108zM455 348l49 279q16 94 -31 94q-46 0 -63 -94l-50 -279q-16 -92 31 -92q48 0 64 92z" />
    <glyph glyph-name="q" unicode="q" horiz-adv-x="849" 
d="M592 885l16 92h279l-236 -1335h-336l68 381q-70 -48 -166 -48q-137 0 -191 97t-24 270l49 285q31 173 119 273.5t231 100.5q149 0 191 -116zM440 348l49 279q17 94 -30 94q-46 0 -64 -94l-49 -279q-16 -92 31 -92q49 0 63 92z" />
    <glyph glyph-name="r" unicode="r" horiz-adv-x="626" 
d="M440 977l-20 -115q91 137 260 137l-53 -303q-83 0 -124 -11.5t-61.5 -39.5t-29.5 -88l-99 -557h-338l172 977h293z" />
    <glyph glyph-name="s" unicode="s" horiz-adv-x="796" 
d="M319 -25q-102 0 -175 25t-110 68.5t-49 95t-1 110.5l10 58h307l-8 -53q-4 -22 8.5 -32.5t42.5 -10.5q61 0 64 40l4 25q2 23 -7.5 36t-39.5 23l-86 29q-130 35 -183 121.5t-35 202.5l5 28q44 260 372 260q199 0 283.5 -78.5t64.5 -220.5l-8 -45h-309l8 45q10 43 -41 43
q-44 0 -47 -32l-4 -21q-2 -23 7.5 -35.5t37.5 -21.5l111 -37q107 -34 160 -104.5t40 -200.5l-6 -33q-11 -77 -48.5 -133.5t-95 -88.5t-125.5 -47.5t-147 -15.5z" />
    <glyph glyph-name="t" unicode="t" horiz-adv-x="610" 
d="M606 700h-143l-57 -323q-9 -51 3.5 -70.5t57.5 -19.5h80l-51 -287h-142q-188 0 -256.5 81t-36.5 257l64 362h-68l49 277h68l43 248h338l-43 -248h143z" />
    <glyph glyph-name="u" unicode="u" horiz-adv-x="878" 
d="M451 334l114 643h338l-172 -977h-299l14 86q-90 -111 -241 -111q-249 0 -195 304l125 698h338l-115 -639q-15 -82 29 -82q45 0 64 78z" />
    <glyph glyph-name="v" unicode="v" horiz-adv-x="897" 
d="M424 449l192 528h371l-452 -977h-353l-100 977h340z" />
    <glyph glyph-name="w" unicode="w" horiz-adv-x="1273" 
d="M877 502l155 475h336l-395 -977h-338l-12 430l-158 -430h-338l-51 977h340l-13 -457l175 457h282z" />
    <glyph glyph-name="x" unicode="x" horiz-adv-x="913" 
d="M598 977h373l-303 -492l141 -485h-342l-51 244l-113 -244h-371l306 494l-125 483h336l38 -246z" />
    <glyph glyph-name="y" unicode="y" horiz-adv-x="897" 
d="M451 512l170 465h364l-620 -1335h-336l174 335l-121 1000h364z" />
    <glyph glyph-name="z" unicode="z" horiz-adv-x="739" 
d="M104 977h668l-43 -248l-346 -453h289l-49 -276h-674l39 219l336 481h-269z" />
    <glyph glyph-name="braceleft" unicode="{" horiz-adv-x="694" 
d="M276 938l48 274q12 71 32 125t56 101t87 77t127 47t175 17l-53 -295q-61 0 -81.5 -23t-33.5 -92l-43 -245q-17 -94 -63.5 -149.5t-129.5 -78.5q147 -45 113 -225l-35 -203q-11 -67 2 -90.5t72 -23.5l-51 -295q-225 0 -302 94t-42 287l36 213q8 47 -3.5 67.5t-59.5 20.5
h-61l53 309h63q42 0 64 18t30 70z" />
    <glyph glyph-name="bar" unicode="|" horiz-adv-x="610" 
d="M25 -156h333l304 1710h-336z" />
    <glyph glyph-name="braceright" unicode="}" horiz-adv-x="696" 
d="M649 895h62l-56 -307h-61q-41 0 -63 -18.5t-31 -71.5l-47 -273q-16 -90 -44.5 -153t-82.5 -113.5t-141 -75t-210 -24.5l52 295q62 0 82.5 22t33.5 92l43 246q17 93 63.5 147.5t129.5 77.5q-75 23 -102.5 78.5t-12.5 149.5l37 202q11 66 -2.5 90.5t-73.5 24.5l54 295
q225 0 302 -95t42 -288l-37 -211q-8 -47 3.5 -68.5t59.5 -21.5z" />
    <glyph glyph-name="asciitilde" unicode="~" horiz-adv-x="630" 
d="M477 713q-48 0 -115.5 35.5t-115.5 35.5q-47 0 -84.5 -12t-100.5 -43l-32 -190q106 49 180 49q45 0 113.5 -36t119.5 -36q78 0 185 55l32 193q-99 -51 -182 -51z" />
    <glyph glyph-name="exclamdown" unicode="&#xa1;" horiz-adv-x="555" 
d="M362 999q164 0 164 -149q0 -104 -62.5 -166.5t-168.5 -62.5q-160 0 -160 145q0 106 61.5 169.5t165.5 63.5zM135 528h307l-137 -911h-354z" />
    <glyph glyph-name="cent" unicode="&#xa2;" horiz-adv-x="1009" 
d="M860 1356l-31 -168q241 -78 179 -373l-11 -55h-360l10 61q4 76 -59 76q-41 0 -64.5 -27t-34.5 -84l-38 -215q-24 -112 59 -112q35 0 58 21.5t24 56.5l10 59h367l-11 -55q-64 -295 -307 -371l-30 -170h-377l28 166q-134 40 -176.5 145t-13.5 271l33 194q58 339 338 414
l28 166h379z" />
    <glyph glyph-name="sterling" unicode="&#xa3;" horiz-adv-x="1060" 
d="M674 1382q235 0 343 -113t81 -315l-17 -94h-366l18 109q6 45 -12.5 67.5t-73.5 22.5q-78 0 -88 -53l-6 -37q-15 -82 33 -166l35 -84h333l-36 -205h-242q0 -14 -2 -22l-2 -13q-16 -106 -123 -157h455l-58 -322h-989l57 319h107q117 0 135 93l2 10q8 46 2 92h-199l35 205
h99q-47 135 -25 285l4 22q61 356 500 356z" />
    <glyph glyph-name="currency" unicode="&#xa4;" horiz-adv-x="1228" 
d="M1100 784l-25 -141q-21 -115 -74 -199l107 -114l-256 -219l-129 135q-78 -19 -154 -19q-85 0 -149 17l-176 -133l-178 219l143 112q-21 83 0 201l27 141q20 116 75 205l-108 117l256 221l133 -139q63 16 149 16q76 0 142 -16l184 139l178 -221l-145 -115q21 -85 0 -207z
M598 801l-29 -168q-10 -50 5 -75.5t49 -25.5q71 0 88 101l30 168q17 98 -53 98q-71 0 -90 -98z" />
    <glyph glyph-name="yen" unicode="&#xa5;" horiz-adv-x="1048" 
d="M811 1356h391l-387 -668h189l-35 -199h-262l-13 -65h262l-34 -199h-263l-38 -225h-359l39 225h-258l35 199h258l12 65h-260l35 199h192l-161 668h376l62 -473z" />
    <glyph glyph-name="brokenbar" unicode="&#xa6;" horiz-adv-x="610" 
d="M190 788h336l136 766h-336zM494 608h-334l-135 -764h333z" />
    <glyph glyph-name="section" unicode="&#xa7;" horiz-adv-x="1091" 
d="M684 1382q234 0 330 -97t76 -267l-9 -49h-338l9 53q6 32 -19.5 51t-85.5 19q-44 0 -62.5 -11.5t-23.5 -36.5l-6 -22q-4 -32 10.5 -52.5t52.5 -35.5l236 -49q242 -45 211 -279l-4 -31q-25 -172 -203 -237q97 -93 72 -262l-2 -17q-29 -161 -160.5 -244t-349.5 -83
q-112 0 -194 28.5t-127 79t-61 115t-3 139.5l10 51h338l-10 -53q-5 -33 14 -51t70 -18q57 0 80 13t28 38l4 22q6 32 -7.5 49t-49.5 33l-225 49q-127 23 -186 101.5t-40 201.5l4 29q13 85 59.5 141.5t141.5 87.5q-89 95 -69 267l2 18q45 309 487 309zM690 522l4 17
q8 37 -9.5 59t-68.5 41l-108 31q-36 -7 -53.5 -24.5t-22.5 -47.5l-4 -16q-9 -43 9 -67t63 -38l114 -33q67 19 76 78z" />
    <glyph glyph-name="copyright" unicode="&#xa9;" horiz-adv-x="1214" 
d="M516 -25q-274 -2 -391.5 139t-71.5 416l53 297q49 285 209.5 419t448.5 136q276 1 393 -139t70 -416l-51 -297q-50 -282 -211.5 -418.5t-448.5 -136.5zM539 109q110 0 193 30t137.5 88t88 133.5t52.5 176.5l49 284q40 210 -31.5 318t-288.5 108q-201 0 -314 -104.5
t-153 -321.5l-51 -284q-42 -215 36 -321.5t282 -106.5zM545 199q-155 0 -218 88t-32 260l47 268q30 176 122.5 263t262.5 87q155 0 227.5 -84t42.5 -239l-16 -92h-268l16 100q7 35 -2.5 54.5t-32.5 19.5q-32 0 -48.5 -25.5t-24.5 -75.5l-52 -282q-9 -54 -1 -78.5t34 -24.5
q28 0 41 14.5t23 49.5l16 92h256l-16 -86q-37 -165 -122.5 -237t-254.5 -72z" />
    <glyph glyph-name="guillemotleft" unicode="&#xab;" horiz-adv-x="980" 
d="M295 934h299l-229 -381l92 -311h-279l-119 336zM694 934h299l-229 -381l92 -311h-281l-116 336z" />
    <glyph glyph-name="logicalnot" unicode="&#xac;" horiz-adv-x="1169" 
 />
    <glyph glyph-name="registered" unicode="&#xae;" horiz-adv-x="868" 
d="M590 1382q162 0 237 -88t43 -256l-26 -157q-61 -343 -402 -346q-159 -1 -234 91.5t-46 254.5l28 157q31 174 128.5 259t271.5 85zM729 872l29 166q23 126 -28 184t-157 58q-110 0 -178 -55.5t-90 -180.5l-29 -172q-42 -235 185 -235q48 0 89 12t77.5 38.5t63 73.5
t38.5 111zM416 1210h164q60 0 93 -27.5t21 -101.5l-14 -77q-11 -78 -62 -107l27 -170h-137l-12 147h-7l-26 -147h-135zM551 1012l8 55q3 17 -3 23t-24 6h-4l-20 -115h4q34 0 39 31z" />
    <glyph glyph-name="degree" unicode="&#xb0;" horiz-adv-x="708" 
d="M391 686q-149 0 -215 85t-41 224l17 92q25 147 107.5 221t254.5 74q147 0 212.5 -78t41.5 -217l-14 -98q-25 -154 -110.5 -228.5t-252.5 -74.5zM430 911q54 0 62 62l22 129q4 31 -5.5 44t-35.5 13t-40.5 -13t-20.5 -44l-23 -129q-9 -62 41 -62z" />
    <glyph glyph-name="plusminus" unicode="&#xb1;" horiz-adv-x="774" 
d="M623 1067l-27 -152h166l-43 -258h-170l-27 -151h-264l27 151h-166l43 258h170l26 152h265zM643 197h-614l47 268h614z" />
    <glyph glyph-name="paragraph" unicode="&#xb6;" horiz-adv-x="1452" 
d="M641 1356h840l-275 -1549h-342l219 1242h-65l-219 -1242h-344l94 535h-41q-105 0 -182 21.5t-133 69.5t-77.5 132t-6.5 203l28 176q52 412 504 412zM555 651h49l70 398h-41q-53 0 -80 -25t-39 -90l-27 -160q-11 -65 2 -94t66 -29z" />
    <glyph glyph-name="periodcentered" unicode="&#xb7;" horiz-adv-x="444" 
d="M225 502q-153 0 -153 141q0 97 59 157t158 60q151 0 151 -137q0 -100 -58 -160.5t-157 -60.5z" />
    <glyph glyph-name="guillemotright" unicode="&#xbb;" horiz-adv-x="980" 
d="M162 934h278l117 -336l-233 -356h-299l229 379zM561 934h279l116 -336l-233 -356h-301l231 379z" />
    <glyph glyph-name="onequarter" unicode="&#xbc;" horiz-adv-x="1253" 
d="M-45 0l922 1356h374l-923 -1356h-373zM143 672l84 483l-82 -18l-14 176l184 39h174l-120 -680h-226zM600 252l369 428h233l-74 -422h74l-31 -164h-71l-17 -94h-209l17 94h-318zM956 459l-178 -201h142z" />
    <glyph glyph-name="onehalf" unicode="&#xbd;" horiz-adv-x="1327" 
d="M-51 0l923 1356h375l-923 -1356h-375zM143 672l84 483l-82 -18l-14 176l184 39h174l-120 -680h-226zM1036 694q146 0 204 -57t40 -160l-4 -20q-21 -136 -201 -238l-28 -14h213l-37 -205h-574l35 186l244 140q46 31 69.5 54.5t30.5 55.5l4 23q3 18 -5.5 27.5t-33.5 9.5
q-61 0 -61 -58l-6 -30h-234l4 28q60 258 340 258z" />
    <glyph glyph-name="threequarters" unicode="&#xbe;" horiz-adv-x="1421" 
d="M678 879l-4 -25q-29 -192 -328 -192q-156 0 -218 63.5t-42 167.5l4 27h238l-4 -25q-4 -21 9 -30t46 -9t46 6t17 25l4 24q4 18 -10 25.5t-49 7.5h-108l26 139h101q59 0 67 33l4 25q3 17 -7 25t-32 8q-53 0 -59 -39l-6 -25h-223l4 29q24 118 101.5 174.5t229.5 56.5
q142 0 200 -50.5t40 -137.5l-4 -19q-9 -48 -41.5 -86t-87.5 -59q101 -42 86 -139zM141 0l922 1356h375l-924 -1356h-373zM768 252l369 428h233l-74 -422h74l-29 -164h-73l-17 -94h-207l17 94h-320zM1126 463l-178 -205h142z" />
    <glyph glyph-name="questiondown" unicode="&#xbf;" horiz-adv-x="872" 
d="M500 612q-181 0 -181 150q0 108 69 173.5t187 65.5q183 0 183 -153q0 -107 -69.5 -171.5t-188.5 -64.5zM410 -25l20 111h363l-17 -94q-31 -201 -146.5 -306.5t-342.5 -105.5q-199 0 -290 92.5t-69 259.5l11 62q19 138 95 235.5t228 173.5l51 39l25 131h336l-45 -266
l-142 -98q-44 -27 -65.5 -41t-47 -36t-38 -45t-17.5 -52l-12 -76q-13 -63 37 -63q28 0 43 20t23 59z" />
    <glyph glyph-name="Agrave" unicode="&#xc0;" horiz-adv-x="1083" 
d="M770 1774l115 -310h-289l-154 310h328zM999 0h-346l-8 178h-315l-70 -178h-348l602 1358h363zM614 897l-172 -434h191z" />
    <glyph glyph-name="Aacute" unicode="&#xc1;" horiz-adv-x="1083" 
d="M782 1774h326l-260 -310h-291zM-88 0l602 1358h363l122 -1358h-346l-8 178h-315l-70 -178h-348zM614 897l-172 -434h191z" />
    <glyph glyph-name="Acircumflex" unicode="&#xc2;" horiz-adv-x="1083" 
d="M762 1448l-35 98l-72 -98h-264l225 309h297l115 -309h-266zM-88 0l602 1358h363l122 -1358h-346l-8 178h-315l-70 -178h-348zM614 897l-172 -434h191z" />
    <glyph glyph-name="Atilde" unicode="&#xc3;" horiz-adv-x="1083" 
d="M821 1495q-45 0 -101.5 32t-94.5 32q-41 0 -72.5 -10t-77.5 -38l39 224q77 51 152 51q46 0 102.5 -32t97.5 -32q72 0 152 52l-39 -226q-77 -53 -158 -53zM-88 0l602 1358h363l122 -1358h-346l-8 178h-315l-70 -178h-348zM614 897l-172 -434h191z" />
    <glyph glyph-name="Adieresis" unicode="&#xc4;" horiz-adv-x="1083" 
d="M557 1483q-129 0 -129 116q0 93 50 149t134 56q129 0 129 -114q0 -94 -50.5 -150.5t-133.5 -56.5zM936 1804q127 0 127 -114q0 -94 -49.5 -150.5t-132.5 -56.5q-131 0 -131 116q0 93 51 149t135 56zM-88 0l602 1358h363l122 -1358h-346l-8 178h-315l-70 -178h-348z
M614 897l-172 -434h191z" />
    <glyph glyph-name="Aring" unicode="&#xc5;" horiz-adv-x="1083" 
d="M709 1421q-102 0 -158.5 43t-56.5 131q0 98 71 155.5t211 57.5q215 0 215 -166q0 -107 -72.5 -164t-209.5 -57zM754 1665q-33 0 -50.5 -18t-17.5 -45q0 -37 47 -37q31 0 48.5 18.5t17.5 44.5q0 37 -45 37zM999 0h-346l-8 178h-315l-70 -178h-348l602 1358h363zM614 897
l-172 -434h191z" />
    <glyph glyph-name="AE" unicode="&#xc6;" horiz-adv-x="1511" 
d="M1608 1356l-56 -322h-419l-29 -211h315l-51 -293h-303l-29 -208h391l-57 -322h-737l29 205h-316l-92 -205h-354l659 1356h1049zM721 1034l-248 -547h229l78 547h-59z" />
    <glyph glyph-name="Ccedilla" unicode="&#xc7;" horiz-adv-x="1114" 
d="M717 1382q240 0 352 -121t76 -352l-19 -100h-364l20 109q11 79 -15.5 117t-100.5 38q-85 0 -127.5 -56.5t-61.5 -166.5l-59 -342q-11 -70 -8.5 -119.5t30.5 -76.5t84 -27q83 0 121.5 37t52.5 120l19 103h358l-14 -90q-50 -430 -486 -473l-38 -62q157 -18 157 -131
q0 -134 -123.5 -192.5t-345.5 -32.5l31 176q92 -8 134 -1t42 30q0 35 -135 22l20 119l45 74q-192 28 -269 163t-36 371l64 363q45 262 181.5 381.5t414.5 119.5z" />
    <glyph glyph-name="Egrave" unicode="&#xc8;" horiz-adv-x="948" 
d="M698 1774l115 -310h-289l-153 310h327zM1047 1356l-58 -322h-452l-37 -209h360l-51 -295h-363l-36 -208h454l-57 -322h-811l240 1356h811z" />
    <glyph glyph-name="Eacute" unicode="&#xc9;" horiz-adv-x="948" 
d="M709 1774h325l-260 -310h-291zM1047 1356l-58 -322h-452l-37 -209h360l-51 -295h-363l-36 -208h454l-57 -322h-811l240 1356h811z" />
    <glyph glyph-name="Ecircumflex" unicode="&#xca;" horiz-adv-x="948" 
d="M688 1448l-35 98l-71 -98h-265l226 309h297l114 -309h-266zM1047 1356l-58 -322h-452l-37 -209h360l-51 -295h-363l-36 -208h454l-57 -322h-811l240 1356h811z" />
    <glyph glyph-name="Edieresis" unicode="&#xcb;" horiz-adv-x="948" 
d="M485 1483q-129 0 -129 116q0 93 50.5 149t134.5 56q129 0 129 -114q0 -94 -51 -150.5t-134 -56.5zM809 1483q-131 0 -131 116q0 93 51 149t135 56q127 0 127 -114q0 -94 -49.5 -150.5t-132.5 -56.5zM1047 1356l-58 -322h-452l-37 -209h360l-51 -295h-363l-36 -208h454
l-57 -322h-811l240 1356h811z" />
    <glyph glyph-name="Igrave" unicode="&#xcc;" horiz-adv-x="522" 
d="M604 1464h-289l-153 310h327zM354 0h-358l240 1356h358z" />
    <glyph glyph-name="Iacute" unicode="&#xcd;" horiz-adv-x="522" 
d="M567 1464h-291l226 310h325zM354 0h-358l240 1356h358z" />
    <glyph glyph-name="Icircumflex" unicode="&#xce;" horiz-adv-x="522" 
d="M479 1448l-35 98l-71 -98h-264l225 309h297l114 -309h-266zM354 0h-358l240 1356h358z" />
    <glyph glyph-name="Idieresis" unicode="&#xcf;" horiz-adv-x="522" 
d="M276 1483q-129 0 -129 116q0 93 50.5 149t134.5 56q129 0 129 -114q0 -94 -51 -150.5t-134 -56.5zM600 1483q-131 0 -131 116q0 93 50.5 149t135.5 56q127 0 127 -114q0 -94 -49.5 -150.5t-132.5 -56.5zM354 0h-358l240 1356h358z" />
    <glyph glyph-name="Eth" unicode="&#xd0;" horiz-adv-x="1216" 
d="M291 1356h491q56 0 103.5 -5t95 -16t85.5 -31t72 -49t55.5 -70.5t34.5 -94t12 -121.5t-15 -152l-54 -303q-34 -193 -104 -303t-194.5 -160.5t-327.5 -50.5h-494l96 545h-88l56 284h84zM809 522l55 318q18 98 -10.5 146t-116.5 48h-147l-35 -205h152l-56 -284h-145
l-39 -223h137q85 0 134.5 43.5t70.5 156.5z" />
    <glyph glyph-name="Ntilde" unicode="&#xd1;" horiz-adv-x="1159" 
d="M858 1495q-45 0 -101.5 32t-94.5 32q-41 0 -72.5 -10t-77.5 -38l39 224q77 51 151 51q46 0 103 -32t98 -32q72 0 152 52l-39 -226q-77 -53 -158 -53zM776 680l119 676h334l-238 -1356h-424l-129 606l-106 -606h-336l240 1356h409z" />
    <glyph glyph-name="Ograve" unicode="&#xd2;" horiz-adv-x="1173" 
d="M930 1464h-289l-154 310h328zM496 -25q-271 -1 -378 135t-61 408l56 322q93 539 630 542q274 1 380 -136t61 -406l-56 -322q-93 -543 -632 -543zM555 297q90 0 135 57t66 166l57 318q22 112 -6.5 167.5t-118.5 55.5q-89 0 -135.5 -53.5t-67.5 -169.5l-57 -318
q-22 -113 7.5 -168t119.5 -55z" />
    <glyph glyph-name="Oacute" unicode="&#xd3;" horiz-adv-x="1173" 
d="M893 1464h-291l225 310h326zM496 -25q-271 -1 -378 135t-61 408l56 322q93 539 630 542q274 1 380 -136t61 -406l-56 -322q-93 -543 -632 -543zM555 297q90 0 135 57t66 166l57 318q22 112 -6.5 167.5t-118.5 55.5q-89 0 -135.5 -53.5t-67.5 -169.5l-57 -318
q-22 -113 7.5 -168t119.5 -55z" />
    <glyph glyph-name="Ocircumflex" unicode="&#xd4;" horiz-adv-x="1173" 
d="M805 1448l-35 98l-72 -98h-264l225 309h297l115 -309h-266zM743 1382q274 1 380 -136t61 -406l-56 -322q-93 -543 -632 -543q-271 -1 -378 135t-61 408l56 322q93 539 630 542zM756 520l57 318q22 112 -6.5 167.5t-118.5 55.5q-89 0 -135.5 -53.5t-67.5 -169.5l-57 -318
q-22 -113 7.5 -168t119.5 -55t135 57t66 166z" />
    <glyph glyph-name="Otilde" unicode="&#xd5;" horiz-adv-x="1173" 
d="M866 1495q-45 0 -101.5 32t-94.5 32q-41 0 -72.5 -10t-77.5 -38l39 224q77 51 152 51q46 0 102.5 -32t97.5 -32q72 0 152 52l-39 -226q-77 -53 -158 -53zM496 -25q-271 -1 -378 135t-61 408l56 322q93 539 630 542q274 1 380 -136t61 -406l-56 -322q-93 -543 -632 -543z
M555 297q90 0 135 57t66 166l57 318q22 112 -6.5 167.5t-118.5 55.5q-89 0 -135.5 -53.5t-67.5 -169.5l-57 -318q-22 -113 7.5 -168t119.5 -55z" />
    <glyph glyph-name="Odieresis" unicode="&#xd6;" horiz-adv-x="1173" 
d="M602 1483q-129 0 -129 116q0 93 50 149t134 56q129 0 129 -114q0 -94 -50.5 -150.5t-133.5 -56.5zM926 1483q-131 0 -131 116q0 93 50.5 149t135.5 56q127 0 127 -114q0 -94 -49.5 -150.5t-132.5 -56.5zM496 -25q-271 -1 -378 135t-61 408l56 322q93 539 630 542
q274 1 380 -136t61 -406l-56 -322q-93 -543 -632 -543zM555 297q90 0 135 57t66 166l57 318q22 112 -6.5 167.5t-118.5 55.5q-89 0 -135.5 -53.5t-67.5 -169.5l-57 -318q-22 -113 7.5 -168t119.5 -55z" />
    <glyph glyph-name="multiply" unicode="&#xd7;" horiz-adv-x="714" 
d="M549 985l168 -174l-158 -152l109 -155l-222 -164l-88 127l-131 -125l-168 174l160 154l-108 157l215 164l92 -131z" />
    <glyph glyph-name="Oslash" unicode="&#xd8;" horiz-adv-x="1187" 
d="M1083 1427l177 -157l-91 -109q50 -126 15 -321l-56 -322q-93 -543 -632 -543q-166 0 -265 48l-77 -95l-174 156l90 111q-47 128 -13 323l56 322q93 539 630 542q162 0 265 -47zM485 838l-32 -176l315 382q-34 17 -80 17q-89 0 -135.5 -53.5t-67.5 -169.5zM756 520l32 178
l-315 -383q30 -18 82 -18q90 0 135 57t66 166z" />
    <glyph glyph-name="Ugrave" unicode="&#xd9;" horiz-adv-x="1165" 
d="M926 1464h-289l-154 310h328zM492 -25q-112 -1 -195.5 26t-133.5 77t-77 121t-27.5 158.5t15.5 189.5l141 809h373l-150 -842q-19 -112 6 -164.5t107 -52.5q85 0 124 53t60 164l150 842h370l-143 -809q-27 -156 -69 -259t-113.5 -175.5t-177.5 -105t-260 -32.5z" />
    <glyph glyph-name="Uacute" unicode="&#xda;" horiz-adv-x="1165" 
d="M889 1464h-291l225 310h326zM492 -25q-112 -1 -195.5 26t-133.5 77t-77 121t-27.5 158.5t15.5 189.5l141 809h373l-150 -842q-19 -112 6 -164.5t107 -52.5q85 0 124 53t60 164l150 842h370l-143 -809q-27 -156 -69 -259t-113.5 -175.5t-177.5 -105t-260 -32.5z" />
    <glyph glyph-name="Ucircumflex" unicode="&#xdb;" horiz-adv-x="1165" 
d="M801 1448l-35 98l-72 -98h-264l225 309h297l115 -309h-266zM735 514l150 842h370l-143 -809q-27 -156 -69 -259t-113.5 -175.5t-177.5 -105t-260 -32.5q-112 -1 -195.5 26t-133.5 77t-77 121t-27.5 158.5t15.5 189.5l141 809h373l-150 -842q-19 -112 6 -164.5t107 -52.5
q85 0 124 53t60 164z" />
    <glyph glyph-name="Udieresis" unicode="&#xdc;" horiz-adv-x="1165" 
d="M598 1483q-129 0 -129 116q0 93 50 149t134 56q129 0 129 -114q0 -94 -50.5 -150.5t-133.5 -56.5zM922 1483q-131 0 -131 116q0 93 50.5 149t135.5 56q127 0 127 -114q0 -94 -49.5 -150.5t-132.5 -56.5zM492 -25q-112 -1 -195.5 26t-133.5 77t-77 121t-27.5 158.5
t15.5 189.5l141 809h373l-150 -842q-19 -112 6 -164.5t107 -52.5q85 0 124 53t60 164l150 842h370l-143 -809q-27 -156 -69 -259t-113.5 -175.5t-177.5 -105t-260 -32.5z" />
    <glyph glyph-name="Yacute" unicode="&#xdd;" horiz-adv-x="1077" 
d="M778 1774h326l-260 -310h-291zM821 1356h406l-494 -791l-98 -565h-359l97 539l-217 817h419l52 -381z" />
    <glyph glyph-name="Thorn" unicode="&#xde;" horiz-adv-x="1032" 
d="M557 1147h131q70 0 126 -8.5t111.5 -33.5t90 -66.5t50 -112.5t3.5 -166l-22 -129q-27 -195 -160.5 -297.5t-374.5 -102.5h-117l-41 -231h-358l240 1356h358zM668 631l20 114q6 46 -12.5 69.5t-71.5 23.5h-102l-51 -297h92q58 0 87 19.5t38 70.5z" />
    <glyph glyph-name="germandbls" unicode="&#xdf;" horiz-adv-x="944" 
d="M627 1423q187 0 271.5 -83t59.5 -248l-14 -88q-30 -190 -176 -263q181 -59 145 -276l-26 -162q-14 -86 -50.5 -146.5t-93 -94t-123 -48t-151.5 -14.5h-115l52 291h65q75 0 88 82l23 127q5 40 -8.5 57.5t-49.5 17.5h-73l47 265h16q64 0 74 73l22 140q8 51 -1 71.5
t-38 20.5q-34 0 -50.5 -21.5t-26.5 -79.5l-185 -1044h-338l185 1049q36 199 143 286.5t328 87.5z" />
    <glyph glyph-name="agrave" unicode="&#xe0;" horiz-adv-x="806" 
d="M569 1395l115 -310h-291l-151 310h327zM502 1001q100 0 167 -28t96 -76.5t37 -115t-9 -144.5l-113 -637h-307l14 74q-86 -99 -227 -99h-6q-98 0 -149.5 65.5t-31.5 188.5l15 86q19 123 100 183.5t236 60.5h127l16 98q8 62 -23 62q-33 0 -43 -53l-8 -58h-305l8 47
q21 163 121.5 254.5t284.5 91.5zM324 205h2q25 0 46 21.5t29 64.5l15 82h-27q-41 0 -59.5 -10t-24.5 -35l-14 -72q-11 -51 33 -51z" />
    <glyph glyph-name="aacute" unicode="&#xe1;" horiz-adv-x="806" 
d="M578 1395h327l-262 -310h-291zM502 1001q100 0 167 -28t96 -76.5t37 -115t-9 -144.5l-113 -637h-307l14 74q-86 -99 -227 -99h-6q-98 0 -149.5 65.5t-31.5 188.5l15 86q19 123 100 183.5t236 60.5h127l16 98q8 62 -23 62q-33 0 -43 -53l-8 -58h-305l8 47
q21 163 121.5 254.5t284.5 91.5zM324 205h2q25 0 46 21.5t29 64.5l15 82h-27q-41 0 -59.5 -10t-24.5 -35l-14 -72q-11 -51 33 -51z" />
    <glyph glyph-name="acircumflex" unicode="&#xe2;" horiz-adv-x="806" 
d="M551 1094l-35 98l-72 -98h-266l225 311h297l115 -311h-264zM502 1001q100 0 167 -28t96 -76.5t37 -115t-9 -144.5l-113 -637h-307l14 74q-86 -99 -227 -99h-6q-98 0 -149.5 65.5t-31.5 188.5l15 86q19 123 100 183.5t236 60.5h127l16 98q8 62 -23 62q-33 0 -43 -53
l-8 -58h-305l8 47q21 163 121.5 254.5t284.5 91.5zM324 205h2q25 0 46 21.5t29 64.5l15 82h-27q-41 0 -59.5 -10t-24.5 -35l-14 -72q-11 -51 33 -51z" />
    <glyph glyph-name="atilde" unicode="&#xe3;" horiz-adv-x="806" 
d="M621 1116q-45 0 -106.5 32t-100.5 32q-38 0 -64.5 -10t-75.5 -40l39 224q77 51 152 51q45 0 104 -31t103 -31q65 0 145 52l-39 -226q-73 -53 -157 -53zM502 1001q100 0 167 -28t96 -76.5t37 -115t-9 -144.5l-113 -637h-307l14 74q-86 -99 -227 -99h-6q-98 0 -149.5 65.5
t-31.5 188.5l15 86q19 123 100 183.5t236 60.5h127l16 98q8 62 -23 62q-33 0 -43 -53l-8 -58h-305l8 47q21 163 121.5 254.5t284.5 91.5zM324 205h2q25 0 46 21.5t29 64.5l15 82h-27q-41 0 -59.5 -10t-24.5 -35l-14 -72q-11 -51 33 -51z" />
    <glyph glyph-name="adieresis" unicode="&#xe4;" horiz-adv-x="806" 
d="M354 1102q-129 0 -129 119q0 92 51 148t136 56q129 0 129 -116q0 -94 -51 -150.5t-136 -56.5zM735 1425q127 0 127 -116q0 -93 -49.5 -150t-132.5 -57q-131 0 -131 119q0 92 50.5 148t135.5 56zM502 1001q100 0 167 -28t96 -76.5t37 -115t-9 -144.5l-113 -637h-307l14 74
q-86 -99 -227 -99h-6q-98 0 -149.5 65.5t-31.5 188.5l15 86q19 123 100 183.5t236 60.5h127l16 98q8 62 -23 62q-33 0 -43 -53l-8 -58h-305l8 47q21 163 121.5 254.5t284.5 91.5zM324 205h2q25 0 46 21.5t29 64.5l15 82h-27q-41 0 -59.5 -10t-24.5 -35l-14 -72
q-11 -51 33 -51z" />
    <glyph glyph-name="aring" unicode="&#xe5;" horiz-adv-x="806" 
d="M510 1049q-205 0 -205 165q0 106 71.5 169t203.5 63q202 0 202 -160q0 -108 -73 -172.5t-199 -64.5zM555 1303q-24 0 -40.5 -23.5t-16.5 -54.5q0 -33 37 -33q24 0 39.5 23t15.5 55q0 33 -35 33zM502 1001q100 0 167 -28t96 -76.5t37 -115t-9 -144.5l-113 -637h-307l14 74
q-86 -99 -227 -99h-6q-98 0 -149.5 65.5t-31.5 188.5l15 86q19 123 100 183.5t236 60.5h127l16 98q8 62 -23 62q-33 0 -43 -53l-8 -58h-305l8 47q21 163 121.5 254.5t284.5 91.5zM324 205h2q25 0 46 21.5t29 64.5l15 82h-27q-41 0 -59.5 -10t-24.5 -35l-14 -72
q-11 -51 33 -51z" />
    <glyph glyph-name="ae" unicode="&#xe6;" horiz-adv-x="1226" 
d="M911 1001q379 0 308 -395l-33 -190h-420l-14 -80q-13 -82 39 -82q49 0 63 53l12 68h312l-11 -64q-33 -179 -134.5 -257.5t-291.5 -78.5q-191 0 -272 121q-99 -121 -283 -121h-6q-116 0 -171 66.5t-34 200.5l15 86q15 117 89.5 174t223.5 57h146l16 98q12 62 -23 62
q-37 0 -45 -47l-12 -60h-303l8 54q14 77 40.5 135t73 105t120 71t172.5 24q133 0 202 -57q97 57 213 57zM807 651l-12 -73h88l12 71q7 37 -1.5 56.5t-29.5 19.5q-44 0 -57 -74zM322 205h6q62 0 78 110h2l10 58h-51q-53 0 -62 -43l-14 -70q-5 -24 3 -39.5t28 -15.5z" />
    <glyph glyph-name="ccedilla" unicode="&#xe7;" horiz-adv-x="804" 
d="M496 1001q83 0 144.5 -19.5t96.5 -54t55.5 -81.5t20 -102.5t-9.5 -116.5l-17 -92h-327l18 104q17 84 -24 84q-21 0 -34 -22t-22 -72l-51 -283q-8 -54 -2.5 -73t27.5 -19q39 0 55 86l16 94h326l-16 -96q-58 -314 -340 -356l-31 -60q81 -6 121.5 -41.5t40.5 -109.5
q0 -215 -299 -215h-168l30 180h99q76 0 76 31q0 24 -45 24h-91l21 119l35 78q-252 65 -193 395l43 231q35 203 141.5 295t303.5 92z" />
    <glyph glyph-name="egrave" unicode="&#xe8;" horiz-adv-x="819" 
d="M569 1395l115 -310h-291l-151 310h327zM504 1001q376 0 307 -397l-33 -188h-420l-14 -78q-13 -84 35 -84q42 0 53 51l14 70h324l-10 -64q-58 -336 -436 -336q-187 0 -270 98.5t-48 295.5l41 239q37 204 152.5 298.5t304.5 94.5zM401 659l-16 -90h88l14 90q10 66 -32 66
q-20 0 -35 -17.5t-19 -48.5z" />
    <glyph glyph-name="eacute" unicode="&#xe9;" horiz-adv-x="819" 
d="M580 1395h327l-262 -310h-291zM504 1001q376 0 307 -397l-33 -188h-420l-14 -78q-13 -84 35 -84q42 0 53 51l14 70h324l-10 -64q-58 -336 -436 -336q-187 0 -270 98.5t-48 295.5l41 239q37 204 152.5 298.5t304.5 94.5zM401 659l-16 -90h88l14 90q10 66 -32 66
q-20 0 -35 -17.5t-19 -48.5z" />
    <glyph glyph-name="ecircumflex" unicode="&#xea;" horiz-adv-x="819" 
d="M553 1094l-35 98l-72 -98h-266l226 311h296l115 -311h-264zM504 1001q376 0 307 -397l-33 -188h-420l-14 -78q-13 -84 35 -84q42 0 53 51l14 70h324l-10 -64q-58 -336 -436 -336q-187 0 -270 98.5t-48 295.5l41 239q37 204 152.5 298.5t304.5 94.5zM401 659l-16 -90h88
l14 90q10 66 -32 66q-20 0 -35 -17.5t-19 -48.5z" />
    <glyph glyph-name="edieresis" unicode="&#xeb;" horiz-adv-x="819" 
d="M354 1102q-129 0 -129 119q0 92 51 148t136 56q129 0 129 -116q0 -94 -51 -150.5t-136 -56.5zM680 1102q-131 0 -131 119q0 92 50.5 148t135.5 56q127 0 127 -116q0 -93 -49.5 -150t-132.5 -57zM504 1001q376 0 307 -397l-33 -188h-420l-14 -78q-13 -84 35 -84
q42 0 53 51l14 70h324l-10 -64q-58 -336 -436 -336q-187 0 -270 98.5t-48 295.5l41 239q37 204 152.5 298.5t304.5 94.5zM401 659l-16 -90h88l14 90q10 66 -32 66q-20 0 -35 -17.5t-19 -48.5z" />
    <glyph glyph-name="igrave" unicode="&#xec;" horiz-adv-x="452" 
d="M504 1085h-291l-152 310h328zM311 0h-338l172 977h338z" />
    <glyph glyph-name="iacute" unicode="&#xed;" horiz-adv-x="452" 
d="M463 1085h-291l225 310h328zM311 0h-338l172 977h338z" />
    <glyph glyph-name="icircumflex" unicode="&#xee;" horiz-adv-x="452" 
d="M371 1094l-35 98l-72 -98h-266l225 311h297l115 -311h-264zM311 0h-338l172 977h338z" />
    <glyph glyph-name="idieresis" unicode="&#xef;" horiz-adv-x="452" 
d="M174 1102q-129 0 -129 119q0 92 50.5 148t135.5 56q129 0 129 -116q0 -94 -50.5 -150.5t-135.5 -56.5zM500 1102q-131 0 -131 119q0 92 50.5 148t135.5 56q127 0 127 -116q0 -93 -49.5 -150t-132.5 -57zM311 0h-338l172 977h338z" />
    <glyph glyph-name="eth" unicode="&#xf0;" horiz-adv-x="870" 
d="M969 1262l32 -121l-88 -41q0 -78 -14 -158l-88 -489q-41 -237 -169.5 -357.5t-334.5 -120.5q-104 0 -172 28t-98.5 79t-38.5 121.5t8 154.5l33 181q27 171 118 258.5t222 87.5q118 0 166 -76l24 133l-108 -49l-33 123l123 55q-26 23 -78 23h-233l53 305h287
q255 0 313 -172zM430 336l35 190q16 95 -27 95q-48 0 -63 -95l-35 -190q-15 -92 31 -92q45 0 59 92z" />
    <glyph glyph-name="ntilde" unicode="&#xf1;" horiz-adv-x="884" 
d="M659 1116q-45 0 -106 32t-100 32q-38 0 -64.5 -10t-75.5 -40l39 224q77 51 152 51q45 0 104 -31t103 -31q65 0 145 52l-39 -226q-73 -53 -158 -53zM684 1001q117 0 167 -75.5t23 -227.5l-122 -698h-338l112 639q15 82 -32 82q-25 0 -44 -24t-26 -70l-111 -627h-338
l172 977h295l-18 -111q95 135 260 135z" />
    <glyph glyph-name="ograve" unicode="&#xf2;" horiz-adv-x="847" 
d="M700 1085h-290l-152 310h328zM334 -25q-196 0 -278 102.5t-48 297.5l37 219q37 209 147.5 307.5t317.5 99.5q401 3 330 -407l-39 -219q-34 -205 -145.5 -302.5t-321.5 -97.5zM383 254q53 0 70 96l47 275q17 98 -35 98q-55 0 -70 -98l-47 -275q-16 -96 35 -96z" />
    <glyph glyph-name="oacute" unicode="&#xf3;" horiz-adv-x="847" 
d="M659 1085h-290l225 310h328zM334 -25q-196 0 -278 102.5t-48 297.5l37 219q37 209 147.5 307.5t317.5 99.5q401 3 330 -407l-39 -219q-34 -205 -145.5 -302.5t-321.5 -97.5zM383 254q53 0 70 96l47 275q17 98 -35 98q-55 0 -70 -98l-47 -275q-16 -96 35 -96z" />
    <glyph glyph-name="ocircumflex" unicode="&#xf4;" horiz-adv-x="847" 
d="M569 1094l-34 98l-72 -98h-266l225 311h297l115 -311h-265zM510 1001q401 3 330 -407l-39 -219q-34 -205 -145.5 -302.5t-321.5 -97.5q-196 0 -278 102.5t-48 297.5l37 219q37 209 147.5 307.5t317.5 99.5zM453 350l47 275q17 98 -35 98q-55 0 -70 -98l-47 -275
q-16 -96 35 -96q53 0 70 96z" />
    <glyph glyph-name="otilde" unicode="&#xf5;" horiz-adv-x="847" 
d="M637 1116q-45 0 -106.5 32t-100.5 32q-38 0 -63.5 -10t-75.5 -40l39 224q77 51 151 51q45 0 104 -31t103 -31q66 0 146 52l-39 -226q-73 -53 -158 -53zM334 -25q-196 0 -278 102.5t-48 297.5l37 219q37 209 147.5 307.5t317.5 99.5q401 3 330 -407l-39 -219
q-34 -205 -145.5 -302.5t-321.5 -97.5zM383 254q53 0 70 96l47 275q17 98 -35 98q-55 0 -70 -98l-47 -275q-16 -96 35 -96z" />
    <glyph glyph-name="odieresis" unicode="&#xf6;" horiz-adv-x="847" 
d="M371 1102q-129 0 -129 119q0 92 50.5 148t135.5 56q129 0 129 -116q0 -94 -50.5 -150.5t-135.5 -56.5zM696 1102q-131 0 -131 119q0 92 51 148t136 56q127 0 127 -116q0 -93 -50 -150t-133 -57zM334 -25q-196 0 -278 102.5t-48 297.5l37 219q37 209 147.5 307.5
t317.5 99.5q401 3 330 -407l-39 -219q-34 -205 -145.5 -302.5t-321.5 -97.5zM383 254q53 0 70 96l47 275q17 98 -35 98q-55 0 -70 -98l-47 -275q-16 -96 35 -96z" />
    <glyph glyph-name="divide" unicode="&#xf7;" horiz-adv-x="710" 
d="M440 823q-127 0 -127 117q0 80 49 129t132 49q124 0 124 -112q0 -82 -48.5 -132.5t-129.5 -50.5zM664 532h-601l48 265h600zM309 215q-127 0 -127 115q0 82 48 131t132 49q125 0 125 -113q0 -83 -48 -132.5t-130 -49.5z" />
    <glyph glyph-name="oslash" unicode="&#xf8;" horiz-adv-x="847" 
d="M778 1034l107 -90l-68 -82q51 -98 23 -268l-39 -219q-34 -205 -145.5 -302.5t-321.5 -97.5q-124 0 -201 41l-70 -86l-108 88l78 95q-52 98 -25 262l37 219q37 209 147.5 307.5t317.5 99.5q130 0 209 -40zM395 625l-14 -80l121 147q-6 31 -37 31q-55 0 -70 -98zM453 350
l12 76l-117 -145q7 -27 35 -27q53 0 70 96z" />
    <glyph glyph-name="ugrave" unicode="&#xf9;" horiz-adv-x="878" 
d="M596 1395l115 -310h-291l-152 310h328zM451 334l114 643h338l-172 -977h-299l14 86q-90 -111 -241 -111q-249 0 -195 304l125 698h338l-115 -639q-15 -82 29 -82q45 0 64 78z" />
    <glyph glyph-name="uacute" unicode="&#xfa;" horiz-adv-x="878" 
d="M604 1395h328l-262 -310h-291zM451 334l114 643h338l-172 -977h-299l14 86q-90 -111 -241 -111q-249 0 -195 304l125 698h338l-115 -639q-15 -82 29 -82q45 0 64 78z" />
    <glyph glyph-name="ucircumflex" unicode="&#xfb;" horiz-adv-x="878" 
d="M578 1094l-35 98l-72 -98h-266l225 311h297l115 -311h-264zM451 334l114 643h338l-172 -977h-299l14 86q-90 -111 -241 -111q-249 0 -195 304l125 698h338l-115 -639q-15 -82 29 -82q45 0 64 78z" />
    <glyph glyph-name="udieresis" unicode="&#xfc;" horiz-adv-x="878" 
d="M381 1102q-129 0 -129 119q0 92 50.5 148t135.5 56q129 0 129 -116q0 -94 -50.5 -150.5t-135.5 -56.5zM707 1102q-132 0 -132 119q0 92 51 148t136 56q127 0 127 -116q0 -93 -49.5 -150t-132.5 -57zM451 334l114 643h338l-172 -977h-299l14 86q-90 -111 -241 -111
q-249 0 -195 304l125 698h338l-115 -639q-15 -82 29 -82q45 0 64 78z" />
    <glyph glyph-name="yacute" unicode="&#xfd;" horiz-adv-x="897" 
d="M618 1395h328l-262 -310h-291zM451 512l170 465h364l-620 -1335h-336l174 335l-121 1000h364z" />
    <glyph glyph-name="thorn" unicode="&#xfe;" horiz-adv-x="839" 
d="M621 1001q140 0 193.5 -97.5t23.5 -276.5l-50 -285q-31 -174 -120.5 -270.5t-227.5 -96.5q-96 0 -147 45l-68 -378h-334l310 1757h311l-80 -467q72 69 189 69zM444 348l50 279q16 94 -31 94t-64 -94l-49 -279q-14 -92 31 -92q49 0 63 92z" />
    <glyph glyph-name="ydieresis" unicode="&#xff;" horiz-adv-x="897" 
d="M393 1102q-129 0 -129 119q0 92 51 148t136 56q129 0 129 -116q0 -94 -51 -150.5t-136 -56.5zM719 1102q-131 0 -131 119q0 92 50.5 148t135.5 56q127 0 127 -116q0 -93 -49.5 -150t-132.5 -57zM451 512l170 465h364l-620 -1335h-336l174 335l-121 1000h364z" />
    <glyph glyph-name="Amacron" unicode="&#x100;" horiz-adv-x="1083" 
d="M498 1745h532l-41 -232h-530zM-88 0l602 1358h363l122 -1358h-346l-8 178h-315l-70 -178h-348zM614 897l-172 -434h191z" />
    <glyph glyph-name="amacron" unicode="&#x101;" horiz-adv-x="806" 
d="M297 1364h532l-41 -231h-530zM502 1001q100 0 167 -28t96 -76.5t37 -115t-9 -144.5l-113 -637h-307l14 74q-86 -99 -227 -99h-6q-98 0 -149.5 65.5t-31.5 188.5l15 86q19 123 100 183.5t236 60.5h127l16 98q8 62 -23 62q-33 0 -43 -53l-8 -58h-305l8 47
q21 163 121.5 254.5t284.5 91.5zM324 205h2q25 0 46 21.5t29 64.5l15 82h-27q-41 0 -59.5 -10t-24.5 -35l-14 -72q-11 -51 33 -51z" />
    <glyph glyph-name="Abreve" unicode="&#x102;" horiz-adv-x="1083" 
d="M713 1446q-132 0 -192 76.5t-29 251.5h227q-14 -72 -8.5 -100.5t37.5 -28.5t45 26t26 103h228q-57 -328 -334 -328zM-88 0l602 1358h363l122 -1358h-346l-8 178h-315l-70 -178h-348zM614 897l-172 -434h191z" />
    <glyph glyph-name="abreve" unicode="&#x103;" horiz-adv-x="806" 
d="M512 1065q-278 0 -221 328h227q-14 -71 -8.5 -100t35.5 -29q33 0 46.5 26.5t26.5 102.5h228q-16 -98 -46.5 -164.5t-76 -101t-95.5 -48.5t-116 -14zM502 1001q100 0 167 -28t96 -76.5t37 -115t-9 -144.5l-113 -637h-307l14 74q-86 -99 -227 -99h-6q-98 0 -149.5 65.5
t-31.5 188.5l15 86q19 123 100 183.5t236 60.5h127l16 98q8 62 -23 62q-33 0 -43 -53l-8 -58h-305l8 47q21 163 121.5 254.5t284.5 91.5zM324 205h2q25 0 46 21.5t29 64.5l15 82h-27q-41 0 -59.5 -10t-24.5 -35l-14 -72q-11 -51 33 -51z" />
    <glyph glyph-name="Aogonek" unicode="&#x104;" horiz-adv-x="1083" 
d="M838 -166q0 -47 90 -27l-35 -202q-149 -20 -225 17.5t-76 127.5q0 143 145 250h-84l-8 178h-315l-70 -178h-348l602 1358h363l122 -1358q-75 -43 -118 -87t-43 -79zM614 897l-172 -434h191z" />
    <glyph glyph-name="aogonek" unicode="&#x105;" horiz-adv-x="806" 
d="M502 1001q100 0 167 -28t96 -76.5t37 -115t-9 -144.5l-113 -637q-71 -45 -108 -88.5t-37 -77.5q0 -33 47 -33h47l-35 -204h-64q-122 0 -181.5 33t-59.5 114q0 149 137 256h-53l14 74q-86 -99 -227 -99h-6q-98 0 -149.5 65.5t-31.5 188.5l15 86q19 123 100 183.5t236 60.5
h127l16 98q8 62 -23 62q-33 0 -43 -53l-8 -58h-305l8 47q21 163 121.5 254.5t284.5 91.5zM324 205h2q25 0 46 21.5t29 64.5l15 82h-27q-41 0 -59.5 -10t-24.5 -35l-14 -72q-11 -51 33 -51z" />
    <glyph glyph-name="Cacute" unicode="&#x106;" horiz-adv-x="1114" 
d="M868 1464h-290l225 310h325zM471 -25q-251 0 -356 138t-58 405l64 363q45 262 181.5 381.5t414.5 119.5q240 0 352 -121t76 -352l-19 -100h-364l20 109q11 79 -15.5 117t-100.5 38q-85 0 -127.5 -56.5t-61.5 -166.5l-59 -342q-11 -70 -8.5 -119.5t30.5 -76.5t84 -27
q83 0 121.5 37t52.5 120l19 103h358l-14 -90q-28 -237 -176 -358.5t-414 -121.5z" />
    <glyph glyph-name="cacute" unicode="&#x107;" horiz-adv-x="804" 
d="M639 1085h-291l225 310h328zM322 -25q-190 0 -269.5 104.5t-44.5 303.5l43 231q35 203 141.5 295t303.5 92q83 0 144.5 -19.5t96.5 -54t55.5 -81.5t20 -102.5t-9.5 -116.5l-17 -92h-327l18 104q17 84 -24 84q-21 0 -34 -22t-22 -72l-51 -283q-8 -54 -2.5 -73t27.5 -19
q39 0 55 86l16 94h326l-16 -96q-30 -167 -134 -265t-296 -98z" />
    <glyph glyph-name="Cdotaccent" unicode="&#x10a;" horiz-adv-x="1114" 
d="M739 1483q-131 0 -131 116q0 93 51.5 149t137.5 56q127 0 127 -114q0 -94 -51 -150.5t-134 -56.5zM471 -25q-251 0 -356 138t-58 405l64 363q45 262 181.5 381.5t414.5 119.5q240 0 352 -121t76 -352l-19 -100h-364l20 109q11 79 -15.5 117t-100.5 38q-85 0 -127.5 -56.5
t-61.5 -166.5l-59 -342q-11 -70 -8.5 -119.5t30.5 -76.5t84 -27q83 0 121.5 37t52.5 120l19 103h358l-14 -90q-28 -237 -176 -358.5t-414 -121.5z" />
    <glyph glyph-name="cdotaccent" unicode="&#x10b;" horiz-adv-x="804" 
d="M512 1102q-131 0 -131 119q0 93 51 148.5t137 55.5q127 0 127 -116q0 -93 -50.5 -150t-133.5 -57zM322 -25q-190 0 -269.5 104.5t-44.5 303.5l43 231q35 203 141.5 295t303.5 92q83 0 144.5 -19.5t96.5 -54t55.5 -81.5t20 -102.5t-9.5 -116.5l-17 -92h-327l18 104
q17 84 -24 84q-21 0 -34 -22t-22 -72l-51 -283q-8 -54 -2.5 -73t27.5 -19q39 0 55 86l16 94h326l-16 -96q-30 -167 -134 -265t-296 -98z" />
    <glyph glyph-name="Ccaron" unicode="&#x10c;" horiz-adv-x="1114" 
d="M1106 1759l-225 -311h-297l-115 311h264l37 -98l72 98h264zM717 1382q240 0 352 -121t76 -352l-19 -100h-364l20 109q11 79 -15.5 117t-100.5 38q-85 0 -127.5 -56.5t-61.5 -166.5l-59 -342q-11 -70 -8.5 -119.5t30.5 -76.5t84 -27q83 0 121.5 37t52.5 120l19 103h358
l-14 -90q-28 -237 -176 -358.5t-414 -121.5q-251 0 -356 138t-58 405l64 363q45 262 181.5 381.5t414.5 119.5z" />
    <glyph glyph-name="ccaron" unicode="&#x10d;" horiz-adv-x="804" 
d="M879 1395l-226 -310h-297l-112 310h264l35 -99l71 99h265zM496 1001q83 0 144.5 -19.5t96.5 -54t55.5 -81.5t20 -102.5t-9.5 -116.5l-17 -92h-327l18 104q17 84 -24 84q-21 0 -34 -22t-22 -72l-51 -283q-8 -54 -2.5 -73t27.5 -19q39 0 55 86l16 94h326l-16 -96
q-30 -167 -134 -265t-296 -98q-190 0 -269.5 104.5t-44.5 303.5l43 231q35 203 141.5 295t303.5 92z" />
    <glyph glyph-name="Dcaron" unicode="&#x10e;" horiz-adv-x="1163" 
d="M1124 1759l-225 -311h-297l-115 311h265l36 -98l72 98h264zM236 1356h493q55 0 102.5 -5t95 -16t85 -31t71 -49t55.5 -70.5t35 -94t12.5 -121.5t-14.5 -152l-53 -303q-25 -145 -69.5 -241t-120 -158t-181 -88.5t-258.5 -26.5h-493zM756 522l55 318q18 98 -10.5 146
t-116.5 48h-149l-123 -712h137q85 0 135.5 44t71.5 156z" />
    <glyph glyph-name="dcaron" unicode="&#x10f;" horiz-adv-x="849" 
d="M965 1092l100 342h303l-180 -342h-223zM547 950l78 449h336l-248 -1399h-279l12 76q-87 -103 -227 -103q-139 0 -194.5 97.5t-22.5 269.5l51 289q34 198 115.5 285t218.5 87q106 0 160 -51zM377 254q45 0 63 92l49 283q17 94 -30 94t-64 -96l-49 -279q-17 -94 31 -94z
" />
    <glyph glyph-name="Dcroat" unicode="&#x110;" horiz-adv-x="1216" 
d="M291 1356h491q56 0 103.5 -5t95 -16t85.5 -31t72 -49t55.5 -70.5t34.5 -94t12 -121.5t-15 -152l-54 -303q-34 -193 -104 -303t-194.5 -160.5t-327.5 -50.5h-494l96 545h-88l56 284h84zM809 522l55 318q18 98 -10.5 146t-116.5 48h-147l-35 -205h152l-56 -284h-145
l-39 -223h137q85 0 134.5 43.5t70.5 156.5z" />
    <glyph glyph-name="dcroat" unicode="&#x111;" horiz-adv-x="905" 
d="M946 1323h90l-39 -201h-86l-198 -1122h-279l12 76q-87 -103 -227 -103q-139 0 -194.5 97.5t-22.5 269.5l51 289q34 198 115.5 285t218.5 87q106 0 160 -51l28 172h-239l41 201h235l13 76h336zM377 254q45 0 63 92l49 283q17 94 -30 94t-64 -96l-49 -279q-17 -94 31 -94z
" />
    <glyph glyph-name="Emacron" unicode="&#x112;" horiz-adv-x="948" 
d="M424 1745h532l-41 -232h-530zM1047 1356l-58 -322h-452l-37 -209h360l-51 -295h-363l-36 -208h454l-57 -322h-811l240 1356h811z" />
    <glyph glyph-name="emacron" unicode="&#x113;" horiz-adv-x="819" 
d="M297 1364h532l-41 -231h-530zM504 1001q376 0 307 -397l-33 -188h-420l-14 -78q-13 -84 35 -84q42 0 53 51l14 70h324l-10 -64q-58 -336 -436 -336q-187 0 -270 98.5t-48 295.5l41 239q37 204 152.5 298.5t304.5 94.5zM401 659l-16 -90h88l14 90q10 66 -32 66
q-20 0 -35 -17.5t-19 -48.5z" />
    <glyph glyph-name="Edotaccent" unicode="&#x116;" horiz-adv-x="948" 
d="M647 1483q-131 0 -131 116q0 93 51.5 149t137.5 56q126 0 126 -114q0 -94 -50.5 -150.5t-133.5 -56.5zM1047 1356l-58 -322h-452l-37 -209h360l-51 -295h-363l-36 -208h454l-57 -322h-811l240 1356h811z" />
    <glyph glyph-name="edotaccent" unicode="&#x117;" horiz-adv-x="819" 
d="M518 1102q-131 0 -131 119q0 93 51 148.5t137 55.5q127 0 127 -116q0 -93 -50.5 -150t-133.5 -57zM504 1001q376 0 307 -397l-33 -188h-420l-14 -78q-13 -84 35 -84q42 0 53 51l14 70h324l-10 -64q-58 -336 -436 -336q-187 0 -270 98.5t-48 295.5l41 239
q37 204 152.5 298.5t304.5 94.5zM401 659l-16 -90h88l14 90q10 66 -32 66q-20 0 -35 -17.5t-19 -48.5z" />
    <glyph glyph-name="Eogonek" unicode="&#x118;" horiz-adv-x="948" 
d="M1047 1356l-58 -322h-452l-37 -209h360l-51 -295h-363l-36 -208h454l-57 -322q-75 -44 -118.5 -87.5t-43.5 -78.5q0 -47 90 -27l-35 -202q-149 -20 -225 17.5t-76 127.5q0 143 146 250h-549l240 1356h811z" />
    <glyph glyph-name="eogonek" unicode="&#x119;" horiz-adv-x="819" 
d="M504 1001q376 0 307 -397l-33 -188h-420l-14 -78q-13 -84 35 -84q42 0 53 51l14 70h324l-10 -64q-45 -265 -291 -321q-65 -42 -99 -83.5t-34 -74.5t47 -33h47l-35 -205h-63q-122 0 -182 33.5t-60 114.5q0 139 123 244q-128 27 -182 122.5t-25 260.5l41 239
q37 204 152.5 298.5t304.5 94.5zM401 659l-16 -90h88l14 90q10 66 -32 66q-20 0 -35 -17.5t-19 -48.5z" />
    <glyph glyph-name="Ecaron" unicode="&#x11a;" horiz-adv-x="948" 
d="M1012 1759l-226 -311h-297l-114 311h264l37 -98l72 98h264zM1047 1356l-58 -322h-452l-37 -209h360l-51 -295h-363l-36 -208h454l-57 -322h-811l240 1356h811z" />
    <glyph glyph-name="ecaron" unicode="&#x11b;" horiz-adv-x="819" 
d="M887 1395l-225 -310h-297l-113 310h264l35 -99l72 99h264zM504 1001q376 0 307 -397l-33 -188h-420l-14 -78q-13 -84 35 -84q42 0 53 51l14 70h324l-10 -64q-58 -336 -436 -336q-187 0 -270 98.5t-48 295.5l41 239q37 204 152.5 298.5t304.5 94.5zM401 659l-16 -90h88
l14 90q10 66 -32 66q-20 0 -35 -17.5t-19 -48.5z" />
    <glyph glyph-name="Gbreve" unicode="&#x11e;" horiz-adv-x="1161" 
d="M752 1446q-279 0 -222 328h228q-9 -50 -10 -76.5t7.5 -39.5t30.5 -13q32 0 45.5 26.5t26.5 102.5h227q-57 -328 -333 -328zM731 1382q134 0 225.5 -31.5t139 -91t66 -133t14.5 -170.5l-15 -94h-377l17 101q2 54 -23.5 82t-101.5 28q-90 0 -135 -52.5t-64 -168.5l-59 -348
q-20 -112 2.5 -166.5t107.5 -54.5q135 0 181 127l12 67h-217l47 273h586l-133 -750h-314l-2 86q-111 -111 -319 -111q-194 0 -276.5 139t-37.5 402l58 324q22 126 65.5 221.5t115.5 169.5t182 112.5t255 38.5z" />
    <glyph glyph-name="gbreve" unicode="&#x11f;" horiz-adv-x="851" 
d="M528 1065q-278 0 -221 328h228q-14 -71 -9 -100t35 -29q33 0 47 26.5t27 102.5h227q-16 -98 -46.5 -164.5t-76 -101t-95.5 -48.5t-116 -14zM588 877l16 100h283l-164 -930q-41 -234 -147.5 -332t-311.5 -98q-173 0 -254.5 95t-56.5 249l6 31h324l-7 -39q-12 -64 35 -64
q51 0 64 78l24 139q-74 -71 -188 -71q-123 0 -175 98.5t-24 269.5l41 232q29 173 116 269.5t230 96.5q146 0 189 -124zM389 315q20 0 36.5 22t25.5 64l43 246q4 41 -3.5 58.5t-29.5 17.5q-47 0 -64 -96l-39 -217q-20 -95 31 -95z" />
    <glyph glyph-name="Gdotaccent" unicode="&#x120;" horiz-adv-x="1161" 
d="M758 1483q-131 0 -131 116q0 93 51 149t137 56q127 0 127 -114q0 -94 -50.5 -150.5t-133.5 -56.5zM731 1382q134 0 225.5 -31.5t139 -91t66 -133t14.5 -170.5l-15 -94h-377l17 101q2 54 -23.5 82t-101.5 28q-90 0 -135 -52.5t-64 -168.5l-59 -348q-20 -112 2.5 -166.5
t107.5 -54.5q135 0 181 127l12 67h-217l47 273h586l-133 -750h-314l-2 86q-111 -111 -319 -111q-194 0 -276.5 139t-37.5 402l58 324q22 126 65.5 221.5t115.5 169.5t182 112.5t255 38.5z" />
    <glyph glyph-name="gdotaccent" unicode="&#x121;" horiz-adv-x="851" 
d="M537 1102q-131 0 -131 119q0 93 51 148.5t137 55.5q127 0 127 -116q0 -93 -50.5 -150t-133.5 -57zM588 877l16 100h283l-164 -930q-41 -234 -147.5 -332t-311.5 -98q-173 0 -254.5 95t-56.5 249l6 31h324l-7 -39q-12 -64 35 -64q51 0 64 78l24 139q-74 -71 -188 -71
q-123 0 -175 98.5t-24 269.5l41 232q29 173 116 269.5t230 96.5q146 0 189 -124zM389 315q20 0 36.5 22t25.5 64l43 246q4 41 -3.5 58.5t-29.5 17.5q-47 0 -64 -96l-39 -217q-20 -95 31 -95z" />
    <glyph glyph-name="uni0122" unicode="&#x122;" horiz-adv-x="1161" 
d="M731 1382q134 0 225.5 -31.5t139 -91t66 -133t14.5 -170.5l-15 -94h-377l17 101q2 54 -23.5 82t-101.5 28q-90 0 -135 -52.5t-64 -168.5l-59 -348q-20 -112 2.5 -166.5t107.5 -54.5q135 0 181 127l12 67h-217l47 273h586l-133 -750h-314l-2 86q-111 -111 -319 -111
q-194 0 -276.5 139t-37.5 402l58 324q22 126 65.5 221.5t115.5 169.5t182 112.5t255 38.5zM403 -410h-249l186 332h326z" />
    <glyph glyph-name="uni0123" unicode="&#x123;" horiz-adv-x="851" 
d="M616 1419h275l-195 -329h-356zM588 877l16 100h283l-164 -930q-41 -234 -147.5 -332t-311.5 -98q-173 0 -254.5 95t-56.5 249l6 31h324l-7 -39q-12 -64 35 -64q51 0 64 78l24 139q-74 -71 -188 -71q-123 0 -175 98.5t-24 269.5l41 232q29 173 116 269.5t230 96.5
q146 0 189 -124zM389 315q20 0 36.5 22t25.5 64l43 246q4 41 -3.5 58.5t-29.5 17.5q-47 0 -64 -96l-39 -217q-20 -95 31 -95z" />
    <glyph glyph-name="Hbar" unicode="&#x126;" horiz-adv-x="1169" 
d="M1204 1229h80l-45 -252h-78l-172 -977h-358l69 393h-264l-69 -393h-357l172 977h-80l45 252h78l23 127h358l-22 -127h264l22 127h357zM494 717h264l45 260h-264z" />
    <glyph glyph-name="hbar" unicode="&#x127;" horiz-adv-x="950" 
d="M684 1004q118 0 167.5 -76t22.5 -228l-122 -700h-338l112 639q15 84 -30 84q-48 0 -68 -76l-115 -647h-338l199 1126h-57l26 158h60l20 115h338l-20 -115h184l-27 -158h-186l-35 -196q83 74 207 74z" />
    <glyph glyph-name="Imacron" unicode="&#x12a;" horiz-adv-x="522" 
d="M709 1513h-531l39 232h533zM354 0h-358l240 1356h358z" />
    <glyph glyph-name="imacron" unicode="&#x12b;" horiz-adv-x="452" 
d="M582 1133h-488l37 231h487zM311 0h-338l172 977h338z" />
    <glyph glyph-name="Iogonek" unicode="&#x12e;" horiz-adv-x="522" 
d="M594 1356l-240 -1356q-75 -43 -118 -87t-43 -79q0 -47 90 -27l-35 -202q-149 -20 -225 17.5t-76 127.5q0 143 145 250h-96l240 1356h358z" />
    <glyph glyph-name="iogonek" unicode="&#x12f;" horiz-adv-x="452" 
d="M336 1102q-131 0 -131 119q0 93 51 148.5t137 55.5q127 0 127 -116q0 -93 -50.5 -150t-133.5 -57zM57 0h-84l172 977h338l-172 -977q-71 -45 -108 -88.5t-37 -77.5q0 -33 47 -33h47l-35 -204h-63q-122 0 -182 33t-60 114q0 149 137 256z" />
    <glyph glyph-name="Idotaccent" unicode="&#x130;" horiz-adv-x="522" 
d="M438 1483q-131 0 -131 116q0 93 51.5 149t137.5 56q127 0 127 -114q0 -94 -51 -150.5t-134 -56.5zM354 0h-358l240 1356h358z" />
    <glyph glyph-name="dotlessi" unicode="&#x131;" horiz-adv-x="452" 
d="M311 0h-338l172 977h338z" />
    <glyph glyph-name="uni0136" unicode="&#x136;" horiz-adv-x="1142" 
d="M819 1356h451l-453 -543l223 -813h-387l-116 475l-127 -153l-58 -322h-356l240 1356h356l-74 -412zM397 -410h-250l187 332h325z" />
    <glyph glyph-name="uni0137" unicode="&#x137;" horiz-adv-x="903" 
d="M614 977h365l-293 -334l121 -643h-346l-45 334l-72 -82l-45 -252h-336l248 1399h336l-117 -662zM297 -410h-250l186 332h326z" />
    <glyph glyph-name="Lacute" unicode="&#x139;" horiz-adv-x="819" 
d="M524 1774h326l-260 -310h-291zM236 1356h358l-182 -1034h360l-57 -322h-719z" />
    <glyph glyph-name="lacute" unicode="&#x13a;" horiz-adv-x="436" 
d="M506 1489h-291l225 309h328zM-37 0h336l248 1399h-336z" />
    <glyph glyph-name="uni013B" unicode="&#x13b;" horiz-adv-x="819" 
d="M594 1356l-182 -1034h360l-57 -322h-719l240 1356h358zM233 -410h-249l186 332h326z" />
    <glyph glyph-name="uni013C" unicode="&#x13c;" horiz-adv-x="436" 
d="M-37 0h336l248 1399h-336zM-205 -410l187 332h325l-262 -332h-250z" />
    <glyph glyph-name="Lcaron" unicode="&#x13d;" horiz-adv-x="819" 
d="M573 879l134 512h317l-213 -512h-238zM236 1356h358l-182 -1034h360l-57 -322h-719z" />
    <glyph glyph-name="lcaron" unicode="&#x13e;" horiz-adv-x="436" 
d="M745 1092h-223l101 340h303zM-37 0h336l248 1399h-336z" />
    <glyph glyph-name="Lslash" unicode="&#x141;" horiz-adv-x="845" 
d="M494 637l-56 -315h361l-58 -322h-718l88 498l-66 -25l-53 258l172 64l98 561h359l-74 -422l166 61l53 -260z" />
    <glyph glyph-name="lslash" unicode="&#x142;" horiz-adv-x="600" 
d="M604 936l29 -240l-135 -43l-115 -653h-336l96 543l-57 -19l-31 242l135 41l105 592h334l-84 -481z" />
    <glyph glyph-name="Nacute" unicode="&#x143;" horiz-adv-x="1159" 
d="M819 1774h326l-260 -310h-291zM776 680l119 676h334l-238 -1356h-424l-129 606l-106 -606h-336l240 1356h409z" />
    <glyph glyph-name="nacute" unicode="&#x144;" horiz-adv-x="884" 
d="M616 1395h328l-262 -310h-291zM684 1001q117 0 167 -75.5t23 -227.5l-122 -698h-338l112 639q15 82 -32 82q-25 0 -44 -24t-26 -70l-111 -627h-338l172 977h295l-18 -111q95 135 260 135z" />
    <glyph glyph-name="uni0145" unicode="&#x145;" horiz-adv-x="1159" 
d="M776 680l119 676h334l-238 -1356h-424l-129 606l-106 -606h-336l240 1356h409zM401 -410h-249l186 332h326z" />
    <glyph glyph-name="uni0146" unicode="&#x146;" horiz-adv-x="884" 
d="M684 1001q117 0 167 -75.5t23 -227.5l-122 -698h-338l112 639q15 82 -32 82q-25 0 -44 -24t-26 -70l-111 -627h-338l172 977h295l-18 -111q95 135 260 135zM274 -410h-249l186 332h326z" />
    <glyph glyph-name="Ncaron" unicode="&#x147;" horiz-adv-x="1159" 
d="M1122 1759l-225 -311h-297l-115 311h265l36 -98l72 98h264zM776 680l119 676h334l-238 -1356h-424l-129 606l-106 -606h-336l240 1356h409z" />
    <glyph glyph-name="ncaron" unicode="&#x148;" horiz-adv-x="884" 
d="M924 1395l-226 -310h-297l-112 310h264l35 -99l71 99h265zM684 1001q117 0 167 -75.5t23 -227.5l-122 -698h-338l112 639q15 82 -32 82q-25 0 -44 -24t-26 -70l-111 -627h-338l172 977h295l-18 -111q95 135 260 135z" />
    <glyph glyph-name="Eng" unicode="&#x14a;" horiz-adv-x="1161" 
d="M778 690l119 666h334l-227 -1286q-15 -87 -37 -156t-61 -131.5t-91.5 -104t-129.5 -66t-175 -24.5h-201l56 318h122q48 0 80 8t56 33l-183 663l-106 -610h-336l240 1356h389z" />
    <glyph glyph-name="eng" unicode="&#x14b;" horiz-adv-x="890" 
d="M676 1001q121 0 172 -75.5t24 -227.5l-122 -690q-31 -178 -130 -262t-292 -84h-66l51 297h39q26 0 41 12.5t21 46.5l110 621q15 82 -32 82q-55 0 -70 -96l-111 -625h-338l172 977h297l-18 -107q94 131 252 131z" />
    <glyph glyph-name="Omacron" unicode="&#x14c;" horiz-adv-x="1173" 
d="M1034 1513h-530l39 232h532zM496 -25q-271 -1 -378 135t-61 408l56 322q93 539 630 542q274 1 380 -136t61 -406l-56 -322q-93 -543 -632 -543zM555 297q90 0 135 57t66 166l57 318q22 112 -6.5 167.5t-118.5 55.5q-89 0 -135.5 -53.5t-67.5 -169.5l-57 -318
q-22 -113 7.5 -168t119.5 -55z" />
    <glyph glyph-name="omacron" unicode="&#x14d;" horiz-adv-x="847" 
d="M805 1133h-531l39 231h533zM334 -25q-196 0 -278 102.5t-48 297.5l37 219q37 209 147.5 307.5t317.5 99.5q401 3 330 -407l-39 -219q-34 -205 -145.5 -302.5t-321.5 -97.5zM383 254q53 0 70 96l47 275q17 98 -35 98q-55 0 -70 -98l-47 -275q-16 -96 35 -96z" />
    <glyph glyph-name="Ohungarumlaut" unicode="&#x150;" horiz-adv-x="1173" 
d="M715 1464h-273l185 312h307zM1034 1464h-270l231 312h305zM496 -25q-271 -1 -378 135t-61 408l56 322q93 539 630 542q274 1 380 -136t61 -406l-56 -322q-93 -543 -632 -543zM555 297q90 0 135 57t66 166l57 318q22 112 -6.5 167.5t-118.5 55.5q-89 0 -135.5 -53.5
t-67.5 -169.5l-57 -318q-22 -113 7.5 -168t119.5 -55z" />
    <glyph glyph-name="ohungarumlaut" unicode="&#x151;" horiz-adv-x="847" 
d="M483 1085h-270l184 310h308zM805 1085h-270l231 310h305zM334 -25q-196 0 -278 102.5t-48 297.5l37 219q37 209 147.5 307.5t317.5 99.5q401 3 330 -407l-39 -219q-34 -205 -145.5 -302.5t-321.5 -97.5zM383 254q53 0 70 96l47 275q17 98 -35 98q-55 0 -70 -98l-47 -275
q-16 -96 35 -96z" />
    <glyph glyph-name="OE" unicode="&#x152;" horiz-adv-x="1595" 
d="M1694 1356l-58 -322h-450l-37 -211h356l-51 -293h-358l-37 -208h450l-55 -322h-940q-281 0 -390 139.5t-61 419.5l50 283q89 514 645 514h936zM575 322h127l125 712h-127q-41 0 -70.5 -6.5t-60 -25.5t-51.5 -59.5t-33 -102.5l-49 -279q-25 -126 2.5 -182.5t136.5 -56.5z
" />
    <glyph glyph-name="oe" unicode="&#x153;" horiz-adv-x="1269" 
d="M954 1001q377 0 308 -397l-33 -188h-418l-14 -78q-16 -84 32 -84q42 0 56 51l14 70h324l-13 -64q-55 -336 -436 -336q-127 0 -203 43q-98 -43 -237 -43q-196 0 -278 102.5t-48 297.5l37 219q37 209 147.5 307.5t317.5 99.5q140 0 217 -45q91 45 227 45zM854 659l-16 -90
h88l14 90q5 31 -4 48.5t-29 17.5q-19 0 -34 -17.5t-19 -48.5zM383 254q53 0 70 96l47 275q17 98 -35 98q-55 0 -70 -98l-47 -275q-16 -96 35 -96z" />
    <glyph glyph-name="Racute" unicode="&#x154;" horiz-adv-x="1056" 
d="M768 1774h326l-260 -310h-291zM236 1356h509q56 0 103.5 -6.5t94 -23t78 -44.5t56.5 -70t29 -99.5t-4 -133.5l-25 -150q-36 -239 -254 -327l140 -502h-412l-92 457h-25l-80 -457h-358zM688 842l21 119q6 46 -11 63.5t-63 17.5h-96l-52 -284h93q52 0 77 18t31 66z" />
    <glyph glyph-name="racute" unicode="&#x155;" horiz-adv-x="626" 
d="M498 1395h327l-262 -310h-291zM440 977l-20 -115q91 137 260 137l-53 -303q-83 0 -124 -11.5t-61.5 -39.5t-29.5 -88l-99 -557h-338l172 977h293z" />
    <glyph glyph-name="uni0156" unicode="&#x156;" horiz-adv-x="1056" 
d="M236 1356h509q56 0 103.5 -6.5t94 -23t78 -44.5t56.5 -70t29 -99.5t-4 -133.5l-25 -150q-36 -239 -254 -327l140 -502h-412l-92 457h-25l-80 -457h-358zM688 842l21 119q6 46 -11 63.5t-63 17.5h-96l-52 -284h93q52 0 77 18t31 66zM350 -410h-250l187 332h325z" />
    <glyph glyph-name="uni0157" unicode="&#x157;" horiz-adv-x="626" 
d="M440 977l-20 -115q91 137 260 137l-53 -303q-83 0 -124 -11.5t-61.5 -39.5t-29.5 -88l-99 -557h-338l172 977h293zM51 -410h-250l187 332h325z" />
    <glyph glyph-name="Rcaron" unicode="&#x158;" horiz-adv-x="1056" 
d="M1071 1759l-225 -311h-297l-115 311h264l37 -98l72 98h264zM236 1356h509q56 0 103.5 -6.5t94 -23t78 -44.5t56.5 -70t29 -99.5t-4 -133.5l-25 -150q-36 -239 -254 -327l140 -502h-412l-92 457h-25l-80 -457h-358zM688 842l21 119q6 46 -11 63.5t-63 17.5h-96l-52 -284
h93q52 0 77 18t31 66z" />
    <glyph glyph-name="rcaron" unicode="&#x159;" horiz-adv-x="626" 
d="M805 1395l-225 -310h-297l-113 310h264l35 -99l72 99h264zM440 977l-20 -115q91 137 260 137l-53 -303q-83 0 -124 -11.5t-61.5 -39.5t-29.5 -88l-99 -557h-338l172 977h293z" />
    <glyph glyph-name="Sacute" unicode="&#x15a;" horiz-adv-x="1003" 
d="M803 1464h-291l225 310h326zM410 -25q-87 0 -157 15.5t-116.5 43t-79 66t-45.5 84t-16 96.5t10 105l14 82h334l-14 -88q-3 -103 123 -103q64 0 91 18t34 52l12 64q6 33 -6.5 54.5t-54.5 41.5l-138 53q-29 9 -53 17.5t-50 19.5t-46.5 23.5t-41.5 28t-36.5 33.5t-29.5 40
t-22.5 48.5t-13.5 57t-4.5 67t5.5 77.5l6 47q24 173 153 268.5t361 95.5q81 0 146 -13t109 -34t76.5 -52.5t51 -65t28.5 -76t12.5 -79.5t0.5 -81l-11 -74h-354l14 80q2 47 -23 70.5t-87 23.5q-57 0 -80.5 -14t-28.5 -43l-10 -53q-5 -33 12.5 -56t65.5 -43l166 -57
q64 -21 110.5 -49.5t85.5 -74.5t53 -116.5t1 -162.5l-9 -54q-17 -107 -64.5 -183t-121.5 -119t-162 -62t-200 -19z" />
    <glyph glyph-name="sacute" unicode="&#x15b;" horiz-adv-x="796" 
d="M633 1085h-291l225 310h328zM319 -25q-102 0 -175 25t-110 68.5t-49 95t-1 110.5l10 58h307l-8 -53q-4 -22 8.5 -32.5t42.5 -10.5q61 0 64 40l4 25q2 23 -7.5 36t-39.5 23l-86 29q-130 35 -183 121.5t-35 202.5l5 28q44 260 372 260q199 0 283.5 -78.5t64.5 -220.5
l-8 -45h-309l8 45q10 43 -41 43q-44 0 -47 -32l-4 -21q-2 -23 7.5 -35.5t37.5 -21.5l111 -37q107 -34 160 -104.5t40 -200.5l-6 -33q-11 -77 -48.5 -133.5t-95 -88.5t-125.5 -47.5t-147 -15.5z" />
    <glyph glyph-name="Scedilla" unicode="&#x15e;" horiz-adv-x="1003" 
d="M629 1382q81 0 146 -13t109 -34t76.5 -52.5t51 -65t28.5 -76t12.5 -79.5t0.5 -81l-11 -74h-354l14 80q2 47 -23 70.5t-87 23.5q-57 0 -80.5 -14t-28.5 -43l-10 -53q-5 -33 12.5 -56t65.5 -43l166 -57q64 -21 110.5 -49.5t85.5 -74.5t53 -116.5t1 -162.5l-9 -54
q-55 -344 -446 -378l-39 -60q158 -19 158 -131q0 -134 -123.5 -192.5t-345.5 -32.5l31 176q92 -8 134 -1t42 30q0 35 -136 22l21 119l45 72q-78 11 -136.5 38.5t-93 65.5t-54 86.5t-19.5 101.5t10 111l14 82h334l-14 -88q-3 -103 123 -103q64 0 91 18t34 52l12 64
q6 33 -6.5 54.5t-54.5 41.5l-138 53q-29 9 -53 17.5t-50 19.5t-46.5 23.5t-41.5 28t-36.5 33.5t-29.5 40t-22.5 48.5t-13.5 57t-4.5 67t5.5 77.5l6 47q24 173 153 268.5t361 95.5z" />
    <glyph glyph-name="scedilla" unicode="&#x15f;" horiz-adv-x="796" 
d="M438 1001q199 0 283.5 -78.5t64.5 -220.5l-8 -45h-309l8 45q10 43 -41 43q-44 0 -47 -32l-4 -21q-2 -23 7.5 -35.5t37.5 -21.5l111 -37q107 -34 160 -104.5t40 -200.5l-6 -33q-18 -128 -105.5 -196t-223.5 -84l-29 -58q81 -6 121.5 -41.5t40.5 -109.5q0 -215 -299 -215
h-168l30 180h99q75 0 75 31q0 24 -45 24h-90l21 119l35 78q-130 26 -181.5 105t-31.5 181l10 58h307l-8 -53q-4 -22 8.5 -32.5t42.5 -10.5q61 0 64 40l4 25q2 23 -7.5 36t-39.5 23l-86 29q-130 35 -183 121.5t-35 202.5l5 28q44 260 372 260z" />
    <glyph glyph-name="Scaron" unicode="&#x160;" horiz-adv-x="1003" 
d="M1040 1759l-225 -311h-297l-115 311h265l37 -98l71 98h264zM629 1382q81 0 146 -13t109 -34t76.5 -52.5t51 -65t28.5 -76t12.5 -79.5t0.5 -81l-11 -74h-354l14 80q2 47 -23 70.5t-87 23.5q-57 0 -80.5 -14t-28.5 -43l-10 -53q-5 -33 12.5 -56t65.5 -43l166 -57
q64 -21 110.5 -49.5t85.5 -74.5t53 -116.5t1 -162.5l-9 -54q-17 -107 -64.5 -183t-121.5 -119t-162 -62t-200 -19q-87 0 -157 15.5t-116.5 43t-79 66t-45.5 84t-16 96.5t10 105l14 82h334l-14 -88q-3 -103 123 -103q64 0 91 18t34 52l12 64q6 33 -6.5 54.5t-54.5 41.5
l-138 53q-29 9 -53 17.5t-50 19.5t-46.5 23.5t-41.5 28t-36.5 33.5t-29.5 40t-22.5 48.5t-13.5 57t-4.5 67t5.5 77.5l6 47q24 173 153 268.5t361 95.5z" />
    <glyph glyph-name="scaron" unicode="&#x161;" horiz-adv-x="796" 
d="M874 1395l-225 -310h-297l-112 310h264l35 -99l71 99h264zM438 1001q199 0 283.5 -78.5t64.5 -220.5l-8 -45h-309l8 45q10 43 -41 43q-44 0 -47 -32l-4 -21q-2 -23 7.5 -35.5t37.5 -21.5l111 -37q107 -34 160 -104.5t40 -200.5l-6 -33q-11 -77 -48.5 -133.5t-95 -88.5
t-125.5 -47.5t-147 -15.5q-102 0 -175 25t-110 68.5t-49 95t-1 110.5l10 58h307l-8 -53q-4 -22 8.5 -32.5t42.5 -10.5q61 0 64 40l4 25q2 23 -7.5 36t-39.5 23l-86 29q-130 35 -183 121.5t-35 202.5l5 28q44 260 372 260z" />
    <glyph glyph-name="uni0162" unicode="&#x162;" horiz-adv-x="1013" 
d="M780 1034l-182 -1034h-68l-51 -80q158 -19 158 -131q0 -134 -123.5 -192.5t-345.5 -32.5l31 176q92 -8 134 -1t42 30q0 35 -135 22l20 119l55 90h-75l182 1034h-279l60 322h915l-57 -322h-281z" />
    <glyph glyph-name="uni0163" unicode="&#x163;" horiz-adv-x="610" 
d="M606 700h-143l-57 -323q-9 -51 3.5 -70.5t57.5 -19.5h80l-51 -287h-123l-39 -78q81 -6 121.5 -41.5t40.5 -109.5q0 -215 -299 -215h-168l30 180h99q75 0 75 31q0 24 -45 24h-90l21 119l53 119q-81 33 -107.5 109t-3.5 200l64 362h-68l49 277h68l43 248h338l-43 -248h143z
" />
    <glyph glyph-name="Tcaron" unicode="&#x164;" horiz-adv-x="1013" 
d="M1049 1759l-226 -311h-297l-114 311h264l37 -98l71 98h265zM203 1356h915l-57 -322h-281l-182 -1034h-358l182 1034h-279z" />
    <glyph glyph-name="tcaron" unicode="&#x165;" horiz-adv-x="610" 
d="M575 1079l101 340h303l-180 -340h-224zM217 1225h338l-43 -248h143l-49 -277h-143l-57 -323q-9 -51 3.5 -70.5t57.5 -19.5h80l-51 -287h-142q-188 0 -256.5 81t-36.5 257l64 362h-68l49 277h68z" />
    <glyph glyph-name="Tbar" unicode="&#x166;" horiz-adv-x="1064" 
d="M1118 1356l-57 -322h-281l-61 -348h213l-43 -221h-209l-82 -465h-358l82 465h-211l43 221h206l62 348h-279l60 322h915z" />
    <glyph glyph-name="tbar" unicode="&#x167;" horiz-adv-x="610" 
d="M655 977l-49 -277h-143l-17 -92h138l-31 -176h-137l-10 -55q-9 -51 3.5 -70.5t57.5 -19.5h80l-51 -287h-142q-188 0 -256.5 81t-36.5 257l17 94h-66l29 176h68l16 92h-68l49 277h68l43 248h338l-43 -248h143z" />
    <glyph glyph-name="Umacron" unicode="&#x16a;" horiz-adv-x="1165" 
d="M1030 1513h-530l39 232h532zM492 -25q-112 -1 -195.5 26t-133.5 77t-77 121t-27.5 158.5t15.5 189.5l141 809h373l-150 -842q-19 -112 6 -164.5t107 -52.5q85 0 124 53t60 164l150 842h370l-143 -809q-27 -156 -69 -259t-113.5 -175.5t-177.5 -105t-260 -32.5z" />
    <glyph glyph-name="umacron" unicode="&#x16b;" horiz-adv-x="878" 
d="M322 1364h532l-41 -231h-530zM451 334l114 643h338l-172 -977h-299l14 86q-90 -111 -241 -111q-249 0 -195 304l125 698h338l-115 -639q-15 -82 29 -82q45 0 64 78z" />
    <glyph glyph-name="Uring" unicode="&#x16e;" horiz-adv-x="1165" 
d="M750 1421q-102 0 -158.5 43t-56.5 131q0 98 71 155.5t211 57.5q215 0 215 -166q0 -107 -72.5 -164t-209.5 -57zM774 1565q31 0 48.5 18.5t17.5 44.5q0 37 -45 37q-33 0 -50.5 -18t-17.5 -45q0 -37 47 -37zM492 -25q-112 -1 -195.5 26t-133.5 77t-77 121t-27.5 158.5
t15.5 189.5l141 809h373l-150 -842q-19 -112 6 -164.5t107 -52.5q85 0 124 53t60 164l150 842h370l-143 -809q-27 -156 -69 -259t-113.5 -175.5t-177.5 -105t-260 -32.5z" />
    <glyph glyph-name="uring" unicode="&#x16f;" horiz-adv-x="878" 
d="M537 1049q-205 0 -205 165q0 106 71 169t203 63q203 0 203 -160q0 -108 -73 -172.5t-199 -64.5zM582 1303q-24 0 -41 -23.5t-17 -54.5q0 -33 37 -33q24 0 39.5 23t15.5 55q0 33 -34 33zM451 334l114 643h338l-172 -977h-299l14 86q-90 -111 -241 -111q-249 0 -195 304
l125 698h338l-115 -639q-15 -82 29 -82q45 0 64 78z" />
    <glyph glyph-name="Uhungarumlaut" unicode="&#x170;" horiz-adv-x="1165" 
d="M711 1464h-273l185 312h307zM1030 1464h-270l231 312h305zM492 -25q-112 -1 -195.5 26t-133.5 77t-77 121t-27.5 158.5t15.5 189.5l141 809h373l-150 -842q-19 -112 6 -164.5t107 -52.5q85 0 124 53t60 164l150 842h370l-143 -809q-27 -156 -69 -259t-113.5 -175.5
t-177.5 -105t-260 -32.5z" />
    <glyph glyph-name="uhungarumlaut" unicode="&#x171;" horiz-adv-x="878" 
d="M408 1395h307l-221 -310h-271zM1081 1395l-266 -310h-270l231 310h305zM451 334l114 643h338l-172 -977h-299l14 86q-90 -111 -241 -111q-249 0 -195 304l125 698h338l-115 -639q-15 -82 29 -82q45 0 64 78z" />
    <glyph glyph-name="Uogonek" unicode="&#x172;" horiz-adv-x="1165" 
d="M735 514l150 842h370l-143 -809q-41 -240 -127.5 -369.5t-253.5 -175.5q-75 -44 -117.5 -86.5t-42.5 -77.5q0 -46 91 -26l-35 -203q-149 -20 -225 17.5t-76 127.5q0 125 110 223q-458 27 -362 570l141 809h373l-150 -842q-19 -112 6 -164.5t107 -52.5q85 0 124 53t60 164
z" />
    <glyph glyph-name="uogonek" unicode="&#x173;" horiz-adv-x="878" 
d="M451 334l114 643h338l-172 -977h-2q-71 -45 -108 -88.5t-37 -77.5q0 -33 47 -33h47l-35 -204h-63q-122 0 -182 33t-60 114q0 149 137 256h-43l14 86q-90 -111 -241 -111q-249 0 -195 304l125 698h338l-115 -639q-15 -82 29 -82q45 0 64 78z" />
    <glyph glyph-name="Wcircumflex" unicode="&#x174;" horiz-adv-x="1818" 
d="M1128 1448l-34 98l-72 -98h-264l225 309h297l115 -309h-267zM1253 524l318 832h379l-621 -1358h-344l-51 625l-272 -625h-347l-143 1358h381l27 -830l325 830h312z" />
    <glyph glyph-name="wcircumflex" unicode="&#x175;" horiz-adv-x="1273" 
d="M780 1094l-35 98l-71 -98h-266l225 311h297l114 -311h-264zM877 502l155 475h336l-395 -977h-338l-12 430l-158 -430h-338l-51 977h340l-13 -457l175 457h282z" />
    <glyph glyph-name="Ycircumflex" unicode="&#x176;" horiz-adv-x="1077" 
d="M756 1448l-35 98l-72 -98h-264l225 309h297l115 -309h-266zM821 1356h406l-494 -791l-98 -565h-359l97 539l-217 817h419l52 -381z" />
    <glyph glyph-name="ycircumflex" unicode="&#x177;" horiz-adv-x="897" 
d="M592 1094l-35 98l-72 -98h-266l225 311h297l115 -311h-264zM451 512l170 465h364l-620 -1335h-336l174 335l-121 1000h364z" />
    <glyph glyph-name="Ydieresis" unicode="&#x178;" horiz-adv-x="1077" 
d="M553 1483q-129 0 -129 116q0 93 50 149t134 56q129 0 129 -114q0 -94 -50.5 -150.5t-133.5 -56.5zM877 1483q-132 0 -132 116q0 92 51 148.5t136 56.5q127 0 127 -114q0 -94 -49.5 -150.5t-132.5 -56.5zM821 1356h406l-494 -791l-98 -565h-359l97 539l-217 817h419
l52 -381z" />
    <glyph glyph-name="Zacute" unicode="&#x179;" horiz-adv-x="1021" 
d="M752 1774h325l-260 -310h-291zM594 1034h-444l57 322h868l-49 -287l-539 -747h459l-57 -322h-893l53 299z" />
    <glyph glyph-name="zacute" unicode="&#x17a;" horiz-adv-x="739" 
d="M539 1395h327l-262 -310h-291zM324 700h-269l49 277h668l-43 -248l-346 -453h289l-49 -276h-674l39 219z" />
    <glyph glyph-name="Zdotaccent" unicode="&#x17b;" horiz-adv-x="1021" 
d="M688 1483q-131 0 -131 116q0 93 51 149t137 56q127 0 127 -114q0 -94 -50.5 -150.5t-133.5 -56.5zM207 1356h868l-49 -287l-539 -747h459l-57 -322h-893l53 299l545 735h-444z" />
    <glyph glyph-name="zdotaccent" unicode="&#x17c;" horiz-adv-x="739" 
d="M479 1102q-131 0 -131 119q0 92 51.5 148t137.5 56q127 0 127 -116q0 -92 -51 -149.5t-134 -57.5zM104 977h668l-43 -248l-346 -453h289l-49 -276h-674l39 219l336 481h-269z" />
    <glyph glyph-name="Zcaron" unicode="&#x17d;" horiz-adv-x="1021" 
d="M1055 1759l-226 -311h-297l-114 311h264l37 -98l72 98h264zM207 1356h868l-49 -287l-539 -747h459l-57 -322h-893l53 299l545 735h-444z" />
    <glyph glyph-name="zcaron" unicode="&#x17e;" horiz-adv-x="739" 
d="M846 1395l-225 -310h-297l-113 310h264l35 -99l72 99h264zM324 700h-269l49 277h668l-43 -248l-346 -453h289l-49 -276h-674l39 219z" />
    <glyph glyph-name="uni0218" unicode="&#x218;" horiz-adv-x="1003" 
d="M410 -25q-87 0 -157 15.5t-116.5 43t-79 66t-45.5 84t-16 96.5t10 105l14 82h334l-14 -88q-3 -103 123 -103q64 0 91 18t34 52l12 64q6 33 -6.5 54.5t-54.5 41.5l-138 53q-29 9 -53 17.5t-50 19.5t-46.5 23.5t-41.5 28t-36.5 33.5t-29.5 40t-22.5 48.5t-13.5 57t-4.5 67
t5.5 77.5l6 47q24 173 153 268.5t361 95.5q81 0 146 -13t109 -34t76.5 -52.5t51 -65t28.5 -76t12.5 -79.5t0.5 -81l-11 -74h-354l14 80q2 47 -23 70.5t-87 23.5q-57 0 -80.5 -14t-28.5 -43l-10 -53q-5 -33 12.5 -56t65.5 -43l166 -57q64 -21 110.5 -49.5t85.5 -74.5
t53 -116.5t1 -162.5l-9 -54q-17 -107 -64.5 -183t-121.5 -119t-162 -62t-200 -19zM70 -410l186 332h326l-263 -332h-249z" />
    <glyph glyph-name="uni0219" unicode="&#x219;" horiz-adv-x="796" 
d="M319 -25q-102 0 -175 25t-110 68.5t-49 95t-1 110.5l10 58h307l-8 -53q-4 -22 8.5 -32.5t42.5 -10.5q61 0 64 40l4 25q2 23 -7.5 36t-39.5 23l-86 29q-130 35 -183 121.5t-35 202.5l5 28q44 260 372 260q199 0 283.5 -78.5t64.5 -220.5l-8 -45h-309l8 45q10 43 -41 43
q-44 0 -47 -32l-4 -21q-2 -23 7.5 -35.5t37.5 -21.5l111 -37q107 -34 160 -104.5t40 -200.5l-6 -33q-11 -77 -48.5 -133.5t-95 -88.5t-125.5 -47.5t-147 -15.5zM-25 -410l187 332h325l-262 -332h-250z" />
    <glyph glyph-name="uni021A" unicode="&#x21a;" horiz-adv-x="1013" 
d="M203 1356h915l-57 -322h-281l-182 -1034h-358l182 1034h-279zM328 -410h-250l186 332h326z" />
    <glyph glyph-name="uni021B" unicode="&#x21b;" horiz-adv-x="610" 
d="M606 700h-143l-57 -323q-9 -51 3.5 -70.5t57.5 -19.5h80l-51 -287h-142q-188 0 -256.5 81t-36.5 257l64 362h-68l49 277h68l43 248h338l-43 -248h143zM184 -410h-250l187 332h325z" />
    <glyph glyph-name="gravecomb" unicode="&#x300;" 
d="M76 1085h-291l-152 310h328z" />
    <glyph glyph-name="acutecomb" unicode="&#x301;" 
d="M-147 1085h-291l225 310h328z" />
    <glyph glyph-name="uni0302" unicode="&#x302;" 
d="M-84 1405l115 -311h-264l-35 98l-72 -98h-266l225 311h297z" />
    <glyph glyph-name="tildecomb" unicode="&#x303;" 
d="M-88 1116q-45 0 -106.5 32t-100.5 32q-38 0 -63.5 -10t-75.5 -40l39 224q77 51 151 51q45 0 104 -31t103 -31q66 0 146 52l-39 -226q-73 -53 -158 -53z" />
    <glyph glyph-name="uni0304" unicode="&#x304;" 
d="M70 1133h-531l39 231h533z" />
    <glyph glyph-name="uni0306" unicode="&#x306;" 
d="M-233 1065q-279 0 -222 328h228q-14 -71 -9 -100t35 -29q33 0 47 26.5t27 102.5h227q-16 -98 -46.5 -164.5t-75.5 -101t-95 -48.5t-116 -14z" />
    <glyph glyph-name="uni0307" unicode="&#x307;" 
d="M-156 1102q-131 0 -131 119q0 92 51.5 148t137.5 56q127 0 127 -116q0 -92 -51 -149.5t-134 -57.5z" />
    <glyph glyph-name="uni0308" unicode="&#x308;" 
d="M-449 1102q-129 0 -129 119q0 92 51 148t136 56q129 0 129 -116q0 -94 -51 -150.5t-136 -56.5zM-123 1102q-131 0 -131 119q0 92 50.5 148t135.5 56q127 0 127 -116q0 -93 -49.5 -150t-132.5 -57z" />
    <glyph glyph-name="uni030A" unicode="&#x30a;" 
d="M-250 1049q-205 0 -205 165q0 106 71.5 169t203.5 63q203 0 203 -160q0 -108 -73 -172.5t-200 -64.5zM-225 1192q24 0 39.5 23t15.5 55q0 33 -35 33q-24 0 -40.5 -23.5t-16.5 -54.5q0 -33 37 -33z" />
    <glyph glyph-name="uni030B" unicode="&#x30b;" 
d="M-477 1085h-271l185 310h307zM-156 1085h-270l231 310h306z" />
    <glyph glyph-name="uni030C" unicode="&#x30c;" 
d="M-248 1296l72 99h264l-225 -310h-297l-113 310h264z" />
    <glyph glyph-name="uni0312" unicode="&#x312;" 
d="M147 1419l-194 -329h-356l276 329h274z" />
    <glyph glyph-name="uni0326" unicode="&#x326;" 
d="M-805 -410l187 332h325l-262 -332h-250z" />
    <glyph glyph-name="uni0327" unicode="&#x327;" 
d="M-279 39l-59 -117q81 -6 121.5 -41.5t40.5 -109.5q0 -215 -299 -215h-168l31 180h98q76 0 76 31q0 24 -45 24h-90l20 119l57 129h217z" />
    <glyph glyph-name="uni0328" unicode="&#x328;" 
d="M-188 -403h-64q-122 0 -182 33t-60 114q0 232 334 360l58 -104q-146 -93 -146 -166q0 -33 47 -33h47z" />
    <glyph glyph-name="Wgrave" unicode="&#x1e80;" horiz-adv-x="1818" 
d="M1137 1774l114 -310h-288l-154 310h328zM1253 524l318 832h379l-621 -1358h-344l-51 625l-272 -625h-347l-143 1358h381l27 -830l325 830h312z" />
    <glyph glyph-name="wgrave" unicode="&#x1e81;" horiz-adv-x="1273" 
d="M799 1395l114 -310h-290l-152 310h328zM877 502l155 475h336l-395 -977h-338l-12 430l-158 -430h-338l-51 977h340l-13 -457l175 457h282z" />
    <glyph glyph-name="Wacute" unicode="&#x1e82;" horiz-adv-x="1818" 
d="M1149 1774h326l-261 -310h-290zM1253 524l318 832h379l-621 -1358h-344l-51 625l-272 -625h-347l-143 1358h381l27 -830l325 830h312z" />
    <glyph glyph-name="wacute" unicode="&#x1e83;" horiz-adv-x="1273" 
d="M807 1395h328l-263 -310h-290zM877 502l155 475h336l-395 -977h-338l-12 430l-158 -430h-338l-51 977h340l-13 -457l175 457h282z" />
    <glyph glyph-name="Wdieresis" unicode="&#x1e84;" horiz-adv-x="1818" 
d="M924 1483q-129 0 -129 116q0 93 50 149t134 56q129 0 129 -114q0 -94 -50.5 -150.5t-133.5 -56.5zM1247 1483q-131 0 -131 116q0 92 51 148.5t136 56.5q127 0 127 -114q0 -94 -50 -150.5t-133 -56.5zM1253 524l318 832h379l-621 -1358h-344l-51 625l-272 -625h-347
l-143 1358h381l27 -830l325 830h312z" />
    <glyph glyph-name="wdieresis" unicode="&#x1e85;" horiz-adv-x="1273" 
d="M584 1102q-129 0 -129 119q0 92 50.5 148t135.5 56q129 0 129 -116q0 -94 -50.5 -150.5t-135.5 -56.5zM909 1102q-131 0 -131 119q0 92 51 148t136 56q127 0 127 -116q0 -93 -50 -150t-133 -57zM877 502l155 475h336l-395 -977h-338l-12 430l-158 -430h-338l-51 977h340
l-13 -457l175 457h282z" />
    <glyph glyph-name="uni1E9E" unicode="&#x1e9e;" horiz-adv-x="1150" 
d="M707 1356h475l-52 -293l-233 -299q82 -6 132.5 -34.5t73 -91.5t7.5 -163l-25 -143q-9 -79 -36.5 -138t-66.5 -95.5t-94 -59t-112.5 -31t-128.5 -8.5h-235l57 322h221q43 0 62.5 12.5t25.5 44.5l17 98q4 28 -9 37.5t-43 9.5h-239l45 244l219 266h-106q-77 0 -114.5 -34
t-51.5 -113l-158 -887h-356l157 901q18 99 43 171t62 122.5t79.5 82t104 49t125.5 24t154 6.5z" />
    <glyph glyph-name="Ygrave" unicode="&#x1ef2;" horiz-adv-x="1077" 
d="M766 1774l115 -310h-289l-154 310h328zM821 1356h406l-494 -791l-98 -565h-359l97 539l-217 817h419l52 -381z" />
    <glyph glyph-name="ygrave" unicode="&#x1ef3;" horiz-adv-x="897" 
d="M608 1395l115 -310h-291l-151 310h327zM451 512l170 465h364l-620 -1335h-336l174 335l-121 1000h364z" />
    <glyph glyph-name="endash" unicode="&#x2013;" horiz-adv-x="956" 
d="M883 485h-811l53 291h809z" />
    <glyph glyph-name="emdash" unicode="&#x2014;" horiz-adv-x="1347" 
d="M1272 485h-1200l53 291h1200z" />
    <glyph glyph-name="quoteleft" unicode="&#x2018;" horiz-adv-x="436" 
d="M553 1358l-137 -434h-303l211 434h229z" />
    <glyph glyph-name="quoteright" unicode="&#x2019;" horiz-adv-x="436" 
d="M115 924l137 432h303l-211 -432h-229z" />
    <glyph glyph-name="quotesinglbase" unicode="&#x201a;" horiz-adv-x="489" 
d="M-115 -324l156 500h324l-240 -500h-240z" />
    <glyph glyph-name="quotedblleft" unicode="&#x201c;" horiz-adv-x="765" 
d="M553 1356l-137 -432h-303l211 432h229zM883 1356l-138 -432h-303l211 432h230z" />
    <glyph glyph-name="quotedblright" unicode="&#x201d;" horiz-adv-x="765" 
d="M115 924l137 432h303l-211 -432h-229zM444 924l138 432h303l-211 -432h-230z" />
    <glyph glyph-name="quotedblbase" unicode="&#x201e;" horiz-adv-x="847" 
d="M-115 -324l156 500h324l-240 -500h-240zM244 -324l155 500h324l-238 -500h-241z" />
    <glyph glyph-name="dagger" unicode="&#x2020;" horiz-adv-x="749" 
d="M639 1210h164l-41 -241h-166l-90 -506h-275l91 506h-164l41 241h166l26 146h275z" />
    <glyph glyph-name="daggerdbl" unicode="&#x2021;" horiz-adv-x="749" 
d="M815 1210l-41 -241h-178l-18 -131h161l-43 -244h-155l-21 -131h-276l20 131h-172l43 244h166l18 131h-174l43 241h168l23 146h276l-22 -146h182z" />
    <glyph glyph-name="bullet" unicode="&#x2022;" horiz-adv-x="692" 
d="M350 449q-233 0 -233 213q0 151 88.5 241t240.5 90q232 0 232 -209q0 -153 -89 -244t-239 -91z" />
    <glyph glyph-name="ellipsis" unicode="&#x2026;" horiz-adv-x="1234" 
d="M133 -25q-153 0 -153 140q0 98 58.5 157.5t158.5 59.5q151 0 151 -137q0 -99 -58.5 -159.5t-156.5 -60.5zM528 -25q-153 0 -153 140q0 98 58.5 157.5t158.5 59.5q151 0 151 -137q0 -99 -58.5 -159.5t-156.5 -60.5zM924 -25q-156 0 -156 140q0 97 59 157t158 60
q154 0 154 -137q0 -99 -58.5 -159.5t-156.5 -60.5z" />
    <glyph glyph-name="perthousand" unicode="&#x2030;" horiz-adv-x="2000" 
d="M346 686q-143 0 -203.5 85t-33.5 233l20 114q46 264 324 264q146 0 206.5 -78t36.5 -219l-16 -96q-24 -156 -107 -229.5t-227 -73.5zM451 0h-361l924 1356h360zM377 911q17 0 26 10.5t15 36.5l26 156q6 22 2 33.5t-22 11.5q-17 0 -25.5 -10t-13.5 -35l-29 -156
q-6 -47 21 -47zM1012 -25q-144 0 -204.5 83.5t-33.5 232.5l19 115q24 129 102 196.5t223 67.5q146 0 206 -77.5t38 -219.5l-16 -97q-24 -156 -107 -228.5t-227 -72.5zM1612 -25q-144 0 -204.5 84t-33.5 232l21 115q22 130 100.5 197t222.5 67q146 0 207 -78t39 -219l-16 -97
q-26 -155 -109 -228t-227 -73zM1042 201q17 0 26 9.5t15 35.5l27 157q10 46 -23 46q-28 0 -36 -46l-29 -157q-4 -22 0 -33.5t20 -11.5zM1645 201q17 0 25.5 9.5t12.5 35.5l29 157q3 24 -0.5 33.5t-21.5 9.5q-17 0 -26 -9.5t-13 -33.5l-27 -157q-9 -45 21 -45z" />
    <glyph glyph-name="guilsinglleft" unicode="&#x2039;" horiz-adv-x="581" 
d="M295 934h299l-229 -381l92 -311h-279l-119 336z" />
    <glyph glyph-name="guilsinglright" unicode="&#x203a;" horiz-adv-x="581" 
d="M162 934h278l117 -336l-233 -356h-299l229 379z" />
    <glyph glyph-name="fraction" unicode="&#x2044;" horiz-adv-x="1167" 
d="M344 0h-375l922 1356h375z" />
    <glyph glyph-name="Euro" unicode="&#x20ac;" horiz-adv-x="1132" 
d="M770 1378q453 0 381 -444l-14 -78h-369l14 74q10 64 -3.5 94.5t-67.5 30.5q-55 0 -81 -34.5t-44 -125.5v-2h170l-31 -184h-172l-12 -66h172l-33 -182h-170q-15 -91 -0.5 -127.5t65.5 -36.5q53 0 77 30.5t40 94.5l15 72h368l-14 -80q-43 -221 -175.5 -330t-361.5 -109
q-124 0 -208.5 33.5t-127 96.5t-55.5 153t6 203h-92l33 182h90l10 66h-88l31 184h90q18 92 42.5 161.5t67.5 132.5t102 103.5t146 64t199 23.5z" />
    <glyph glyph-name="trademark" unicode="&#x2122;" horiz-adv-x="1536" 
d="M756 1356l-43 -254h-127l-72 -412h-293l74 412h-125l43 254h543zM1157 1190l92 166h330l-117 -666h-241l47 256l-115 -190h-149l-46 190l-43 -256h-243l119 666h331z" />
    <glyph glyph-name="oneeighth" unicode="&#x215b;" horiz-adv-x="1347" 
d="M-45 0l922 1356h374l-921 -1356h-375zM143 672l84 483l-82 -18l-14 176l184 39h174l-120 -680h-226zM1069 694q148 0 211 -47.5t49 -130.5l-6 -24q-19 -100 -113 -144q97 -43 76 -151l-6 -31q-19 -95 -97.5 -137.5t-238.5 -42.5t-220.5 49t-47.5 137l6 33q15 105 125 145
q-75 49 -59 142l4 26q26 176 317 176zM977 469l-4 -27q-3 -20 7.5 -27t37.5 -7q50 0 59 30l4 29q6 19 -5.5 27t-39.5 8q-53 0 -59 -33zM1049 215l4 27q2 18 -9.5 24t-50.5 6q-34 0 -49 -5.5t-18 -22.5l-6 -31q-3 -18 10 -26.5t49 -8.5q67 0 70 37z" />
    <glyph glyph-name="threeeighths" unicode="&#x215c;" horiz-adv-x="1527" 
d="M678 879l-4 -25q-29 -192 -328 -192q-156 0 -218 63.5t-42 167.5l4 27h238l-4 -25q-4 -21 9 -30t46 -9t46 6t17 25l4 24q4 18 -10 25.5t-49 7.5h-108l26 139h101q59 0 67 33l4 25q3 17 -7 25t-32 8q-53 0 -59 -39l-6 -25h-223l4 29q24 118 101.5 174.5t229.5 56.5
q142 0 200 -50.5t40 -137.5l-4 -19q-9 -48 -41.5 -86t-87.5 -59q101 -42 86 -139zM143 0l924 1356h375l-924 -1356h-375zM1249 694q148 0 211 -47.5t47 -130.5l-4 -24q-19 -99 -114 -144q96 -45 75 -151l-4 -31q-20 -96 -98.5 -138t-237.5 -42q-160 0 -220.5 49t-47.5 137
l6 33q15 105 125 145q-74 46 -61 142l6 26q23 176 317 176zM1157 469l-4 -27q-3 -20 7.5 -27t37.5 -7q51 0 57 30l7 29q4 20 -7.5 27.5t-40.5 7.5q-51 0 -57 -33zM1227 215l6 27q0 18 -11 24t-48 6q-35 0 -50 -5.5t-18 -22.5l-6 -31q-3 -18 10 -26.5t47 -8.5q70 0 70 37z
" />
    <glyph glyph-name="fiveeighths" unicode="&#x215d;" horiz-adv-x="1527" 
d="M137 0l924 1356h375l-924 -1356h-375zM680 915l-8 -49q-36 -209 -324 -209q-149 0 -215.5 63.5t-42.5 166.5l4 22h228l-5 -24q0 -33 52 -33q57 0 67 37l10 51q6 35 -51 35t-65 -31l-2 -14h-211l73 422h508l-34 -199h-302l-16 -98q55 41 164 41q95 0 139 -45.5t31 -135.5z
M1243 694q148 0 211 -47.5t49 -130.5l-6 -24q-19 -100 -113 -144q97 -43 76 -151l-6 -31q-19 -95 -97.5 -137.5t-238.5 -42.5t-220.5 49t-47.5 137l6 33q15 105 125 145q-75 49 -59 142l4 26q26 176 317 176zM1151 469l-4 -27q-3 -20 7.5 -27t37.5 -7q50 0 59 30l4 29
q6 19 -5.5 27t-39.5 8q-53 0 -59 -33zM1223 215l4 27q2 18 -9.5 24t-50.5 6q-35 0 -49.5 -5.5t-17.5 -22.5l-6 -31q-3 -18 10 -26.5t49 -8.5q67 0 70 37z" />
    <glyph glyph-name="seveneighths" unicode="&#x215e;" horiz-adv-x="1370" 
d="M-29 0l924 1356h375l-924 -1356h-375zM643 1178l-285 -506h-254l297 477h-264l35 203h502zM1092 694q147 0 210.5 -47.5t47.5 -130.5l-4 -24q-19 -99 -115 -144q97 -46 76 -151l-4 -31q-20 -95 -99.5 -137.5t-238.5 -42.5q-158 0 -219 49t-48 137l4 33q18 106 125 145
q-75 48 -59 142l4 26q26 176 320 176zM999 469l-6 -27q-3 -19 8 -26.5t39 -7.5q49 0 58 30l6 29q4 20 -7 27.5t-40 7.5q-52 0 -58 -33zM1069 215l4 27q2 18 -9 24t-48 6q-35 0 -50 -5.5t-18 -22.5l-6 -31q-3 -18 9.5 -26.5t47.5 -8.5q37 0 52.5 9t17.5 28z" />
    <glyph glyph-name="minus" unicode="&#x2212;" horiz-adv-x="735" 
d="M676 532h-600l47 265h600z" />
    <glyph glyph-name="approxequal" unicode="&#x2248;" horiz-adv-x="1165" 
 />
    <glyph glyph-name="notequal" unicode="&#x2260;" horiz-adv-x="706" 
d="M735 958l-47 -270h-176l-25 -59h191l-47 -269h-252l-31 -73h-246l31 73h-102l47 269h164l24 59h-178l47 270h240l31 74h247l-30 -74h112z" />
    <glyph glyph-name="lessequal" unicode="&#x2264;" horiz-adv-x="624" 
d="M158 883l487 182l-47 -264l-229 -53l211 -54l-48 -264l-423 182zM494 193h-480l39 221h482z" />
    <glyph glyph-name="greaterequal" unicode="&#x2265;" horiz-adv-x="622" 
d="M139 801l45 264l426 -182l-49 -271l-489 -182l47 264l229 54zM504 193h-479l38 221h480z" />
    <glyph glyph-name="lozenge" unicode="&#x25ca;" horiz-adv-x="1169" 
 />
    <glyph glyph-name="i.loclTRK" horiz-adv-x="452" 
d="M336 1102q-131 0 -131 119q0 93 51 148.5t137 55.5q127 0 127 -116q0 -93 -50.5 -150t-133.5 -57zM311 0h-338l172 977h338z" />
    <glyph glyph-name="a.ss01" horiz-adv-x="849" 
d="M547 950l4 27h336l-174 -977h-279l12 76q-87 -103 -227 -103q-139 0 -194.5 97.5t-22.5 269.5l51 289q34 198 115.5 285t218.5 87q106 0 160 -51zM377 254q45 0 63 92l49 283q17 94 -30 94t-64 -96l-49 -279q-17 -94 31 -94z" />
    <glyph glyph-name="aacute.ss01" horiz-adv-x="849" 
d="M596 1395h328l-262 -310h-291zM547 950l4 27h336l-174 -977h-279l12 76q-87 -103 -227 -103q-139 0 -194.5 97.5t-22.5 269.5l51 289q34 198 115.5 285t218.5 87q106 0 160 -51zM377 254q45 0 63 92l49 283q17 94 -30 94t-64 -96l-49 -279q-17 -94 31 -94z" />
    <glyph glyph-name="abreve.ss01" horiz-adv-x="849" 
d="M528 1065q-278 0 -221 328h228q-14 -71 -9 -100t35 -29q33 0 47 26.5t27 102.5h227q-16 -98 -46.5 -164.5t-76 -101t-95.5 -48.5t-116 -14zM547 950l4 27h336l-174 -977h-279l12 76q-87 -103 -227 -103q-139 0 -194.5 97.5t-22.5 269.5l51 289q34 198 115.5 285t218.5 87
q106 0 160 -51zM377 254q45 0 63 92l49 283q17 94 -30 94t-64 -96l-49 -279q-17 -94 31 -94z" />
    <glyph glyph-name="acircumflex.ss01" horiz-adv-x="849" 
d="M569 1094l-34 98l-72 -98h-266l225 311h297l115 -311h-265zM547 950l4 27h336l-174 -977h-279l12 76q-87 -103 -227 -103q-139 0 -194.5 97.5t-22.5 269.5l51 289q34 198 115.5 285t218.5 87q106 0 160 -51zM377 254q45 0 63 92l49 283q17 94 -30 94t-64 -96l-49 -279
q-17 -94 31 -94z" />
    <glyph glyph-name="adieresis.ss01" horiz-adv-x="849" 
d="M371 1102q-129 0 -129 119q0 92 50.5 148t135.5 56q129 0 129 -116q0 -94 -50.5 -150.5t-135.5 -56.5zM696 1102q-131 0 -131 119q0 92 51 148t136 56q127 0 127 -116q0 -93 -50 -150t-133 -57zM547 950l4 27h336l-174 -977h-279l12 76q-87 -103 -227 -103
q-139 0 -194.5 97.5t-22.5 269.5l51 289q34 198 115.5 285t218.5 87q106 0 160 -51zM377 254q45 0 63 92l49 283q17 94 -30 94t-64 -96l-49 -279q-17 -94 31 -94z" />
    <glyph glyph-name="agrave.ss01" horiz-adv-x="849" 
d="M586 1395l114 -310h-290l-152 310h328zM547 950l4 27h336l-174 -977h-279l12 76q-87 -103 -227 -103q-139 0 -194.5 97.5t-22.5 269.5l51 289q34 198 115.5 285t218.5 87q106 0 160 -51zM377 254q45 0 63 92l49 283q17 94 -30 94t-64 -96l-49 -279q-17 -94 31 -94z" />
    <glyph glyph-name="amacron.ss01" horiz-adv-x="849" 
d="M313 1364h533l-41 -231h-531zM547 950l4 27h336l-174 -977h-279l12 76q-87 -103 -227 -103q-139 0 -194.5 97.5t-22.5 269.5l51 289q34 198 115.5 285t218.5 87q106 0 160 -51zM377 254q45 0 63 92l49 283q17 94 -30 94t-64 -96l-49 -279q-17 -94 31 -94z" />
    <glyph glyph-name="aogonek.ss01" horiz-adv-x="849" 
d="M887 977l-174 -977q-146 -93 -146 -166q0 -33 47 -33h48l-35 -204h-64q-122 0 -181.5 33t-59.5 114q0 149 137 256h-25l12 76q-87 -103 -227 -103q-139 0 -194.5 97.5t-22.5 269.5l51 289q34 198 115.5 285t218.5 87q106 0 160 -51l4 27h336zM377 254q45 0 63 92l49 283
q17 94 -30 94t-64 -96l-49 -279q-17 -94 31 -94z" />
    <glyph glyph-name="aring.ss01" horiz-adv-x="849" 
d="M526 1049q-204 0 -204 165q0 106 71 169t203 63q203 0 203 -160q0 -108 -73 -172.5t-200 -64.5zM571 1303q-24 0 -40.5 -23.5t-16.5 -54.5q0 -33 37 -33q24 0 39.5 23t15.5 55q0 33 -35 33zM547 950l4 27h336l-174 -977h-279l12 76q-87 -103 -227 -103
q-139 0 -194.5 97.5t-22.5 269.5l51 289q34 198 115.5 285t218.5 87q106 0 160 -51zM377 254q45 0 63 92l49 283q17 94 -30 94t-64 -96l-49 -279q-17 -94 31 -94z" />
    <glyph glyph-name="atilde.ss01" horiz-adv-x="849" 
d="M637 1116q-45 0 -106.5 32t-100.5 32q-38 0 -63.5 -10t-75.5 -40l39 224q77 51 151 51q45 0 104 -31t103 -31q66 0 146 52l-39 -226q-73 -53 -158 -53zM547 950l4 27h336l-174 -977h-279l12 76q-87 -103 -227 -103q-139 0 -194.5 97.5t-22.5 269.5l51 289
q34 198 115.5 285t218.5 87q106 0 160 -51zM377 254q45 0 63 92l49 283q17 94 -30 94t-64 -96l-49 -279q-17 -94 31 -94z" />
    <glyph glyph-name="f.ss01" horiz-adv-x="681" 
d="M784 1094h-155q-36 0 -55 -16t-27 -68l-6 -33h188l-49 -277h-188l-187 -1058h-344l186 1058h-100l49 277h101l6 35q11 67 28.5 120t50 105t77.5 86t115 55t159 21h203z" />
    <glyph glyph-name="fi.ss01" horiz-adv-x="1107" 
d="M1053 1442q153 0 153 -131q0 -106 -58.5 -169t-158.5 -63q-78 0 -118 34t-40 99q0 107 60 168.5t162 61.5zM729 977l-49 -277h-188l-187 -1058h-344l186 1058h-100l49 277h101l6 35q11 67 28.5 120t50 105t77.5 86t115 55t159 21h203l-52 -305h-155q-36 0 -55 -16
t-27 -68l-6 -33h188zM969 0h-338l172 977h338z" />
    <glyph glyph-name="fl.ss01" horiz-adv-x="1105" 
d="M729 977l-49 -277h-188l-187 -1058h-344l186 1058h-100l49 277h101l6 35q11 67 28.5 120t50 105t77.5 86t115 55t159 21h203l-52 -305h-155q-36 0 -55 -16t-27 -68l-6 -33h188zM635 0l248 1399h336l-248 -1399h-336z" />
    <glyph glyph-name="a.sc" horiz-adv-x="993" 
d="M913 0h-331l-13 137h-256l-59 -137h-344l514 1051h344zM528 629l-110 -252h131z" />
    <glyph glyph-name="aacute.sc" horiz-adv-x="993" 
d="M682 1473h328l-262 -310h-291zM-90 0l514 1051h344l145 -1051h-331l-13 137h-256l-59 -137h-344zM528 629l-110 -252h131z" />
    <glyph glyph-name="abreve.sc" horiz-adv-x="993" 
d="M614 1143q-278 0 -221 327h228q-14 -70 -9 -99.5t35 -29.5q33 0 47 26.5t27 102.5h227q-16 -98 -46.5 -164.5t-76 -101t-95.5 -48t-116 -13.5zM-90 0l514 1051h344l145 -1051h-331l-13 137h-256l-59 -137h-344zM528 629l-110 -252h131z" />
    <glyph glyph-name="acircumflex.sc" horiz-adv-x="993" 
d="M655 1171l-34 99l-72 -99h-266l225 312h297l115 -312h-265zM-90 0l514 1051h344l145 -1051h-331l-13 137h-256l-59 -137h-344zM528 629l-110 -252h131z" />
    <glyph glyph-name="adieresis.sc" horiz-adv-x="993" 
d="M457 1180q-129 0 -129 118q0 93 51 149t135 56q64 0 96.5 -30.5t32.5 -86.5q0 -94 -50.5 -150t-135.5 -56zM782 1180q-131 0 -131 118q0 92 51 148.5t136 56.5q127 0 127 -117q0 -93 -50 -149.5t-133 -56.5zM-90 0l514 1051h344l145 -1051h-331l-13 137h-256l-59 -137
h-344zM528 629l-110 -252h131z" />
    <glyph glyph-name="agrave.sc" horiz-adv-x="993" 
d="M672 1473l114 -310h-290l-152 310h328zM913 0h-331l-13 137h-256l-59 -137h-344l514 1051h344zM528 629l-110 -252h131z" />
    <glyph glyph-name="amacron.sc" horiz-adv-x="993" 
d="M399 1442h533l-41 -232h-531zM-90 0l514 1051h344l145 -1051h-331l-13 137h-256l-59 -137h-344zM528 629l-110 -252h131z" />
    <glyph glyph-name="aogonek.sc" horiz-adv-x="993" 
d="M913 0h-2q-71 -45 -108 -88.5t-37 -77.5q0 -33 47 -33h47l-35 -204h-63q-122 0 -182 33t-60 114q0 149 137 256h-75l-13 137h-256l-59 -137h-344l514 1051h344zM528 629l-110 -252h131z" />
    <glyph glyph-name="aring.sc" horiz-adv-x="993" 
d="M614 1126q-204 0 -204 166q0 106 71 169t203 63q203 0 203 -160q0 -108 -73.5 -173t-199.5 -65zM659 1380q-24 0 -40.5 -23t-16.5 -54q0 -33 37 -33q24 0 39.5 23t15.5 55t-35 32zM913 0h-331l-13 137h-256l-59 -137h-344l514 1051h344zM528 629l-110 -252h131z" />
    <glyph glyph-name="atilde.sc" horiz-adv-x="993" 
d="M723 1194q-45 0 -106.5 31.5t-100.5 31.5q-38 0 -64 -10t-75 -39l39 224q77 51 151 51q45 0 104 -31t103 -31q66 0 146 52l-39 -226q-73 -53 -158 -53zM-90 0l514 1051h344l145 -1051h-331l-13 137h-256l-59 -137h-344zM528 629l-110 -252h131z" />
    <glyph glyph-name="ae.sc" horiz-adv-x="1366" 
d="M1417 1051l-55 -301l-375 -2l-20 -117h315l-33 -191h-315l-25 -137h375l-53 -303h-715l35 195h-211l-96 -195h-334l559 1051h948zM610 748l-153 -314h137l55 314h-39z" />
    <glyph glyph-name="b.sc" horiz-adv-x="995" 
d="M172 1051h522q53 0 94.5 -5.5t82.5 -21t66 -41.5t36.5 -70.5t1.5 -103.5l-10 -57q-26 -144 -158 -199q156 -52 127 -227l-10 -54q-24 -140 -131.5 -206t-321.5 -66h-485zM600 659l10 64q6 22 -5 30.5t-36 8.5h-110l-25 -139h90q38 0 54 7.5t22 28.5zM575 336l13 65
q4 22 -8.5 32.5t-38.5 10.5h-140l-26 -151h127q34 0 50.5 10t22.5 33z" />
    <glyph glyph-name="c.sc" horiz-adv-x="1034" 
d="M438 -25q-231 0 -337 116t-68 337l41 223q74 426 559 426q243 0 337.5 -102.5t65.5 -310.5l-12 -74h-346l16 82q10 49 -19 73.5t-87 24.5q-139 0 -160 -125l-41 -221q-26 -143 107 -143q131 0 145 104l12 70h346l-10 -66q-37 -213 -169 -313.5t-380 -100.5z" />
    <glyph glyph-name="cacute.sc" horiz-adv-x="1034" 
d="M772 1163h-291l226 310h327zM438 -25q-231 0 -337 116t-68 337l41 223q74 426 559 426q243 0 337.5 -102.5t65.5 -310.5l-12 -74h-346l16 82q10 49 -19 73.5t-87 24.5q-139 0 -160 -125l-41 -221q-26 -143 107 -143q131 0 145 104l12 70h346l-10 -66
q-37 -213 -169 -313.5t-380 -100.5z" />
    <glyph glyph-name="ccaron.sc" horiz-adv-x="1034" 
d="M1014 1473l-226 -310h-296l-113 310h264l35 -99l72 99h264zM633 1077q243 0 337.5 -102.5t65.5 -310.5l-12 -74h-346l16 82q10 49 -19 73.5t-87 24.5q-139 0 -160 -125l-41 -221q-26 -143 107 -143q131 0 145 104l12 70h346l-10 -66q-37 -213 -169 -313.5t-380 -100.5
q-231 0 -337 116t-68 337l41 223q74 426 559 426z" />
    <glyph glyph-name="ccedilla.sc" horiz-adv-x="1034" 
d="M633 1077q243 0 337.5 -102.5t65.5 -310.5l-12 -74h-346l16 82q10 49 -19 73.5t-87 24.5q-139 0 -160 -125l-41 -221q-26 -143 107 -143q131 0 145 104l12 70h346l-10 -66q-34 -193 -144.5 -292.5t-312.5 -116.5l-28 -56q81 -6 121.5 -41.5t40.5 -109.5q0 -215 -299 -215
h-168l30 180h99q75 0 75 31q0 24 -45 24h-90l21 119l32 72q-170 30 -244 142t-42 302l41 223q74 426 559 426z" />
    <glyph glyph-name="cdotaccent.sc" horiz-adv-x="1034" 
d="M645 1180q-131 0 -131 118q0 93 51 149t137 56q127 0 127 -117q0 -92 -50.5 -149t-133.5 -57zM438 -25q-231 0 -337 116t-68 337l41 223q74 426 559 426q243 0 337.5 -102.5t65.5 -310.5l-12 -74h-346l16 82q10 49 -19 73.5t-87 24.5q-139 0 -160 -125l-41 -221
q-26 -143 107 -143q131 0 145 104l12 70h346l-10 -66q-37 -213 -169 -313.5t-380 -100.5z" />
    <glyph glyph-name="d.sc" horiz-adv-x="1060" 
d="M172 1051h473q42 0 78.5 -3t74.5 -9.5t68.5 -18t60.5 -29t50.5 -41t38.5 -55t25 -70.5t9.5 -88t-8.5 -108l-36 -205q-15 -101 -48 -175.5t-79 -122t-112 -76t-139 -39.5t-167 -11h-475zM655 434l33 184q11 69 -14 99.5t-96 30.5h-121l-78 -445h108q79 0 117.5 30
t50.5 101z" />
    <glyph glyph-name="eth.sc" horiz-adv-x="1062" 
d="M172 1051h475q42 0 78.5 -3t74.5 -9.5t68.5 -18t60.5 -29t50 -41t38 -55t25 -70.5t9 -88t-9 -108l-34 -205q-15 -101 -48 -175.5t-79 -122t-112 -76t-139 -39.5t-167 -11h-475l73 422h-67l37 213h67zM657 434l33 184q11 69 -14 99.5t-96 30.5h-121l-21 -113h117l-39 -213
h-115l-20 -119h108q78 0 117 30.5t51 100.5z" />
    <glyph glyph-name="dcaron.sc" horiz-adv-x="1060" 
d="M1024 1473l-225 -310h-297l-113 310h264l35 -99l72 99h264zM172 1051h473q42 0 78.5 -3t74.5 -9.5t68.5 -18t60.5 -29t50.5 -41t38.5 -55t25 -70.5t9.5 -88t-8.5 -108l-36 -205q-15 -101 -48 -175.5t-79 -122t-112 -76t-139 -39.5t-167 -11h-475zM655 434l33 184
q11 69 -14 99.5t-96 30.5h-121l-78 -445h108q79 0 117.5 30t50.5 101z" />
    <glyph glyph-name="dcroat.sc" horiz-adv-x="1062" 
d="M172 1051h475q42 0 78.5 -3t74.5 -9.5t68.5 -18t60.5 -29t50 -41t38 -55t25 -70.5t9 -88t-9 -108l-34 -205q-15 -101 -48 -175.5t-79 -122t-112 -76t-139 -39.5t-167 -11h-475l73 422h-67l37 213h67zM657 434l33 184q11 69 -14 99.5t-96 30.5h-121l-21 -113h117l-39 -213
h-115l-20 -119h108q78 0 117 30.5t51 100.5z" />
    <glyph glyph-name="e.sc" horiz-adv-x="862" 
d="M913 1051l-53 -303h-405l-21 -117h346l-32 -193h-347l-24 -135h405l-55 -303h-741l186 1051h741z" />
    <glyph glyph-name="eacute.sc" horiz-adv-x="862" 
d="M608 1473h328l-262 -310h-291zM727 0h-741l186 1051h741l-53 -303h-405l-21 -117h346l-32 -193h-347l-24 -135h405z" />
    <glyph glyph-name="ecaron.sc" horiz-adv-x="862" 
d="M915 1473l-225 -310h-297l-112 310h264l35 -99l71 99h264zM727 0h-741l186 1051h741l-53 -303h-405l-21 -117h346l-32 -193h-347l-24 -135h405z" />
    <glyph glyph-name="ecircumflex.sc" horiz-adv-x="862" 
d="M582 1171l-35 99l-72 -99h-266l225 312h297l115 -312h-264zM913 1051l-53 -303h-405l-21 -117h346l-32 -193h-347l-24 -135h405l-55 -303h-741l186 1051h741z" />
    <glyph glyph-name="edieresis.sc" horiz-adv-x="862" 
d="M385 1180q-129 0 -129 118q0 93 51 149t135 56q64 0 96.5 -30.5t32.5 -86.5q0 -94 -50.5 -150t-135.5 -56zM711 1180q-131 0 -131 118q0 93 51 149t135 56q127 0 127 -117q0 -93 -49.5 -149.5t-132.5 -56.5zM913 1051l-53 -303h-405l-21 -117h346l-32 -193h-347l-24 -135
h405l-55 -303h-741l186 1051h741z" />
    <glyph glyph-name="edotaccent.sc" horiz-adv-x="862" 
d="M549 1180q-131 0 -131 118q0 93 51 149t137 56q127 0 127 -117q0 -92 -50.5 -149t-133.5 -57zM913 1051l-53 -303h-405l-21 -117h346l-32 -193h-347l-24 -135h405l-55 -303h-741l186 1051h741z" />
    <glyph glyph-name="egrave.sc" horiz-adv-x="862" 
d="M600 1473l115 -310h-291l-152 310h328zM913 1051l-53 -303h-405l-21 -117h346l-32 -193h-347l-24 -135h405l-55 -303h-741l186 1051h741z" />
    <glyph glyph-name="emacron.sc" horiz-adv-x="862" 
d="M328 1442h532l-41 -232h-530zM913 1051l-53 -303h-405l-21 -117h346l-32 -193h-347l-24 -135h405l-55 -303h-741l186 1051h741z" />
    <glyph glyph-name="eogonek.sc" horiz-adv-x="862" 
d="M913 1051l-53 -303h-405l-21 -117h346l-32 -193h-347l-24 -135h405l-55 -303q-71 -45 -108 -88.5t-37 -77.5q0 -33 47 -33h47l-35 -204h-63q-122 0 -182 33t-60 114q0 149 137 256h-487l186 1051h741z" />
    <glyph glyph-name="f.sc" horiz-adv-x="851" 
d="M926 1053l-54 -303h-415l-25 -142h328l-47 -276h-330l-59 -332h-338l186 1053h754z" />
    <glyph glyph-name="g.sc" horiz-adv-x="1067" 
d="M1018 653h-346l10 54q9 30 -15.5 46.5t-80.5 16.5q-71 0 -111 -30.5t-53 -102.5l-39 -217q-23 -139 109 -139q122 0 141 84l10 57h-182l31 178h532l-106 -600h-261l-18 78q-95 -103 -281 -103q-185 0 -273.5 121t-53.5 320l39 219q40 237 178 339.5t391 102.5
q224 0 323.5 -98t63.5 -277z" />
    <glyph glyph-name="gbreve.sc" horiz-adv-x="1067" 
d="M653 1143q-278 0 -221 327h227q-14 -70 -8.5 -99.5t35.5 -29.5q33 0 47 26.5t27 102.5h227q-16 -98 -46.5 -164.5t-76 -101t-95.5 -48t-116 -13.5zM1018 653h-346l10 54q9 30 -15.5 46.5t-80.5 16.5q-71 0 -111 -30.5t-53 -102.5l-39 -217q-23 -139 109 -139
q122 0 141 84l10 57h-182l31 178h532l-106 -600h-261l-18 78q-95 -103 -281 -103q-185 0 -273.5 121t-53.5 320l39 219q40 237 178 339.5t391 102.5q224 0 323.5 -98t63.5 -277z" />
    <glyph glyph-name="uni0123.sc" horiz-adv-x="1067" 
d="M1018 653h-346l10 54q9 30 -15.5 46.5t-80.5 16.5q-71 0 -111 -30.5t-53 -102.5l-39 -217q-23 -139 109 -139q122 0 141 84l10 57h-182l31 178h532l-106 -600h-261l-18 78q-95 -103 -281 -103q-185 0 -273.5 121t-53.5 320l39 219q40 237 178 339.5t391 102.5
q224 0 323.5 -98t63.5 -277zM365 -410h-250l186 332h326z" />
    <glyph glyph-name="gdotaccent.sc" horiz-adv-x="1067" 
d="M659 1180q-131 0 -131 118q0 93 51.5 149t137.5 56q127 0 127 -117q0 -92 -51 -149t-134 -57zM1018 653h-346l10 54q9 30 -15.5 46.5t-80.5 16.5q-71 0 -111 -30.5t-53 -102.5l-39 -217q-23 -139 109 -139q122 0 141 84l10 57h-182l31 178h532l-106 -600h-261l-18 78
q-95 -103 -281 -103q-185 0 -273.5 121t-53.5 320l39 219q40 237 178 339.5t391 102.5q224 0 323.5 -98t63.5 -277z" />
    <glyph glyph-name="h.sc" horiz-adv-x="1038" 
d="M662 676l65 375h340l-186 -1051h-340l65 373h-215l-65 -373h-340l186 1051h340l-66 -375h216z" />
    <glyph glyph-name="hbar.sc" horiz-adv-x="1071" 
d="M1061 920h51l-47 -263h-51l-117 -657h-340l43 240h-215l-43 -240h-340l117 657h-51l45 263h53l22 131h340l-22 -131h215l22 131h340zM430 502h215l29 155h-215z" />
    <glyph glyph-name="i.sc" horiz-adv-x="481" 
d="M324 0h-338l186 1053h338z" />
    <glyph glyph-name="iacute.sc" horiz-adv-x="481" 
d="M492 1163h-291l225 310h328zM324 0h-338l186 1053h338z" />
    <glyph glyph-name="icircumflex.sc" horiz-adv-x="481" 
d="M399 1171l-34 99l-72 -99h-266l225 312h297l115 -312h-265zM324 0h-338l186 1053h338z" />
    <glyph glyph-name="idieresis.sc" horiz-adv-x="481" 
d="M201 1180q-129 0 -129 118q0 93 51 149t135 56q64 0 96.5 -30.5t32.5 -86.5q0 -94 -50.5 -150t-135.5 -56zM526 1180q-131 0 -131 118q0 92 51 148.5t136 56.5q127 0 127 -117q0 -93 -50 -149.5t-133 -56.5zM324 0h-338l186 1053h338z" />
    <glyph glyph-name="i.sc.loclTRK" horiz-adv-x="481" 
d="M365 1180q-132 0 -132 118q0 93 51.5 149t137.5 56q127 0 127 -117q0 -92 -50.5 -149t-133.5 -57zM324 0h-338l186 1053h338z" />
    <glyph glyph-name="igrave.sc" horiz-adv-x="481" 
d="M530 1163h-290l-152 310h328zM324 0h-338l186 1053h338z" />
    <glyph glyph-name="imacron.sc" horiz-adv-x="481" 
d="M635 1210h-531l39 232h533zM324 0h-338l186 1053h338z" />
    <glyph glyph-name="iogonek.sc" horiz-adv-x="481" 
d="M510 1053l-186 -1053q-146 -93 -146 -166q0 -33 47 -33h47l-34 -204h-64q-122 0 -182 33t-60 114q0 148 138 256h-84l186 1053h338z" />
    <glyph glyph-name="j.sc" horiz-adv-x="649" 
d="M115 0h-172l55 307h94q60 0 93.5 23.5t43.5 83.5l113 639h338l-121 -691q-33 -182 -142 -272t-302 -90z" />
    <glyph glyph-name="k.sc" horiz-adv-x="1050" 
d="M694 1051h426l-385 -418l205 -633h-379l-104 332l-95 -105l-40 -227h-336l186 1051h336l-57 -320z" />
    <glyph glyph-name="uni0137.sc" horiz-adv-x="1050" 
d="M694 1051h426l-385 -418l205 -633h-379l-104 332l-95 -105l-40 -227h-336l186 1051h336l-57 -320zM360 -410h-249l186 332h326z" />
    <glyph glyph-name="l.sc" horiz-adv-x="768" 
d="M510 1051l-133 -748h344l-55 -303h-680l186 1051h338z" />
    <glyph glyph-name="lacute.sc" horiz-adv-x="768" 
d="M446 1473h328l-262 -310h-291zM172 1051h338l-133 -748h344l-55 -303h-680z" />
    <glyph glyph-name="lcaron.sc" horiz-adv-x="768" 
d="M899 1087l-180 -342h-223l100 342h303zM172 1051h338l-133 -748h344l-55 -303h-680z" />
    <glyph glyph-name="uni013C.sc" horiz-adv-x="768" 
d="M510 1051l-133 -748h344l-55 -303h-680l186 1051h338zM197 -410h-250l186 332h326z" />
    <glyph glyph-name="lslash.sc" horiz-adv-x="776" 
d="M428 547l-45 -244h344l-53 -303h-682l76 428l-103 -35l45 262l105 35l63 361h338l-43 -242l145 49l-47 -262z" />
    <glyph glyph-name="m.sc" horiz-adv-x="1333" 
d="M688 623l238 428h436l-186 -1051h-322l82 465l-207 -352h-258l-82 344l-80 -457h-323l186 1051h430z" />
    <glyph glyph-name="n.sc" horiz-adv-x="1054" 
d="M684 592l80 459h317l-184 -1051h-360l-156 442l-78 -442h-317l186 1051h360z" />
    <glyph glyph-name="nacute.sc" horiz-adv-x="1054" 
d="M711 1473h327l-262 -310h-291zM684 592l80 459h317l-184 -1051h-360l-156 442l-78 -442h-317l186 1051h360z" />
    <glyph glyph-name="ncaron.sc" horiz-adv-x="1054" 
d="M1018 1473l-225 -310h-297l-113 310h264l35 -99l72 99h264zM684 592l80 459h317l-184 -1051h-360l-156 442l-78 -442h-317l186 1051h360z" />
    <glyph glyph-name="uni0146.sc" horiz-adv-x="1054" 
d="M684 592l80 459h317l-184 -1051h-360l-156 442l-78 -442h-317l186 1051h360zM354 -410h-250l187 332h325z" />
    <glyph glyph-name="eng.sc" horiz-adv-x="1054" 
d="M696 666l68 385h317l-178 -1006q-36 -198 -143.5 -293.5t-302.5 -95.5h-172l47 260h127q53 0 83.5 21.5t37.5 70.5l2 10l-199 441l-80 -459h-317l186 1051h352z" />
    <glyph glyph-name="ntilde.sc" horiz-adv-x="1054" 
d="M754 1194q-45 0 -106.5 31.5t-100.5 31.5q-38 0 -64 -10t-75 -39l38 224q77 51 152 51q45 0 104 -31t103 -31q65 0 145 52l-39 -226q-73 -53 -157 -53zM684 592l80 459h317l-184 -1051h-360l-156 442l-78 -442h-317l186 1051h360z" />
    <glyph glyph-name="o.sc" horiz-adv-x="1067" 
d="M444 -25q-240 0 -344.5 116t-64.5 341l37 211q40 229 178.5 330.5t388.5 103.5q243 0 347.5 -114.5t64.5 -335.5l-39 -221q-41 -228 -175 -329.5t-393 -101.5zM494 281q141 0 165 137l37 211q23 143 -112 143q-138 0 -162 -143l-37 -211q-12 -68 16.5 -102.5t92.5 -34.5z
" />
    <glyph glyph-name="oacute.sc" horiz-adv-x="1067" 
d="M782 1163h-290l225 310h327zM444 -25q-240 0 -344.5 116t-64.5 341l37 211q40 229 178.5 330.5t388.5 103.5q243 0 347.5 -114.5t64.5 -335.5l-39 -221q-41 -228 -175 -329.5t-393 -101.5zM494 281q141 0 165 137l37 211q23 143 -112 143q-138 0 -162 -143l-37 -211
q-12 -68 16.5 -102.5t92.5 -34.5z" />
    <glyph glyph-name="ocircumflex.sc" horiz-adv-x="1067" 
d="M690 1171l-35 99l-71 -99h-267l226 312h297l114 -312h-264zM639 1077q243 0 347.5 -114.5t64.5 -335.5l-39 -221q-41 -228 -175 -329.5t-393 -101.5q-240 0 -344.5 116t-64.5 341l37 211q40 229 178.5 330.5t388.5 103.5zM659 418l37 211q23 143 -112 143
q-138 0 -162 -143l-37 -211q-12 -68 16.5 -102.5t92.5 -34.5q141 0 165 137z" />
    <glyph glyph-name="odieresis.sc" horiz-adv-x="1067" 
d="M494 1180q-129 0 -129 118q0 93 51 149t135 56q64 0 96.5 -30.5t32.5 -86.5q0 -94 -50.5 -150t-135.5 -56zM819 1180q-131 0 -131 118q0 93 51 149t135 56q127 0 127 -117q0 -93 -49.5 -149.5t-132.5 -56.5zM444 -25q-240 0 -344.5 116t-64.5 341l37 211
q40 229 178.5 330.5t388.5 103.5q243 0 347.5 -114.5t64.5 -335.5l-39 -221q-41 -228 -175 -329.5t-393 -101.5zM494 281q141 0 165 137l37 211q23 143 -112 143q-138 0 -162 -143l-37 -211q-12 -68 16.5 -102.5t92.5 -34.5z" />
    <glyph glyph-name="ograve.sc" horiz-adv-x="1067" 
d="M823 1163h-291l-151 310h328zM444 -25q-240 0 -344.5 116t-64.5 341l37 211q40 229 178.5 330.5t388.5 103.5q243 0 347.5 -114.5t64.5 -335.5l-39 -221q-41 -228 -175 -329.5t-393 -101.5zM494 281q141 0 165 137l37 211q23 143 -112 143q-138 0 -162 -143l-37 -211
q-12 -68 16.5 -102.5t92.5 -34.5z" />
    <glyph glyph-name="ohungarumlaut.sc" horiz-adv-x="1067" 
d="M606 1163h-270l184 310h307zM928 1163h-271l232 310h305zM444 -25q-240 0 -344.5 116t-64.5 341l37 211q40 229 178.5 330.5t388.5 103.5q243 0 347.5 -114.5t64.5 -335.5l-39 -221q-41 -228 -175 -329.5t-393 -101.5zM494 281q141 0 165 137l37 211q23 143 -112 143
q-138 0 -162 -143l-37 -211q-12 -68 16.5 -102.5t92.5 -34.5z" />
    <glyph glyph-name="omacron.sc" horiz-adv-x="1067" 
d="M928 1210h-531l39 232h533zM444 -25q-240 0 -344.5 116t-64.5 341l37 211q40 229 178.5 330.5t388.5 103.5q243 0 347.5 -114.5t64.5 -335.5l-39 -221q-41 -228 -175 -329.5t-393 -101.5zM494 281q141 0 165 137l37 211q23 143 -112 143q-138 0 -162 -143l-37 -211
q-12 -68 16.5 -102.5t92.5 -34.5z" />
    <glyph glyph-name="oslash.sc" horiz-adv-x="1067" 
d="M1061 1028l-66 -76q93 -116 56 -325l-39 -221q-41 -228 -175 -329.5t-393 -101.5q-154 0 -245 45l-88 -102l-109 86l86 100q-90 117 -53 328l37 211q40 229 178.5 330.5t388.5 103.5q151 0 244 -43l71 84zM422 629l-29 -168l256 299q-27 12 -65 12q-138 0 -162 -143z
M494 281q141 0 165 137l31 178l-260 -303q27 -12 64 -12z" />
    <glyph glyph-name="otilde.sc" horiz-adv-x="1067" 
d="M760 1194q-45 0 -106.5 31.5t-100.5 31.5q-38 0 -64 -10t-75 -39l39 224q77 51 151 51q45 0 104 -31t103 -31q65 0 145 52l-38 -226q-73 -53 -158 -53zM444 -25q-240 0 -344.5 116t-64.5 341l37 211q40 229 178.5 330.5t388.5 103.5q243 0 347.5 -114.5t64.5 -335.5
l-39 -221q-41 -228 -175 -329.5t-393 -101.5zM494 281q141 0 165 137l37 211q23 143 -112 143q-138 0 -162 -143l-37 -211q-12 -68 16.5 -102.5t92.5 -34.5z" />
    <glyph glyph-name="oe.sc" horiz-adv-x="1433" 
d="M1485 1051l-53 -303h-361l-20 -117h301l-33 -191h-303l-25 -137h363l-54 -303h-851q-243 0 -347.5 110.5t-66.5 325.5l39 215q19 103 55.5 174.5t101 124t163.5 77t239 24.5h852zM508 305h145l80 440h-151q-75 0 -112.5 -28.5t-49.5 -91.5l-35 -197q-10 -61 21.5 -92
t101.5 -31z" />
    <glyph glyph-name="p.sc" horiz-adv-x="968" 
d="M172 1051h442q45 0 82 -3t74.5 -10t66 -19t55 -30.5t41.5 -43.5t27 -58t11 -74.5t-8 -93.5l-19 -109q-30 -178 -139.5 -248.5t-323.5 -70.5h-106l-51 -291h-338zM602 633l12 76q6 27 -6.5 38t-46.5 11h-104l-31 -174h92q38 0 57.5 9t26.5 40z" />
    <glyph glyph-name="thorn.sc" horiz-adv-x="968" 
d="M483 905h135q75 0 130 -10t98.5 -33.5t65.5 -62t30.5 -94.5t-6.5 -132l-18 -110q-31 -182 -136.5 -256t-300.5 -74h-133l-24 -133h-338l186 1051h338zM573 477l15 84q4 31 -10 41t-54 10h-92l-33 -188h93q26 0 40.5 2.5t27 15t13.5 35.5z" />
    <glyph glyph-name="q.sc" horiz-adv-x="1067" 
d="M639 1077q243 0 347.5 -114.5t64.5 -335.5l-39 -221q-31 -166 -108.5 -263.5t-213.5 -136.5l164 -137l-240 -213l-297 330q-349 60 -282 446l37 211q40 229 178.5 330.5t388.5 103.5zM659 418l37 211q23 143 -112 143q-138 0 -162 -143l-37 -211q-12 -68 16.5 -102.5
t92.5 -34.5q141 0 165 137z" />
    <glyph glyph-name="r.sc" horiz-adv-x="962" 
d="M172 1051h457q41 0 75 -2.5t69 -9.5t62 -18t52.5 -28t40.5 -40.5t26.5 -55t10.5 -71.5t-7 -89l-16 -90q-33 -189 -190 -266l120 -381h-360l-80 328h-51l-57 -328h-338zM545 756h-88l-31 -178h82q37 0 54.5 11t21.5 38l16 82q4 27 -10 37t-45 10z" />
    <glyph glyph-name="racute.sc" horiz-adv-x="962" 
d="M666 1468h327l-262 -309h-291zM172 1051h457q41 0 75 -2.5t69 -9.5t62 -18t52.5 -28t40.5 -40.5t26.5 -55t10.5 -71.5t-7 -89l-16 -90q-33 -189 -190 -266l120 -381h-360l-80 328h-51l-57 -328h-338zM545 756h-88l-31 -178h82q37 0 54.5 11t21.5 38l16 82q4 27 -10 37
t-45 10z" />
    <glyph glyph-name="rcaron.sc" horiz-adv-x="962" 
d="M973 1468l-225 -309h-297l-113 309h264l35 -98l72 98h264zM172 1051h457q41 0 75 -2.5t69 -9.5t62 -18t52.5 -28t40.5 -40.5t26.5 -55t10.5 -71.5t-7 -89l-16 -90q-33 -189 -190 -266l120 -381h-360l-80 328h-51l-57 -328h-338zM545 756h-88l-31 -178h82q37 0 54.5 11
t21.5 38l16 82q4 27 -10 37t-45 10z" />
    <glyph glyph-name="uni0157.sc" horiz-adv-x="962" 
d="M172 1051h457q41 0 75 -2.5t69 -9.5t62 -18t52.5 -28t40.5 -40.5t26.5 -55t10.5 -71.5t-7 -89l-16 -90q-33 -189 -190 -266l120 -381h-360l-80 328h-51l-57 -328h-338zM545 756h-88l-31 -178h82q37 0 54.5 11t21.5 38l16 82q4 27 -10 37t-45 10zM324 -410h-250l186 332
h326z" />
    <glyph glyph-name="s.sc" horiz-adv-x="905" 
d="M365 -25q-69 0 -126.5 10t-98 28.5t-72 44t-49 55.5t-28 63.5t-9.5 69t6 71.5l12 62h322l-11 -57q-6 -29 18.5 -44.5t82.5 -15.5q97 0 106 49l8 31q9 48 -34 59l-154 35q-308 60 -268 332l6 33q21 140 124 207t316 67q127 0 215.5 -26t133 -73.5t58.5 -106t1 -130.5
l-11 -53h-331l8 51q5 25 -15.5 38t-74.5 13q-53 0 -70.5 -7t-23.5 -33l-5 -17q-6 -27 11.5 -42.5t62.5 -24.5l168 -37q55 -12 96 -31.5t75.5 -54.5t47.5 -91.5t2 -132.5l-6 -38q-26 -158 -148 -231t-345 -73z" />
    <glyph glyph-name="sacute.sc" horiz-adv-x="905" 
d="M700 1163h-290l225 310h328zM365 -25q-69 0 -126.5 10t-98 28.5t-72 44t-49 55.5t-28 63.5t-9.5 69t6 71.5l12 62h322l-11 -57q-6 -29 18.5 -44.5t82.5 -15.5q97 0 106 49l8 31q9 48 -34 59l-154 35q-308 60 -268 332l6 33q21 140 124 207t316 67q127 0 215.5 -26
t133 -73.5t58.5 -106t1 -130.5l-11 -53h-331l8 51q5 25 -15.5 38t-74.5 13q-53 0 -70.5 -7t-23.5 -33l-5 -17q-6 -27 11.5 -42.5t62.5 -24.5l168 -37q55 -12 96 -31.5t75.5 -54.5t47.5 -91.5t2 -132.5l-6 -38q-26 -158 -148 -231t-345 -73z" />
    <glyph glyph-name="scaron.sc" horiz-adv-x="905" 
d="M942 1473l-225 -310h-297l-113 310h264l35 -99l72 99h264zM516 1075q127 0 215.5 -26t133 -73.5t58.5 -106t1 -130.5l-11 -53h-331l8 51q5 25 -15.5 38t-74.5 13q-53 0 -70.5 -7t-23.5 -33l-5 -17q-6 -27 11.5 -42.5t62.5 -24.5l168 -37q55 -12 96 -31.5t75.5 -54.5
t47.5 -91.5t2 -132.5l-6 -38q-26 -158 -148 -231t-345 -73q-69 0 -126.5 10t-98 28.5t-72 44t-49 55.5t-28 63.5t-9.5 69t6 71.5l12 62h322l-11 -57q-6 -29 18.5 -44.5t82.5 -15.5q97 0 106 49l8 31q9 48 -34 59l-154 35q-308 60 -268 332l6 33q21 140 124 207t316 67z" />
    <glyph glyph-name="scedilla.sc" horiz-adv-x="905" 
d="M516 1075q127 0 215.5 -26t133 -73.5t58.5 -106t1 -130.5l-11 -53h-331l8 51q5 25 -15.5 38t-74.5 13q-53 0 -70.5 -7t-23.5 -33l-5 -17q-6 -27 11.5 -42.5t62.5 -24.5l168 -37q55 -12 96 -31.5t75.5 -54.5t47.5 -91.5t2 -132.5l-6 -38q-23 -141 -122.5 -214t-278.5 -85
l-27 -56q81 -6 121.5 -41.5t40.5 -109.5q0 -215 -299 -215h-168l31 180h98q76 0 76 31q0 24 -45 24h-90l20 119l33 72q-83 14 -141.5 48.5t-85 79t-36.5 98.5t3 107l12 62h322l-11 -57q-6 -29 18.5 -44.5t82.5 -15.5q97 0 106 49l8 31q9 48 -34 59l-154 35q-308 60 -268 332
l6 33q21 140 124 207t316 67z" />
    <glyph glyph-name="uni0219.sc" horiz-adv-x="905" 
d="M365 -25q-69 0 -126.5 10t-98 28.5t-72 44t-49 55.5t-28 63.5t-9.5 69t6 71.5l12 62h322l-11 -57q-6 -29 18.5 -44.5t82.5 -15.5q97 0 106 49l8 31q9 48 -34 59l-154 35q-308 60 -268 332l6 33q21 140 124 207t316 67q127 0 215.5 -26t133 -73.5t58.5 -106t1 -130.5
l-11 -53h-331l8 51q5 25 -15.5 38t-74.5 13q-53 0 -70.5 -7t-23.5 -33l-5 -17q-6 -27 11.5 -42.5t62.5 -24.5l168 -37q55 -12 96 -31.5t75.5 -54.5t47.5 -91.5t2 -132.5l-6 -38q-26 -158 -148 -231t-345 -73zM31 -408l186 332h326l-262 -332h-250z" />
    <glyph glyph-name="germandbls.sc" horiz-adv-x="1216" 
d="M1092 776l-185 -176q122 -7 182 -60t41 -178l-16 -100q-11 -69 -39.5 -118.5t-64 -76.5t-86.5 -43t-93.5 -20t-99.5 -4h-297l49 281h232q68 0 73 41l11 63q1 16 -9 25t-21 10.5t-28 1.5h-221l31 153l186 173h-104q-70 0 -111 -31t-55 -107l-109 -610h-340l111 625
q17 103 51 178t79 122.5t110.5 75.5t137.5 39t167 11h467z" />
    <glyph glyph-name="t.sc" horiz-adv-x="921" 
d="M143 1053h836l-53 -305h-250l-131 -748h-338l131 748h-250z" />
    <glyph glyph-name="tbar.sc" horiz-adv-x="923" 
d="M979 1053l-53 -305h-250l-43 -252h182l-49 -234h-174l-47 -262h-338l47 262h-182l49 234h174l43 252h-250l55 305h836z" />
    <glyph glyph-name="tcaron.sc" horiz-adv-x="921" 
d="M952 1473l-225 -310h-297l-113 310h265l34 -99l72 99h264zM143 1053h836l-53 -305h-250l-131 -748h-338l131 748h-250z" />
    <glyph glyph-name="uni0163.sc" horiz-adv-x="921" 
d="M676 748l-131 -748h-66l-39 -78q81 -6 121.5 -41.5t40.5 -109.5q0 -215 -299 -215h-168l31 180h98q76 0 76 31q0 24 -45 24h-90l20 119l41 90h-59l131 748h-250l55 305h836l-53 -305h-250z" />
    <glyph glyph-name="uni021B.sc" horiz-adv-x="921" 
d="M143 1053h836l-53 -305h-250l-131 -748h-338l131 748h-250zM289 -410h-250l186 332h326z" />
    <glyph glyph-name="u.sc" horiz-adv-x="1058" 
d="M440 -23q-475 0 -391 478l107 598h352l-109 -617q-14 -81 7 -117t90 -36q67 0 101 36.5t48 116.5l109 617h352l-109 -613q-22 -124 -56 -205t-96.5 -142t-161.5 -88.5t-243 -27.5z" />
    <glyph glyph-name="uacute.sc" horiz-adv-x="1058" 
d="M780 1163h-291l226 310h327zM440 -23q-475 0 -391 478l107 598h352l-109 -617q-14 -81 7 -117t90 -36q67 0 101 36.5t48 116.5l109 617h352l-109 -613q-22 -124 -56 -205t-96.5 -142t-161.5 -88.5t-243 -27.5z" />
    <glyph glyph-name="ucircumflex.sc" horiz-adv-x="1058" 
d="M688 1171l-35 99l-71 -99h-267l226 312h297l114 -312h-264zM645 436l109 617h352l-109 -613q-22 -124 -56 -205t-96.5 -142t-161.5 -88.5t-243 -27.5q-475 0 -391 478l107 598h352l-109 -617q-14 -81 7 -117t90 -36q67 0 101 36.5t48 116.5z" />
    <glyph glyph-name="udieresis.sc" horiz-adv-x="1058" 
d="M492 1180q-130 0 -130 118q0 92 51 148.5t136 56.5q64 0 96.5 -30.5t32.5 -86.5q0 -94 -50.5 -150t-135.5 -56zM817 1180q-131 0 -131 118q0 93 51 149t135 56q127 0 127 -117q0 -93 -49.5 -149.5t-132.5 -56.5zM440 -23q-475 0 -391 478l107 598h352l-109 -617
q-14 -81 7 -117t90 -36q67 0 101 36.5t48 116.5l109 617h352l-109 -613q-22 -124 -56 -205t-96.5 -142t-161.5 -88.5t-243 -27.5z" />
    <glyph glyph-name="ugrave.sc" horiz-adv-x="1058" 
d="M821 1163h-291l-151 310h328zM440 -23q-475 0 -391 478l107 598h352l-109 -617q-14 -81 7 -117t90 -36q67 0 101 36.5t48 116.5l109 617h352l-109 -613q-22 -124 -56 -205t-96.5 -142t-161.5 -88.5t-243 -27.5z" />
    <glyph glyph-name="uhungarumlaut.sc" horiz-adv-x="1058" 
d="M604 1163h-270l184 310h307zM926 1163h-271l232 310h305zM440 -23q-475 0 -391 478l107 598h352l-109 -617q-14 -81 7 -117t90 -36q67 0 101 36.5t48 116.5l109 617h352l-109 -613q-22 -124 -56 -205t-96.5 -142t-161.5 -88.5t-243 -27.5z" />
    <glyph glyph-name="umacron.sc" horiz-adv-x="1058" 
d="M926 1210h-531l39 232h533zM440 -23q-475 0 -391 478l107 598h352l-109 -617q-14 -81 7 -117t90 -36q67 0 101 36.5t48 116.5l109 617h352l-109 -613q-22 -124 -56 -205t-96.5 -142t-161.5 -88.5t-243 -27.5z" />
    <glyph glyph-name="uogonek.sc" horiz-adv-x="1058" 
d="M645 436l109 617h352l-109 -613q-36 -202 -115 -307t-249 -139q-127 -86 -127 -154q0 -33 47 -33h47l-35 -204h-63q-122 0 -182 33t-60 114q0 131 107 232q-395 35 -318 473l107 598h352l-109 -617q-14 -81 7 -117t90 -36q67 0 101 36.5t48 116.5z" />
    <glyph glyph-name="uring.sc" horiz-adv-x="1058" 
d="M647 1126q-205 0 -205 166q0 106 71.5 169t203.5 63q203 0 203 -160q0 -108 -73.5 -173t-199.5 -65zM672 1270q24 0 39.5 23t15.5 55t-35 32q-24 0 -40.5 -23t-16.5 -54q0 -33 37 -33zM440 -23q-475 0 -391 478l107 598h352l-109 -617q-14 -81 7 -117t90 -36
q67 0 101 36.5t48 116.5l109 617h352l-109 -613q-22 -124 -56 -205t-96.5 -142t-161.5 -88.5t-243 -27.5z" />
    <glyph glyph-name="v.sc" horiz-adv-x="1062" 
d="M508 432l270 619h383l-538 -1051h-353l-168 1051h349z" />
    <glyph glyph-name="w.sc" horiz-adv-x="1628" 
d="M1104 508l231 543h389l-532 -1053h-328l-69 438l-205 -438h-328l-160 1053h359l41 -588l243 588h297z" />
    <glyph glyph-name="wacute.sc" horiz-adv-x="1628" 
d="M999 1473h328l-262 -310h-291zM1104 508l231 543h389l-532 -1053h-328l-69 438l-205 -438h-328l-160 1053h359l41 -588l243 588h297z" />
    <glyph glyph-name="wcircumflex.sc" horiz-adv-x="1628" 
d="M973 1171l-35 99l-72 -99h-266l225 312h297l115 -312h-264zM1104 508l231 543h389l-532 -1053h-328l-69 438l-205 -438h-328l-160 1053h359l41 -588l243 588h297z" />
    <glyph glyph-name="wdieresis.sc" horiz-adv-x="1628" 
d="M774 1180q-129 0 -129 118q0 93 50.5 149t135.5 56q64 0 97 -30.5t33 -86.5q0 -94 -51 -150t-136 -56zM1100 1180q-131 0 -131 118q0 93 50.5 149t135.5 56q127 0 127 -117q0 -93 -49.5 -149.5t-132.5 -56.5zM1104 508l231 543h389l-532 -1053h-328l-69 438l-205 -438
h-328l-160 1053h359l41 -588l243 588h297z" />
    <glyph glyph-name="wgrave.sc" horiz-adv-x="1628" 
d="M989 1473l115 -310h-291l-151 310h327zM1104 508l231 543h389l-532 -1053h-328l-69 438l-205 -438h-328l-160 1053h359l41 -588l243 588h297z" />
    <glyph glyph-name="x.sc" horiz-adv-x="999" 
d="M702 1053h383l-360 -525l184 -528h-362l-74 281l-172 -281h-383l375 532l-180 521h366l62 -275z" />
    <glyph glyph-name="y.sc" horiz-adv-x="1003" 
d="M709 1051h383l-443 -693l-63 -356h-340l61 346l-196 703h356l68 -334z" />
    <glyph glyph-name="yacute.sc" horiz-adv-x="1003" 
d="M686 1473h328l-262 -310h-291zM709 1051h383l-443 -693l-63 -356h-340l61 346l-196 703h356l68 -334z" />
    <glyph glyph-name="ycircumflex.sc" horiz-adv-x="1003" 
d="M662 1171l-35 99l-72 -99h-266l225 312h297l115 -312h-264zM709 1051h383l-443 -693l-63 -356h-340l61 346l-196 703h356l68 -334z" />
    <glyph glyph-name="ydieresis.sc" horiz-adv-x="1003" 
d="M463 1180q-129 0 -129 118q0 93 51 149t135 56q64 0 96.5 -30.5t32.5 -86.5q0 -94 -50.5 -150t-135.5 -56zM788 1180q-131 0 -131 118q0 92 51 148.5t136 56.5q127 0 127 -117q0 -93 -50 -149.5t-133 -56.5zM709 1051h383l-443 -693l-63 -356h-340l61 346l-196 703h356
l68 -334z" />
    <glyph glyph-name="ygrave.sc" horiz-adv-x="1003" 
d="M678 1473l115 -310h-291l-152 310h328zM709 1051h383l-443 -693l-63 -356h-340l61 346l-196 703h356l68 -334z" />
    <glyph glyph-name="z.sc" horiz-adv-x="929" 
d="M150 1051h792l-49 -271l-420 -475h383l-53 -305h-815l51 285l418 463h-363z" />
    <glyph glyph-name="zacute.sc" horiz-adv-x="929" 
d="M651 1473h328l-262 -310h-291zM457 748h-363l56 303h792l-49 -271l-420 -475h383l-53 -305h-815l51 285z" />
    <glyph glyph-name="zcaron.sc" horiz-adv-x="929" 
d="M958 1473l-225 -310h-297l-112 310h264l35 -99l71 99h264zM457 748h-363l56 303h792l-49 -271l-420 -475h383l-53 -305h-815l51 285z" />
    <glyph glyph-name="zdotaccent.sc" horiz-adv-x="929" 
d="M590 1180q-131 0 -131 118q0 93 51 149t137 56q127 0 127 -117q0 -92 -50.5 -149t-133.5 -57zM150 1051h792l-49 -271l-420 -475h383l-53 -305h-815l51 285l418 463h-363z" />
    <glyph glyph-name="zero.osf" horiz-adv-x="1073" 
d="M446 -25q-222 -2 -319 111t-57 326l39 227q29 159 98 256t174 139t260 43q222 0 320.5 -114t60.5 -324l-41 -227q-43 -232 -173 -334.5t-362 -102.5zM500 266q60 0 92 37.5t45 108.5l39 227q13 70 -5.5 107.5t-80.5 37.5q-59 0 -91 -35t-46 -110l-39 -227
q-29 -146 86 -146z" />
    <glyph glyph-name="one.osf" horiz-adv-x="598" 
d="M76 985l278 66h254l-186 -1051h-338l133 752l-123 -33z" />
    <glyph glyph-name="two.osf" horiz-adv-x="921" 
d="M539 1077q191 0 280.5 -84t67.5 -235l-6 -35q-21 -147 -113 -243t-291 -191l-4 -2h379l-51 -287h-813l53 295l307 182q79 51 120 92t52 97l10 53q11 67 -41 67t-65 -77l-14 -80l-338 4l10 67q25 182 141.5 279.5t315.5 97.5z" />
    <glyph glyph-name="three.osf" horiz-adv-x="888" 
d="M535 1075q400 0 348 -348l-13 -82q-15 -95 -70.5 -164.5t-142.5 -105.5q156 -74 131 -281l-14 -74q-14 -92 -56.5 -159.5t-106 -105.5t-137 -56t-159.5 -18q-88 0 -159 21.5t-117 58.5t-75.5 88t-34 110.5t7.5 124.5l14 86h342l-19 -100q-13 -82 70 -82q84 0 92 73l19 93
q6 45 -18.5 65.5t-82.5 20.5h-141l47 262h129q110 0 127 90l19 108q12 70 -50 70q-70 0 -82 -76l-14 -84h-334l13 70q26 186 141 290.5t326 104.5z" />
    <glyph glyph-name="four.osf" horiz-adv-x="917" 
d="M537 1051h360l-139 -791h104l-47 -260h-102l-47 -262h-320l47 262h-467l43 244zM506 647l-262 -387h194z" />
    <glyph glyph-name="five.osf" horiz-adv-x="927" 
d="M918 1051l-54 -314h-442l-43 -235q94 65 219 65q149 0 216 -87.5t40 -268.5l-23 -127q-32 -219 -156 -311t-341 -92q-106 0 -186.5 31t-125 84t-61.5 120.5t-4 142.5l14 78h346l-16 -94q-4 -36 15 -54t61 -18q85 0 102 97l25 147q17 94 -68 94q-39 0 -65.5 -22t-34.5 -54
l-4 -26h-318l148 844h756z" />
    <glyph glyph-name="six.osf" horiz-adv-x="1019" 
d="M672 1380q217 1 313.5 -106t71.5 -303l-17 -90h-350l19 102q16 107 -86 107q-62 0 -92 -37.5t-42 -106.5l-34 -205q94 70 231 70q158 0 238.5 -82.5t52.5 -247.5l-21 -116q-35 -205 -162.5 -297.5t-357.5 -92.5q-233 -1 -326 125.5t-51 366.5l74 420q42 246 179 369.5
t360 123.5zM547 600q-109 0 -127 -104l-23 -125q-17 -107 88 -107q99 0 119 101l23 131q18 104 -80 104z" />
    <glyph glyph-name="seven.osf" horiz-adv-x="849" 
d="M70 735l55 316h778l-49 -273l-451 -1059h-372l471 1016h-432z" />
    <glyph glyph-name="eight.osf" horiz-adv-x="1017" 
d="M668 1380q208 0 298.5 -83t65.5 -253l-12 -71q-30 -205 -199 -285q157 -74 127 -274l-16 -92q-51 -347 -512 -347q-221 0 -318.5 88t-72.5 259l16 92q14 95 72 168.5t159 111.5q-130 84 -102 279l12 71q49 336 482 336zM541 1006l-19 -109q-12 -82 47 -82t70 78l20 115
q15 82 -45 82q-31 0 -48.5 -20t-24.5 -64zM567 358l21 117q9 46 -8.5 70t-53.5 24q-83 0 -98 -94l-20 -117q-8 -45 8.5 -69.5t54.5 -24.5q80 0 96 94z" />
    <glyph glyph-name="nine.osf" horiz-adv-x="1091" 
d="M612 1077q232 0 329.5 -124t55.5 -355l-82 -467q-41 -227 -169.5 -330.5t-358.5 -103.5q-204 0 -308.5 109t-70.5 284l12 72h338l-16 -88q-15 -86 84 -86q121 0 145 153l27 150q-82 -51 -219 -51q-156 0 -232.5 85.5t-46.5 260.5l19 116q31 178 160 275.5t333 99.5z
M465 688l-23 -131q-11 -51 10 -78.5t70 -27.5q99 0 117 98l25 131q9 51 -12 78.5t-70 27.5q-97 0 -117 -98z" />
    <glyph glyph-name="zero.dnom" horiz-adv-x="733" 
d="M276 -16q-153 0 -224 71t-46 199l29 170q25 129 119 199.5t249 70.5t225.5 -71t47.5 -199l-29 -170q-25 -129 -120 -199.5t-251 -70.5zM313 188q40 0 68 20t35 58l24 144q11 79 -73 79q-39 0 -67 -20t-34 -59l-24 -144q-7 -38 13.5 -58t57.5 -20z" />
    <glyph glyph-name="one.dnom" horiz-adv-x="417" 
d="M12 641l185 39h174l-121 -680h-225l84 483l-82 -18z" />
    <glyph glyph-name="two.dnom" horiz-adv-x="645" 
d="M354 694q148 0 205 -57t39 -160l-4 -20q-21 -136 -201 -238l-28 -14h213l-35 -205h-576l35 186l244 140q48 32 71.5 55t28.5 55l4 23q3 18 -5.5 27.5t-33.5 9.5q-61 0 -61 -58l-4 -30h-236l4 28q60 258 340 258z" />
    <glyph glyph-name="three.dnom" horiz-adv-x="641" 
d="M367 694q142 0 199.5 -50t39.5 -138l-4 -19q-9 -48 -41.5 -86t-87.5 -59q101 -42 86 -139l-4 -25q-29 -192 -328 -192q-156 0 -218 63.5t-42 167.5l4 27h238l-4 -25q-4 -21 9 -30t46 -9t46.5 6.5t17.5 24.5l4 25q4 18 -10.5 25t-49.5 7h-108l26 140h101q59 0 67 32l4 25
q3 17 -7 25t-32 8q-53 0 -59 -39l-6 -25h-223l4 29q24 118 102 174.5t230 56.5z" />
    <glyph glyph-name="four.dnom" horiz-adv-x="622" 
d="M340 680h233l-73 -422h71l-28 -164h-72l-16 -94h-209l16 94h-319l26 158zM328 463l-178 -205h141z" />
    <glyph glyph-name="five.dnom" horiz-adv-x="618" 
d="M391 424q95 0 139 -45t31 -135l-8 -49q-36 -209 -324 -209q-149 0 -215.5 63t-42.5 166l4 23h228l-4 -25q0 -33 51 -33q57 0 67 37l11 51q3 17 -10.5 26t-41.5 9q-57 0 -65 -31l-2 -14h-211l74 422h508l-35 -199h-301l-17 -98q55 41 164 41z" />
    <glyph glyph-name="six.dnom" horiz-adv-x="712" 
d="M389 694q83 0 141 -19t86.5 -52t38 -72.5t2.5 -85.5l-6 -33h-241l6 29q3 18 -9 27.5t-47 9.5q-46 0 -64.5 -18t-25.5 -54l-10 -53q58 41 162 41q122 0 172.5 -47t32.5 -134l-9 -40q-20 -109 -105 -159t-245 -50q-153 0 -218.5 78.5t-41.5 209.5l29 160q24 125 113 193.5
t239 68.5zM385 217l4 29q5 21 -9 31t-58 10t-60.5 -8t-21.5 -29l-7 -31q-3 -20 13 -29.5t55 -9.5q41 0 60.5 8.5t23.5 28.5z" />
    <glyph glyph-name="seven.dnom" horiz-adv-x="540" 
d="M18 477l35 203h502l-31 -174l-284 -506h-254l297 477h-265z" />
    <glyph glyph-name="eight.dnom" horiz-adv-x="630" 
d="M352 694q147 0 210.5 -47.5t47.5 -130.5l-4 -24q-19 -99 -114 -144q96 -45 75 -151l-4 -31q-20 -95 -99.5 -137.5t-238.5 -42.5q-158 0 -218.5 49t-47.5 137l4 33q18 106 125 145q-75 48 -59 142l4 26q26 176 319 176zM260 469l-6 -27q-3 -19 8 -26.5t39 -7.5q48 0 57 30
l7 29q4 20 -7.5 27.5t-40.5 7.5q-51 0 -57 -33zM330 215l4 27q2 18 -9.5 24t-48.5 6q-35 0 -49.5 -5.5t-17.5 -22.5l-6 -31q-3 -18 9.5 -26.5t47.5 -8.5q37 0 52.5 9t17.5 28z" />
    <glyph glyph-name="nine.dnom" horiz-adv-x="677" 
d="M358 692q151 0 218 -70t42 -206l-28 -162q-46 -270 -361 -270q-136 0 -202.5 66t-42.5 165l8 33h229l-6 -25q-3 -19 8.5 -29t44.5 -10q48 0 65.5 17t22.5 51l11 51q-58 -37 -162 -37q-96 0 -150 45t-43 135l8 46q26 200 338 200zM254 459l-4 -27q-3 -33 63 -33
q69 0 74 31l4 27q3 18 -13.5 25t-49.5 7q-69 0 -74 -30z" />
    <glyph glyph-name="zero.numr" horiz-adv-x="733" 
d="M395 657q-153 0 -224 71.5t-46 199.5l29 170q25 129 119 199.5t249 70.5q154 0 225 -71t48 -199l-29 -170q-25 -129 -120 -200t-251 -71zM432 862q40 0 68 20t35 58l24 143q6 40 -14 60t-60 20q-39 0 -66.5 -20.5t-33.5 -59.5l-25 -143q-7 -38 13.5 -58t58.5 -20z" />
    <glyph glyph-name="one.numr" horiz-adv-x="417" 
d="M131 1313l184 39h174l-120 -680h-226l84 483l-82 -18z" />
    <glyph glyph-name="two.numr" horiz-adv-x="645" 
d="M473 1370q148 0 205 -57t39 -160l-4 -20q-21 -136 -201 -238l-29 -14h213l-34 -205h-576l35 186l244 139q47 31 71 55t29 56l4 23q3 18 -5.5 27t-33.5 9q-61 0 -61 -57l-4 -31h-236l4 29q60 258 340 258z" />
    <glyph glyph-name="three.numr" horiz-adv-x="641" 
d="M485 1370q142 0 200 -50.5t40 -137.5l-4 -19q-9 -48 -41.5 -86t-87.5 -59q101 -42 86 -139l-4 -25q-29 -192 -328 -192q-156 0 -218 63.5t-42 167.5l4 27h238l-4 -25q-4 -21 9 -30t46 -9t46 6t17 25l4 24q4 18 -10 25.5t-49 7.5h-108l26 139h101q59 0 67 33l4 25
q3 17 -7 25t-32 8q-53 0 -59 -39l-6 -25h-223l4 29q24 118 101.5 174.5t229.5 56.5z" />
    <glyph glyph-name="four.numr" horiz-adv-x="622" 
d="M459 1352h233l-74 -422h72l-28 -164h-72l-17 -94h-208l16 94h-320l27 158zM446 1135l-178 -205h142z" />
    <glyph glyph-name="five.numr" horiz-adv-x="618" 
d="M510 1096q95 0 139 -45.5t31 -135.5l-8 -49q-36 -209 -324 -209q-149 0 -215.5 63.5t-42.5 166.5l4 22h228l-5 -24q0 -33 52 -33q57 0 67 37l10 51q6 35 -51 35t-65 -31l-2 -14h-211l73 422h508l-34 -199h-302l-16 -98q55 41 164 41z" />
    <glyph glyph-name="six.numr" horiz-adv-x="712" 
d="M508 1368q83 0 141 -19t86.5 -52t38 -72.5t2.5 -85.5l-6 -33h-242l7 29q3 18 -9 27t-47 9q-46 0 -64.5 -18t-25.5 -53l-10 -53q57 40 162 40q122 0 172 -46.5t32 -133.5l-8 -41q-20 -109 -105 -159t-245 -50q-153 0 -218.5 79t-41.5 210l29 160q24 125 113 193.5
t239 68.5zM504 891l4 29q5 21 -9.5 31t-58.5 10t-60.5 -8t-21.5 -29l-6 -31q-3 -20 13 -29.5t55 -9.5q41 0 60.5 8.5t23.5 28.5z" />
    <glyph glyph-name="seven.numr" horiz-adv-x="540" 
d="M137 1149l35 203h502l-31 -174l-285 -506h-254l297 477h-264z" />
    <glyph glyph-name="eight.numr" horiz-adv-x="630" 
d="M471 1368q147 0 210.5 -47.5t47.5 -130.5l-4 -25q-19 -98 -115 -143q97 -46 76 -152l-4 -30q-20 -96 -99.5 -138.5t-238.5 -42.5q-158 0 -218.5 49.5t-47.5 137.5l4 33q18 106 125 145q-76 49 -60 141l5 27q26 176 319 176zM379 1143l-6 -27q-3 -20 8.5 -27.5t38.5 -7.5
q48 0 57 31l6 29q4 20 -7 27.5t-40 7.5q-51 0 -57 -33zM449 889l4 26q2 18 -9.5 24.5t-48.5 6.5q-35 0 -49.5 -5.5t-17.5 -22.5l-6 -31q-3 -18 9.5 -26.5t47.5 -8.5q37 0 52.5 9t17.5 28z" />
    <glyph glyph-name="nine.numr" horiz-adv-x="677" 
d="M477 1364q151 0 218 -70.5t42 -206.5l-28 -161q-46 -271 -361 -271q-136 0 -203 66.5t-43 165.5l9 33h229l-6 -25q-3 -19 8.5 -29t44.5 -10q48 0 65.5 17t22.5 51l10 51q-58 -37 -161 -37q-96 0 -150 45t-43 135l8 45q26 201 338 201zM373 1130l-4 -26q-3 -33 63 -33
q69 0 74 31l4 26q3 18 -14 25.5t-50 7.5q-68 0 -73 -31z" />
    <glyph glyph-name="zero.sc" horiz-adv-x="1073" 
d="M444 -25q-222 -2 -319 110t-57 327l38 227q40 210 176.5 323.5t356.5 114.5q222 0 320.5 -114t60.5 -324l-41 -227q-40 -215 -176 -326t-359 -111zM498 266q60 0 92 37.5t45 108.5l39 227q13 71 -5 108t-81 37q-58 0 -90.5 -35.5t-46.5 -109.5l-39 -227q-29 -146 86 -146
z" />
    <glyph glyph-name="one.sc" horiz-adv-x="651" 
d="M98 985l279 66h254l-187 -1051h-338l134 756l-129 -33z" />
    <glyph glyph-name="two.sc" horiz-adv-x="946" 
d="M573 1077q185 0 265.5 -83t58.5 -236l-6 -35q-21 -149 -123 -247t-309 -179l-21 -10h424l-51 -287h-813l57 313l295 164q83 43 126.5 88.5t55.5 106.5l11 51q14 63 -39 63q-29 0 -49 -20.5t-21 -56.5l-12 -76h-340l10 67q25 178 153.5 277.5t327.5 99.5z" />
    <glyph glyph-name="three.sc" horiz-adv-x="956" 
d="M602 1075q192 0 272 -75t62 -201l-6 -35q-12 -84 -64 -144.5t-139 -91.5q77 -30 110.5 -88.5t24.5 -134.5l-6 -41q-21 -141 -131.5 -215t-312.5 -74q-215 0 -305.5 90.5t-69.5 266.5l8 53h340l-10 -61q-6 -29 11 -44.5t54 -15.5q63 0 72 53l10 56q6 34 -13.5 49.5
t-70.5 15.5h-121l29 172h121q46 0 69.5 15.5t30.5 52.5l11 55q12 53 -48 53q-26 0 -45.5 -17t-25.5 -48l-10 -59h-340l8 51q23 174 149 268t336 94z" />
    <glyph glyph-name="four.sc" horiz-adv-x="964" 
d="M510 1051h401l-114 -660h98l-47 -254h-96l-25 -137h-338l25 137h-422l45 254zM518 733l-239 -342h178z" />
    <glyph glyph-name="five.sc" horiz-adv-x="972" 
d="M618 659q159 0 230.5 -77.5t44.5 -208.5l-16 -86q-32 -149 -146 -230.5t-311 -81.5q-220 0 -310.5 90t-70.5 248l6 43h340l-8 -49q-4 -23 12 -35t47 -12q70 0 82 59l17 97q6 29 -9.5 42t-46.5 13q-63 0 -78 -43l-8 -31h-311l115 654h725l-52 -289h-432l-24 -144
q77 41 204 41z" />
    <glyph glyph-name="six.sc" horiz-adv-x="1042" 
d="M627 1077q93 0 164 -18.5t113.5 -51t68.5 -77.5t30 -99t-2 -114l-8 -47h-354l10 57q3 28 -12 43.5t-62 15.5q-54 0 -80 -32.5t-36 -91.5l-17 -91q90 54 226 54q162 0 233 -69.5t41 -211.5l-10 -63q-64 -306 -492 -306q-214 0 -313.5 106t-65.5 302l45 258
q37 213 169 324.5t352 111.5zM590 315l14 76q7 33 -12 46.5t-68 13.5q-96 0 -102 -58l-14 -76q-6 -33 14 -47t67 -14q88 0 101 59z" />
    <glyph glyph-name="seven.sc" horiz-adv-x="843" 
d="M82 743l55 308h744l-52 -289l-399 -762h-375l441 743h-414z" />
    <glyph glyph-name="eight.sc" horiz-adv-x="1017" 
d="M612 1077q216 0 308.5 -67t70.5 -209l-4 -29q-23 -158 -182 -227q78 -29 108.5 -84t18.5 -139l-8 -46q-23 -149 -154 -225t-352 -76q-223 0 -322 74.5t-76 226.5l9 46q23 168 200 225q-122 64 -98 225l6 29q21 143 140.5 209.5t334.5 66.5zM467 745l-8 -59q-5 -27 14 -42
t62 -15q44 0 70 15.5t28 41.5l8 59q5 31 -14 47.5t-62 16.5q-45 0 -71 -16.5t-27 -47.5zM586 315l10 68q6 36 -18 54t-74 18q-54 0 -87 -18t-34 -54l-10 -68q-6 -36 17 -53.5t75 -17.5q118 0 121 71z" />
    <glyph glyph-name="nine.sc" horiz-adv-x="1019" 
d="M598 1075q218 0 313.5 -110t61.5 -312l-43 -243q-40 -239 -170 -337t-359 -98q-88 0 -157 19t-111 52.5t-68.5 79t-29 99t7.5 111.5l8 47h340l-10 -59q-7 -26 9 -43t63 -17q61 0 88.5 33.5t36.5 91.5l18 92q-86 -55 -227 -55q-157 0 -226.5 71.5t-46.5 211.5l13 69
q23 147 146.5 222t342.5 75zM446 735l-14 -78q-5 -29 14.5 -43t65.5 -14q92 0 102 57l15 78q4 30 -15.5 44t-64.5 14q-94 0 -103 -58z" />
    <glyph glyph-name="uni030C.alt" 
d="M-229 1044h-224l101 342h303z" />
    <glyph glyph-name="uni0308.case" 
d="M-446 1104q-129 0 -129 117q0 93 50 148.5t134 55.5q129 0 129 -114q0 -94 -50.5 -150.5t-133.5 -56.5zM-123 1104q-65 0 -98 30.5t-33 86.5q0 92 50.5 148t135.5 56q127 0 127 -114q0 -94 -49.5 -150.5t-132.5 -56.5z" />
    <glyph glyph-name="uni0307.case" 
d="M-156 1104q-65 0 -98 30.5t-33 86.5q0 92 51.5 148t137.5 56q127 0 127 -114q0 -94 -51 -150.5t-134 -56.5z" />
    <glyph glyph-name="gravecomb.case" 
d="M76 1085h-289l-154 310h328z" />
    <glyph glyph-name="acutecomb.case" 
d="M-145 1085h-291l225 310h326z" />
    <glyph glyph-name="uni030B.case" 
d="M-475 1085h-273l185 312h307zM-156 1085h-270l231 312h306z" />
    <glyph glyph-name="uni030C.alt.case" 
d="M-242 874h-237l133 512h317z" />
    <glyph glyph-name="uni0302.case" 
d="M-27 1757l115 -309h-266l-35 98l-72 -98h-264l225 309h297z" />
    <glyph glyph-name="uni030C.case" 
d="M-229 1399l71 98h264l-225 -311h-297l-114 311h264z" />
    <glyph glyph-name="uni0306.case" 
d="M-231 1067q-279 0 -222 328h228q-9 -50 -10 -76.5t7.5 -39.5t30.5 -13q32 0 45.5 26.5t26.5 102.5h227q-57 -328 -333 -328z" />
    <glyph glyph-name="uni030A.case" 
d="M-236 1135q-102 0 -158.5 43t-56.5 131q0 98 71.5 155.5t211.5 57.5q215 0 215 -166q0 -107 -73 -164t-210 -57zM-211 1278q31 0 48.5 18.5t17.5 44.5q0 37 -45 37q-33 0 -50.5 -18t-17.5 -45q0 -37 47 -37z" />
    <glyph glyph-name="tildecomb.case" 
d="M-88 1116q-45 0 -102 32t-95 32q-42 0 -73 -9.5t-76 -37.5l39 223q77 51 151 51q46 0 103 -32t98 -32q72 0 152 52l-39 -226q-77 -53 -158 -53z" />
    <glyph glyph-name="uni0304.case" 
d="M70 1135h-531l39 231h533z" />
    <glyph glyph-name="uni0326.case" 
d="M-805 -410l187 332h325l-262 -332h-250z" />
    <glyph glyph-name="uni0327.case" 
d="M-283 0l-51 -80q158 -19 158 -131q0 -134 -123.5 -192.5t-345.5 -32.5l31 176q92 -8 134 -1t42 30q0 35 -135 22l20 119l55 90h215z" />
    <glyph glyph-name="uni0328.case" 
d="M-160 104l58 -104q-75 -44 -118.5 -87.5t-43.5 -78.5q0 -47 90 -27l-35 -202q-149 -20 -225 17.5t-76 127.5q0 226 350 354z" />
    </font>
</defs>
</svg>
